M48
;Layer_Color=9474304
;FILE_FORMAT=4:4
METRIC,LZ
;TYPE=PLATED
T01F00S00C0.2000
T02F00S00C0.2540
T03F00S00C0.8000
T04F00S00C0.9000
T05F00S00C1.0000
T06F00S00C1.1000
T07F00S00C1.1000
T08F00S00C1.3000
T09F00S00C1.6500
T10F00S00C1.8000
;TYPE=NON_PLATED
T11F00S00C1.0000
T12F00S00C1.3000
T13F00S00C3.0000
T14F00S00C3.1000
T15F00S00C3.2500
%
T01
X00149Y00055426
X00167373Y00062239
X00185Y00055426
X00136Y00074426
Y00102128
X0016Y00196
X00149Y00275
X00167373Y00281813
X00185Y00275
X00136Y00294
Y00321701
X002955Y00102128
Y00074426
X003085Y00055426
X00326873Y00062239
X003445Y00055426
X00412146Y00301461
Y00311461
Y00320461
Y00329461
X00413146Y00343461
X00456012Y00352386
X00461126Y00352461
X00462Y00362
X00494Y00364
X00508364Y00344
X00522Y00336
X00501Y00326
X00499Y00321
X00499146Y00315441
X00499Y00308
X00492146Y00310461
X00471146
X00459146Y00308461
X00448146
Y00297461
X00454146Y00302461
X0057Y00376
X00642Y00209
X00703Y00171
X00724Y00189
X008Y00209
X00834Y0022
Y00231
X0084Y00242
X00834Y00253
X0084Y00264
X00834Y00275
Y00286
Y00297
X0088
Y00275
Y00253
Y0022
X00895Y00231
Y00286
X00904Y00133
X00927
X00856Y00423
X00832Y00409
X00769Y00516
X00741695Y00543662
X00713Y00579
Y00599
X0073Y00614
Y00643
X00741
X00755
X00748Y0066649
X00773Y0066349
X00769Y00604
X00722Y00691
X00713Y00785
X0070265Y00681345
X00699Y00649
X00709
X00688
X00677
X0068Y00665
X00619581Y00652218
X00637Y00631
X0062Y00614
X00611752Y00613833
X00604Y00614
X00588
Y00606
X0058Y00614
X00572
X00563
X00556
X00548Y00606
X00540206Y00605815
X00532Y00606
Y00614
X00539695Y00614003
X00524Y00614
X00516Y00606
Y00598367
X00507869Y00597912
X005Y00598
Y00582
X00508
X00508035Y0059
X00532
Y00582
Y00574
Y00566
X00524
X00532Y00558
Y0055
Y00542
Y00534
X00532097Y00525726
X00532Y00518
Y0051
X00548
Y00518
Y00526
Y00534
Y00542
Y0055
Y00558
Y00566
Y00574
Y00582
Y0059
X00564
Y00582
X00564Y00574
X00564Y00566
Y00558
Y0055
Y00542
Y00534
Y00526
Y00518
Y00502
Y00494
X00556
X00572Y00502
X0058Y00502
Y00494
X00588
X00604
Y0051
X00612Y00518
X00596
Y00526
Y00534
Y00542
Y0055
Y00558
Y00566
Y00574
Y00582
Y0059
Y00598
X0058Y0059
Y00582
Y00574
Y00566
Y00558
Y0055
Y00542
Y00534
Y00526
Y00518
X00588
X00604Y00542
X0062
Y00574
Y0059
X00642Y00586
X00644549Y00566404
X00671Y00566
Y00576
X00670325Y00590929
X00670984Y00596399
X00693Y00599
X00703Y00589
X00693Y00579
X0069575Y0054975
X00711Y00554
X00695562Y00513334
Y00488682
X00644Y00494
X00638Y0049
X00637Y00477
X00620904Y00473096
X00607Y00444
X0056802Y00423
X00554613Y00416811
X00559Y00406
X0054Y00422
X00526
X00498
X00458Y00438
X0044Y00476
X00406Y00481
Y0047
X004Y00475
Y0049
Y00503
X00414841Y00495876
X0042Y00512
X00434Y00523
X00461Y00522
X00459Y00512
X005Y00494
X00532
X0054Y00502
X00516Y0051
Y00518
Y00526
Y00542035
X005Y0055
X00492Y00574
X00484
X00442677Y00566038
X00404Y006
Y00609341
Y00620811
X00382613Y0059049
X00469Y00627
X00483Y00631
X00540082Y00637705
X0053187Y00646732
X00561Y00639
X00567
X0057953Y00647
X0058787Y00698569
X00584Y0071
X00584508Y00717492
X00583516Y00726484
X00596Y00725
Y00715
Y00706
X00600372Y00695372
X00576Y0071
X0056887Y00726401
X0056757Y00734
X00576Y00742
Y00758
X00568
Y00774
Y00782
X00596Y00786
Y00778
Y0077
Y00761
X00595799Y00754201
X00596057Y00742708
X00544Y00742
Y0075
X00536
Y00742
Y00734
X00535728Y00726406
X00528Y00726
X00527922Y00718214
X00536Y00718
Y0071
X00516Y00706
X00506Y00712
X00516Y00725
Y00737
X00528Y00734
X00528053Y00758
X00536
Y00766
X00528
X00516Y0077
Y00778
Y00786
X00544Y00767
Y00758
X0036Y00778
X00321Y00766
X00331Y00711
X0042Y00415
X0044502Y00394399
X00516Y00472
X00644Y00506
X0066602Y00534
X00654Y00611
X0016Y00636
X00152764Y0073813
X00262Y00762
X00185Y00497091
X00167373Y00503904
X00149Y00497091
X00136Y00516091
Y00543792
X0016Y00416
X00262058Y00848479
X0029473Y01011
X00314
X00344
X00353Y00981
X00363
X00386Y00961
X00399Y00971
X00413043Y00963553
X00426Y00971
X00456Y0097
X00458Y00955
X00465714Y00942
X00484143
X00502
X00521
X00534
X00533Y00952
X00548Y00943
X00561Y00949
X00589Y00955
X00595Y0094
X00594Y00892
X00611Y00885
X00627
X00626Y0085
X00639
X00613
X006
X00587
X00574
X00596Y00829
Y00818
X00583455Y00798
X00576Y00798
X00568Y0079
X00544Y00814
X00516Y00818
Y0081
Y00802
Y00829
X00518Y008455
X00503
X0046
Y0086
X0046Y00831
X0044225
X004245
X00392Y00845
Y00859
X00387Y0088
X00341Y0089
X00342Y00907
X00353Y00919
X00363
X00392Y00942
X00410429
X00428857
X00447286
X00466Y00985
X0051
X00506855Y00914442
X0049556Y00914
X00499Y00885
X0051
X00543Y00884
X00481084Y00892143
X00315Y00907
X0034Y00827
X00773Y00802
X00715963Y00980037
X00716054Y0099994
T02
X00870105Y00429
X00442708Y00717235
T03
X00077Y00076053
Y00096053
Y00116053
Y00136053
Y00156053
Y00176053
Y00196053
Y00216053
Y00236053
X00097
Y00216053
Y00196053
Y00176053
Y00156053
Y00136053
Y00116053
Y00096053
Y00076053
X00237
Y00096053
Y00116053
Y00136053
Y00156053
Y00176053
Y00196053
Y00216053
Y00236053
X00257
Y00216053
Y00196053
Y00176053
Y00156053
Y00136053
Y00116053
Y00096053
Y00076053
X00097Y0029606
Y0031606
Y0033606
Y0035606
Y0037606
X00077
Y0035606
Y0033606
Y0031606
Y0029606
Y0039606
Y0041606
Y0043606
Y0045606
X00097
Y0043606
Y0041606
Y0039606
Y0051606
Y0053606
Y0055606
Y0057606
Y0059606
Y0061606
Y0063606
Y0065606
Y0067606
X00077
Y0065606
Y0063606
Y0061606
Y0059606
Y0057606
Y0055606
Y0053606
Y0051606
T04
X008214Y00528
Y005534
Y005788
Y006042
X008468Y005915
Y005661
Y005407
Y005153
X00659Y0098
X00639
Y01
X00659
X00619
Y0098
X00923218Y00883184
Y00858184
X00948218
Y00883184
T05
X00787Y003642
X00946Y003745
Y004195
X00787Y00415
Y003896
X00961Y007595
X003937Y007171
X003683
Y006917
X003937
Y006663
X003683
Y006409
X003937
X00961Y008045
T06
X000229Y00758
X000483
X000737
X000991
X001526
X00178
X002034
X002288
Y00842
X002034
X00178
X001526
X000991
X000737
X000483
X000229
T07
X009357Y004925
X00956
Y00627
X009357
T08
X00921Y00362
Y00432
X00936Y00747
Y00817
T09
X008798Y00481
Y006385
T10
X00143Y00927998
Y00969998
Y01011998
X00198
Y00969998
Y00927998
T11
X00958Y00225
Y00305
T12
X000483Y007364
X00178
Y008204
X000483
T13
X00467Y0005
X00932
X00332Y01045
X0094
T14
X0007Y00927999
Y01011998
T15
X009103Y005026
Y006169
M30
