M48
;Layer_Color=9474304
;FILE_FORMAT=4:4
METRIC,LZ
;TYPE=PLATED
T01F00S00C0.2000
T02F00S00C0.2540
;TYPE=NON_PLATED
%
T01
X00139216Y00138622
X00139287Y00161137
X00139115Y00206572
X00138972Y00358293
X00299Y00208
X00299653Y00162515
X00299Y00138
X00777Y0022
X008Y00231
X00771Y00253
X00733Y00275
X00727Y00285
X0072Y00297
X00715579Y00542786
X00653345Y00544146
X00637107Y00544035
X00638Y00534
X00604Y00518
Y00502
X00596
X00588
X00523995Y00502177
X0049958Y00501278
X00499393Y00486607
X005Y0047
X00493144Y00470481
X0049065Y0051
X00508Y0053298
Y0055
Y00566
X00492Y00558
X00466Y00555
X00471Y0055
X00458Y00562
X0044Y00507
X00408Y00456741
X00393Y0057098
X00492Y00614
X005
X00474Y00633
X00492Y00654
X00516Y00644
X00588Y00652
X0059187Y00639
X0060115
X0058Y00622
X0061994Y00606144
X00612Y00598
Y00574
X0062Y00566
X00584Y00766
X00566Y00768
X00576992Y00782992
X00583455Y00806209
X00584354Y00830638
X00536035Y0079
X00872Y00858
T02
X00196803Y00294073
X00356Y00074
X00870105Y00398277
X00196Y00516
X00276975Y00722074
X00277Y00767
Y00809
Y00853
M30
