M48
;Layer_Color=9474304
;FILE_FORMAT=4:4
METRIC,LZ
;TYPE=PLATED
T01F00S00C0.2000
T02F00S00C0.2540
;TYPE=NON_PLATED
%
T01
X00508364Y00336
X0051649Y0044802
X00523Y00448
X00548136Y00433424
X00458Y00406
X00471Y00526
X00482Y0053
X00491393Y00534607
X00492Y00542
X00499568Y00542131
X005Y00534
X00508596Y00526
X00516Y0059
X00508Y00644
X0051215Y00651
X00528Y00643
X00544Y00642
X00550737Y00653
X00547012Y00658984
X00544Y00663
X0054Y00673
X0058753Y00663
X00596Y00646
X00584Y00639
X00576
X00604Y00606
X00628Y00614
X00624Y00656
X00635Y00658
X00641Y00652
X00684Y00693
Y00706
X00528Y00742
Y00774
X00528106Y00781958
X00457Y00655
X00612Y00566
Y00558
Y0055
X00604291Y0055753
X00628Y00558
Y0055
X00642Y00547
X0062Y00526
X00612
X00604
X00627Y00502
X00139228Y00579218
X00139331Y00602518
X00138977Y00618336
X00536035Y00805
X00544Y00806
X00545Y00798
Y00821
X00536Y00822
X00576Y0083
X00584Y00814
X00872Y00839
T02
X00198864Y0007469
M30
