G04*
G04 #@! TF.GenerationSoftware,Altium Limited,Altium Designer,24.2.2 (26)*
G04*
G04 Layer_Color=128*
%FSLAX44Y44*%
%MOMM*%
G71*
G04*
G04 #@! TF.SameCoordinates,D1F85D35-12B9-47B7-842E-F7ABDB1EEA32*
G04*
G04*
G04 #@! TF.FilePolarity,Positive*
G04*
G01*
G75*
G04:AMPARAMS|DCode=22|XSize=0.7mm|YSize=0.6mm|CornerRadius=0.15mm|HoleSize=0mm|Usage=FLASHONLY|Rotation=90.000|XOffset=0mm|YOffset=0mm|HoleType=Round|Shape=RoundedRectangle|*
%AMROUNDEDRECTD22*
21,1,0.7000,0.3000,0,0,90.0*
21,1,0.4000,0.6000,0,0,90.0*
1,1,0.3000,0.1500,0.2000*
1,1,0.3000,0.1500,-0.2000*
1,1,0.3000,-0.1500,-0.2000*
1,1,0.3000,-0.1500,0.2000*
%
%ADD22ROUNDEDRECTD22*%
G04:AMPARAMS|DCode=24|XSize=0.7mm|YSize=0.6mm|CornerRadius=0.15mm|HoleSize=0mm|Usage=FLASHONLY|Rotation=0.000|XOffset=0mm|YOffset=0mm|HoleType=Round|Shape=RoundedRectangle|*
%AMROUNDEDRECTD24*
21,1,0.7000,0.3000,0,0,0.0*
21,1,0.4000,0.6000,0,0,0.0*
1,1,0.3000,0.2000,-0.1500*
1,1,0.3000,-0.2000,-0.1500*
1,1,0.3000,-0.2000,0.1500*
1,1,0.3000,0.2000,0.1500*
%
%ADD24ROUNDEDRECTD24*%
G04:AMPARAMS|DCode=28|XSize=0.95mm|YSize=1mm|CornerRadius=0.2375mm|HoleSize=0mm|Usage=FLASHONLY|Rotation=90.000|XOffset=0mm|YOffset=0mm|HoleType=Round|Shape=RoundedRectangle|*
%AMROUNDEDRECTD28*
21,1,0.9500,0.5250,0,0,90.0*
21,1,0.4750,1.0000,0,0,90.0*
1,1,0.4750,0.2625,0.2375*
1,1,0.4750,0.2625,-0.2375*
1,1,0.4750,-0.2625,-0.2375*
1,1,0.4750,-0.2625,0.2375*
%
%ADD28ROUNDEDRECTD28*%
G04:AMPARAMS|DCode=30|XSize=0.95mm|YSize=1mm|CornerRadius=0.2375mm|HoleSize=0mm|Usage=FLASHONLY|Rotation=180.000|XOffset=0mm|YOffset=0mm|HoleType=Round|Shape=RoundedRectangle|*
%AMROUNDEDRECTD30*
21,1,0.9500,0.5250,0,0,180.0*
21,1,0.4750,1.0000,0,0,180.0*
1,1,0.4750,-0.2375,0.2625*
1,1,0.4750,0.2375,0.2625*
1,1,0.4750,0.2375,-0.2625*
1,1,0.4750,-0.2375,-0.2625*
%
%ADD30ROUNDEDRECTD30*%
G04:AMPARAMS|DCode=31|XSize=1.5mm|YSize=1.6mm|CornerRadius=0.375mm|HoleSize=0mm|Usage=FLASHONLY|Rotation=180.000|XOffset=0mm|YOffset=0mm|HoleType=Round|Shape=RoundedRectangle|*
%AMROUNDEDRECTD31*
21,1,1.5000,0.8500,0,0,180.0*
21,1,0.7500,1.6000,0,0,180.0*
1,1,0.7500,-0.3750,0.4250*
1,1,0.7500,0.3750,0.4250*
1,1,0.7500,0.3750,-0.4250*
1,1,0.7500,-0.3750,-0.4250*
%
%ADD31ROUNDEDRECTD31*%
%ADD111C,1.5000*%
G04:AMPARAMS|DCode=122|XSize=1.15mm|YSize=1.8mm|CornerRadius=0.2875mm|HoleSize=0mm|Usage=FLASHONLY|Rotation=180.000|XOffset=0mm|YOffset=0mm|HoleType=Round|Shape=RoundedRectangle|*
%AMROUNDEDRECTD122*
21,1,1.1500,1.2250,0,0,180.0*
21,1,0.5750,1.8000,0,0,180.0*
1,1,0.5750,-0.2875,0.6125*
1,1,0.5750,0.2875,0.6125*
1,1,0.5750,0.2875,-0.6125*
1,1,0.5750,-0.2875,-0.6125*
%
%ADD122ROUNDEDRECTD122*%
%ADD123R,1.3500X0.6000*%
%ADD124R,0.5000X0.4000*%
G04:AMPARAMS|DCode=125|XSize=1.5mm|YSize=1.6mm|CornerRadius=0.375mm|HoleSize=0mm|Usage=FLASHONLY|Rotation=90.000|XOffset=0mm|YOffset=0mm|HoleType=Round|Shape=RoundedRectangle|*
%AMROUNDEDRECTD125*
21,1,1.5000,0.8500,0,0,90.0*
21,1,0.7500,1.6000,0,0,90.0*
1,1,0.7500,0.4250,0.3750*
1,1,0.7500,0.4250,-0.3750*
1,1,0.7500,-0.4250,-0.3750*
1,1,0.7500,-0.4250,0.3750*
%
%ADD125ROUNDEDRECTD125*%
D22*
X499000Y812430D02*
D03*
X616000Y754500D02*
D03*
X499000Y802609D02*
D03*
X616000Y742375D02*
D03*
X499000Y790875D02*
D03*
Y718125D02*
D03*
X616000Y803000D02*
D03*
Y766625D02*
D03*
Y778750D02*
D03*
X499000Y730250D02*
D03*
X616000Y706000D02*
D03*
X499000D02*
D03*
X616000Y718125D02*
D03*
X499000Y742375D02*
D03*
X616000Y730250D02*
D03*
X499000Y766625D02*
D03*
Y754500D02*
D03*
X616000Y790875D02*
D03*
X499000Y778750D02*
D03*
X696852Y209000D02*
D03*
X686852D02*
D03*
X663000D02*
D03*
X653000D02*
D03*
X636000Y551000D02*
D03*
X626000D02*
D03*
X635000Y522000D02*
D03*
X625000D02*
D03*
X664183Y596548D02*
D03*
X654183D02*
D03*
X664466Y576484D02*
D03*
X654466D02*
D03*
X664000Y506000D02*
D03*
X654000D02*
D03*
X722000Y681000D02*
D03*
X712000D02*
D03*
X489000Y706000D02*
D03*
Y730250D02*
D03*
Y742375D02*
D03*
Y802609D02*
D03*
X476000Y838760D02*
D03*
X466000D02*
D03*
X476000Y821086D02*
D03*
X466000D02*
D03*
X476000Y803000D02*
D03*
X466000D02*
D03*
Y754000D02*
D03*
X476000D02*
D03*
X466000Y730000D02*
D03*
X476000D02*
D03*
X466000Y706000D02*
D03*
X476000D02*
D03*
X626000Y742375D02*
D03*
Y730250D02*
D03*
Y718125D02*
D03*
X649000Y706000D02*
D03*
X639000D02*
D03*
X649000Y730250D02*
D03*
X639000D02*
D03*
X649000Y754500D02*
D03*
X639000D02*
D03*
X626000Y766625D02*
D03*
Y803000D02*
D03*
Y778750D02*
D03*
X649000Y821086D02*
D03*
X639000D02*
D03*
X649000Y838760D02*
D03*
X639000D02*
D03*
X501000Y336000D02*
D03*
X511000D02*
D03*
X489000Y812430D02*
D03*
X626000Y706000D02*
D03*
Y790875D02*
D03*
Y754500D02*
D03*
X489000Y766625D02*
D03*
Y754500D02*
D03*
Y718125D02*
D03*
Y778750D02*
D03*
X639000Y778750D02*
D03*
X649000D02*
D03*
X476000Y779000D02*
D03*
X466000D02*
D03*
X639000Y803000D02*
D03*
X649000D02*
D03*
X654466Y490000D02*
D03*
X664466D02*
D03*
X489000Y790875D02*
D03*
X885000Y231000D02*
D03*
X875000D02*
D03*
X870000Y220000D02*
D03*
X860000D02*
D03*
X870000Y297000D02*
D03*
X860000D02*
D03*
X870000Y253000D02*
D03*
X860000D02*
D03*
X870000Y275000D02*
D03*
X860000D02*
D03*
X885000Y286000D02*
D03*
X875000D02*
D03*
D24*
X538333Y838000D02*
D03*
X563000D02*
D03*
X526000D02*
D03*
X605000Y754000D02*
D03*
X550667Y838000D02*
D03*
X649000Y241000D02*
D03*
Y231000D02*
D03*
X663000Y241000D02*
D03*
Y231000D02*
D03*
X682565Y241000D02*
D03*
Y231000D02*
D03*
X696852Y241000D02*
D03*
Y231000D02*
D03*
X724000Y199000D02*
D03*
Y209000D02*
D03*
X522000Y581367D02*
D03*
Y591367D02*
D03*
X539974Y581557D02*
D03*
Y591557D02*
D03*
X556180Y581694D02*
D03*
Y591694D02*
D03*
X572000Y581649D02*
D03*
Y591649D02*
D03*
X587957Y581649D02*
D03*
Y591649D02*
D03*
X604969Y581609D02*
D03*
Y591609D02*
D03*
X516000Y557000D02*
D03*
Y567000D02*
D03*
X540000Y568000D02*
D03*
Y558000D02*
D03*
X572000Y568000D02*
D03*
Y558000D02*
D03*
X605000Y563000D02*
D03*
Y573000D02*
D03*
X588000Y563000D02*
D03*
Y573000D02*
D03*
X556000Y563000D02*
D03*
Y573000D02*
D03*
X588000Y541000D02*
D03*
Y551000D02*
D03*
X572000Y549000D02*
D03*
Y539000D02*
D03*
X540000Y549000D02*
D03*
Y539000D02*
D03*
X556000Y549000D02*
D03*
Y539000D02*
D03*
X524000D02*
D03*
Y549000D02*
D03*
X508000Y539000D02*
D03*
Y549000D02*
D03*
X491000Y583000D02*
D03*
Y593000D02*
D03*
X523000Y517000D02*
D03*
Y527000D02*
D03*
X540000Y517000D02*
D03*
Y527000D02*
D03*
X556000D02*
D03*
Y517000D02*
D03*
X524000Y494000D02*
D03*
Y504000D02*
D03*
X540000Y484000D02*
D03*
Y494000D02*
D03*
X572000Y527000D02*
D03*
Y517000D02*
D03*
X741000Y625000D02*
D03*
Y635000D02*
D03*
X755000Y625000D02*
D03*
Y635000D02*
D03*
X392000Y600000D02*
D03*
Y590000D02*
D03*
X550667Y848000D02*
D03*
X563000D02*
D03*
X508000Y872000D02*
D03*
Y862000D02*
D03*
X603953Y872000D02*
D03*
Y862000D02*
D03*
X392000Y620811D02*
D03*
Y610811D02*
D03*
X695500Y524000D02*
D03*
Y534000D02*
D03*
X526000Y848000D02*
D03*
X538333D02*
D03*
X605000Y744000D02*
D03*
X556000Y775000D02*
D03*
Y765000D02*
D03*
D28*
X580500Y448000D02*
D03*
X595500D02*
D03*
X379646Y310461D02*
D03*
X394646D02*
D03*
D30*
X458146Y272961D02*
D03*
Y287961D02*
D03*
D31*
X773000Y626500D02*
D03*
Y647500D02*
D03*
X476146Y290961D02*
D03*
Y269961D02*
D03*
D111*
X778000Y209000D02*
D03*
D122*
X580447Y473096D02*
D03*
X609447D02*
D03*
D123*
X686852Y190123D02*
D03*
Y171123D02*
D03*
X662852Y180623D02*
D03*
D124*
X730000Y633000D02*
D03*
Y625000D02*
D03*
D125*
X717500Y665000D02*
D03*
X696500D02*
D03*
X397646Y330461D02*
D03*
X376646D02*
D03*
M02*
