G04*
G04 #@! TF.GenerationSoftware,Altium Limited,Altium Designer,24.2.2 (26)*
G04*
G04 Layer_Color=128*
%FSLAX44Y44*%
%MOMM*%
G71*
G04*
G04 #@! TF.SameCoordinates,D1F85D35-12B9-47B7-842E-F7ABDB1EEA32*
G04*
G04*
G04 #@! TF.FilePolarity,Positive*
G04*
G01*
G75*
%ADD13C,0.1270*%
D13*
X507596Y526000D02*
X509596D01*
X508596Y525000D02*
Y527000D01*
X197594Y74690D02*
X200134D01*
X198864Y73420D02*
Y75960D01*
X456000Y655000D02*
X458000D01*
X457000Y654000D02*
Y656000D01*
X575000Y639000D02*
X577000D01*
X576000Y638000D02*
Y640000D01*
X543000Y642000D02*
X545000D01*
X544000Y641000D02*
Y643000D01*
Y798000D02*
X546000D01*
X545000Y797000D02*
Y799000D01*
X544000Y821000D02*
X546000D01*
X545000Y820000D02*
Y822000D01*
X627000Y614000D02*
X629000D01*
X628000Y613000D02*
Y615000D01*
X583000Y814000D02*
X585000D01*
X584000Y813000D02*
Y815000D01*
X634000Y658000D02*
X636000D01*
X635000Y657000D02*
Y659000D01*
X535000Y822000D02*
X537000D01*
X536000Y821000D02*
Y823000D01*
X586530Y663000D02*
X588530D01*
X587530Y662000D02*
Y664000D01*
X575000Y830000D02*
X577000D01*
X576000Y829000D02*
Y831000D01*
X640000Y652000D02*
X642000D01*
X641000Y651000D02*
Y653000D01*
X535035Y805000D02*
X537035D01*
X536035Y804000D02*
Y806000D01*
X623000Y656000D02*
X625000D01*
X624000Y655000D02*
Y657000D01*
X543000Y806000D02*
X545000D01*
X544000Y805000D02*
Y807000D01*
X527000Y774000D02*
X529000D01*
X528000Y773000D02*
Y775000D01*
X511150Y651000D02*
X513150D01*
X512150Y650000D02*
Y652000D01*
X539000Y673000D02*
X541000D01*
X540000Y672000D02*
Y674000D01*
X527106Y781958D02*
X529106D01*
X528106Y780958D02*
Y782958D01*
X507000Y644000D02*
X509000D01*
X508000Y643000D02*
Y645000D01*
X527000Y742000D02*
X529000D01*
X528000Y741000D02*
Y743000D01*
X549737Y653000D02*
X551737D01*
X550737Y652000D02*
Y654000D01*
X543000Y663000D02*
X545000D01*
X544000Y662000D02*
Y664000D01*
X583000Y639000D02*
X585000D01*
X584000Y638000D02*
Y640000D01*
X546012Y658984D02*
X548012D01*
X547012Y657984D02*
Y659984D01*
X595000Y646000D02*
X597000D01*
X596000Y645000D02*
Y647000D01*
X527000Y643000D02*
X529000D01*
X528000Y642000D02*
Y644000D01*
X522000Y448000D02*
X524000D01*
X523000Y447000D02*
Y449000D01*
X515490Y448020D02*
X517490D01*
X516490Y447020D02*
Y449020D01*
X547136Y433424D02*
X549136D01*
X548136Y432424D02*
Y434424D01*
X603000Y606000D02*
X605000D01*
X604000Y605000D02*
Y607000D01*
X641000Y547000D02*
X643000D01*
X642000Y546000D02*
Y548000D01*
X515000Y590000D02*
X517000D01*
X516000Y589000D02*
Y591000D01*
X507364Y336000D02*
X509364D01*
X508364Y335000D02*
Y337000D01*
X626000Y502000D02*
X628000D01*
X627000Y501000D02*
Y503000D01*
Y558000D02*
X629000D01*
X628000Y557000D02*
Y559000D01*
X603000Y526000D02*
X605000D01*
X604000Y525000D02*
Y527000D01*
X627000Y550000D02*
X629000D01*
X628000Y549000D02*
Y551000D01*
X611000Y566000D02*
X613000D01*
X612000Y565000D02*
Y567000D01*
X611000Y526000D02*
X613000D01*
X612000Y525000D02*
Y527000D01*
X683000Y706000D02*
X685000D01*
X684000Y705000D02*
Y707000D01*
X683000Y693000D02*
X685000D01*
X684000Y692000D02*
Y694000D01*
X871000Y839000D02*
X873000D01*
X872000Y838000D02*
Y840000D01*
X457000Y406000D02*
X459000D01*
X458000Y405000D02*
Y407000D01*
X470000Y526000D02*
X472000D01*
X471000Y525000D02*
Y527000D01*
X619000Y526000D02*
X621000D01*
X620000Y525000D02*
Y527000D01*
X137977Y618336D02*
X139977D01*
X138977Y617336D02*
Y619336D01*
X138331Y602518D02*
X140331D01*
X139331Y601518D02*
Y603518D01*
X603291Y557530D02*
X605291D01*
X604291Y556530D02*
Y558530D01*
X611000Y558000D02*
X613000D01*
X612000Y557000D02*
Y559000D01*
X138228Y579218D02*
X140228D01*
X139228Y578218D02*
Y580218D01*
X611000Y550000D02*
X613000D01*
X612000Y549000D02*
Y551000D01*
X499000Y534000D02*
X501000D01*
X500000Y533000D02*
Y535000D01*
X481000Y530000D02*
X483000D01*
X482000Y529000D02*
Y531000D01*
X491000Y542000D02*
X493000D01*
X492000Y541000D02*
Y543000D01*
X490393Y534607D02*
X492393D01*
X491393Y533607D02*
Y535607D01*
X498568Y542131D02*
X500568D01*
X499568Y541131D02*
Y543131D01*
M02*
