G04*
G04 #@! TF.GenerationSoftware,Altium Limited,Altium Designer,24.2.2 (26)*
G04*
G04 Layer_Color=16711935*
%FSLAX44Y44*%
%MOMM*%
G71*
G04*
G04 #@! TF.SameCoordinates,D1F85D35-12B9-47B7-842E-F7ABDB1EEA32*
G04*
G04*
G04 #@! TF.FilePolarity,Negative*
G04*
G01*
G75*
G04:AMPARAMS|DCode=52|XSize=0.9032mm|YSize=0.8032mm|CornerRadius=0.2516mm|HoleSize=0mm|Usage=FLASHONLY|Rotation=90.000|XOffset=0mm|YOffset=0mm|HoleType=Round|Shape=RoundedRectangle|*
%AMROUNDEDRECTD52*
21,1,0.9032,0.3000,0,0,90.0*
21,1,0.4000,0.8032,0,0,90.0*
1,1,0.5032,0.1500,0.2000*
1,1,0.5032,0.1500,-0.2000*
1,1,0.5032,-0.1500,-0.2000*
1,1,0.5032,-0.1500,0.2000*
%
%ADD52ROUNDEDRECTD52*%
G04:AMPARAMS|DCode=53|XSize=0.9032mm|YSize=0.8032mm|CornerRadius=0.2516mm|HoleSize=0mm|Usage=FLASHONLY|Rotation=0.000|XOffset=0mm|YOffset=0mm|HoleType=Round|Shape=RoundedRectangle|*
%AMROUNDEDRECTD53*
21,1,0.9032,0.3000,0,0,0.0*
21,1,0.4000,0.8032,0,0,0.0*
1,1,0.5032,0.2000,-0.1500*
1,1,0.5032,-0.2000,-0.1500*
1,1,0.5032,-0.2000,0.1500*
1,1,0.5032,0.2000,0.1500*
%
%ADD53ROUNDEDRECTD53*%
%ADD57C,2.0000*%
G04:AMPARAMS|DCode=58|XSize=1.1532mm|YSize=1.2032mm|CornerRadius=0.3391mm|HoleSize=0mm|Usage=FLASHONLY|Rotation=90.000|XOffset=0mm|YOffset=0mm|HoleType=Round|Shape=RoundedRectangle|*
%AMROUNDEDRECTD58*
21,1,1.1532,0.5250,0,0,90.0*
21,1,0.4750,1.2032,0,0,90.0*
1,1,0.6782,0.2625,0.2375*
1,1,0.6782,0.2625,-0.2375*
1,1,0.6782,-0.2625,-0.2375*
1,1,0.6782,-0.2625,0.2375*
%
%ADD58ROUNDEDRECTD58*%
G04:AMPARAMS|DCode=60|XSize=1.1532mm|YSize=1.2032mm|CornerRadius=0.3391mm|HoleSize=0mm|Usage=FLASHONLY|Rotation=180.000|XOffset=0mm|YOffset=0mm|HoleType=Round|Shape=RoundedRectangle|*
%AMROUNDEDRECTD60*
21,1,1.1532,0.5250,0,0,180.0*
21,1,0.4750,1.2032,0,0,180.0*
1,1,0.6782,-0.2375,0.2625*
1,1,0.6782,0.2375,0.2625*
1,1,0.6782,0.2375,-0.2625*
1,1,0.6782,-0.2375,-0.2625*
%
%ADD60ROUNDEDRECTD60*%
G04:AMPARAMS|DCode=61|XSize=1.7032mm|YSize=1.8032mm|CornerRadius=0.4766mm|HoleSize=0mm|Usage=FLASHONLY|Rotation=180.000|XOffset=0mm|YOffset=0mm|HoleType=Round|Shape=RoundedRectangle|*
%AMROUNDEDRECTD61*
21,1,1.7032,0.8500,0,0,180.0*
21,1,0.7500,1.8032,0,0,180.0*
1,1,0.9532,-0.3750,0.4250*
1,1,0.9532,0.3750,0.4250*
1,1,0.9532,0.3750,-0.4250*
1,1,0.9532,-0.3750,-0.4250*
%
%ADD61ROUNDEDRECTD61*%
%ADD79C,2.1032*%
%ADD80C,1.5032*%
%ADD81C,3.2032*%
%ADD82C,1.4532*%
%ADD83C,2.1532*%
%ADD84C,1.7112*%
%ADD85R,1.7112X1.7112*%
%ADD86C,1.7032*%
%ADD87C,1.8032*%
%ADD88C,0.7032*%
%ADD89R,1.7032X1.7032*%
%ADD90C,2.7032*%
%ADD91C,3.4532*%
%ADD124R,0.5000X0.4000*%
G04:AMPARAMS|DCode=126|XSize=1.3532mm|YSize=2.0032mm|CornerRadius=0.3891mm|HoleSize=0mm|Usage=FLASHONLY|Rotation=180.000|XOffset=0mm|YOffset=0mm|HoleType=Round|Shape=RoundedRectangle|*
%AMROUNDEDRECTD126*
21,1,1.3532,1.2250,0,0,180.0*
21,1,0.5750,2.0032,0,0,180.0*
1,1,0.7782,-0.2875,0.6125*
1,1,0.7782,0.2875,0.6125*
1,1,0.7782,0.2875,-0.6125*
1,1,0.7782,-0.2875,-0.6125*
%
%ADD126ROUNDEDRECTD126*%
%ADD127R,1.5532X0.8032*%
G04:AMPARAMS|DCode=128|XSize=1.7032mm|YSize=1.8032mm|CornerRadius=0.4766mm|HoleSize=0mm|Usage=FLASHONLY|Rotation=90.000|XOffset=0mm|YOffset=0mm|HoleType=Round|Shape=RoundedRectangle|*
%AMROUNDEDRECTD128*
21,1,1.7032,0.8500,0,0,90.0*
21,1,0.7500,1.8032,0,0,90.0*
1,1,0.9532,0.4250,0.3750*
1,1,0.9532,0.4250,-0.3750*
1,1,0.9532,-0.4250,-0.3750*
1,1,0.9532,-0.4250,0.3750*
%
%ADD128ROUNDEDRECTD128*%
G36*
X517426Y36470D02*
X882550D01*
X921550Y75470D01*
X943426D01*
X982426Y36470D01*
X996116D01*
Y30885D01*
X945000Y30885D01*
X944811Y30847D01*
X944619Y30866D01*
X943644Y30770D01*
X943098Y30604D01*
X942538Y30493D01*
X940736Y29746D01*
X940231Y29409D01*
X939475Y28904D01*
X938096Y27525D01*
X937254Y26265D01*
X936507Y24462D01*
X936396Y23902D01*
X936230Y23356D01*
X936134Y22381D01*
X936153Y22189D01*
X936116Y22000D01*
X936116Y3885D01*
X215885D01*
Y12000D01*
X215847Y12189D01*
X215866Y12381D01*
X215770Y13356D01*
X215604Y13903D01*
X215493Y14462D01*
X214746Y16265D01*
X214409Y16769D01*
X213904Y17525D01*
X212525Y18904D01*
X211264Y19746D01*
X209462Y20493D01*
X208902Y20604D01*
X208356Y20770D01*
X207381Y20866D01*
X207189Y20847D01*
X207000Y20885D01*
X162000Y20885D01*
X161811Y20847D01*
X161619Y20866D01*
X160644Y20770D01*
X160098Y20604D01*
X159538Y20493D01*
X157736Y19746D01*
X157231Y19409D01*
X156475Y18904D01*
X155096Y17525D01*
X154254Y16264D01*
X153507Y14462D01*
X153396Y13902D01*
X153230Y13356D01*
X153134Y12381D01*
X153153Y12189D01*
X153116Y12000D01*
X153116Y3885D01*
X3885D01*
Y36470D01*
X417470D01*
X456530Y75530D01*
X478366D01*
X517426Y36470D01*
D02*
G37*
G36*
X936116Y1078000D02*
X936153Y1077811D01*
X936134Y1077619D01*
X936230Y1076644D01*
X936396Y1076098D01*
X936507Y1075538D01*
X937254Y1073736D01*
X938096Y1072476D01*
X938096D01*
Y1072476D01*
X939475Y1071096D01*
X940736Y1070254D01*
X942538Y1069507D01*
X943098Y1069396D01*
X943644Y1069230D01*
X944619Y1069134D01*
X944811Y1069153D01*
X945000Y1069116D01*
X996116D01*
Y1063115D01*
X989848D01*
X945909Y1019175D01*
X933789D01*
X889848Y1063115D01*
X382115Y1063115D01*
X338175Y1019175D01*
X325788Y1019175D01*
X281849Y1063115D01*
X3885D01*
Y1096116D01*
X153116D01*
Y1088000D01*
X153153Y1087811D01*
X153134Y1087619D01*
X153230Y1086644D01*
X153396Y1086098D01*
X153507Y1085538D01*
X154254Y1083736D01*
X154591Y1083231D01*
X155096Y1082476D01*
X156475Y1081096D01*
X157736Y1080254D01*
X159538Y1079508D01*
X160098Y1079396D01*
X160644Y1079230D01*
X161619Y1079134D01*
X161811Y1079153D01*
X162000Y1079116D01*
X207000Y1079116D01*
X207189Y1079153D01*
X207381Y1079134D01*
X208356Y1079230D01*
X208902Y1079396D01*
X209462Y1079508D01*
X211264Y1080254D01*
X211769Y1080591D01*
X212525Y1081096D01*
X213904Y1082476D01*
X214746Y1083736D01*
X215493Y1085538D01*
X215604Y1086098D01*
X215770Y1086644D01*
X215866Y1087619D01*
X215847Y1087811D01*
X215885Y1088000D01*
X215885Y1096116D01*
X936116D01*
Y1078000D01*
D02*
G37*
D52*
X499000Y812430D02*
D03*
X616000Y754500D02*
D03*
X499000Y802609D02*
D03*
X616000Y742375D02*
D03*
X499000Y790875D02*
D03*
Y718125D02*
D03*
X616000Y803000D02*
D03*
Y766625D02*
D03*
Y778750D02*
D03*
X499000Y730250D02*
D03*
X616000Y706000D02*
D03*
X499000D02*
D03*
X616000Y718125D02*
D03*
X499000Y742375D02*
D03*
X616000Y730250D02*
D03*
X499000Y766625D02*
D03*
Y754500D02*
D03*
X616000Y790875D02*
D03*
X499000Y778750D02*
D03*
X696852Y209000D02*
D03*
X686852D02*
D03*
X663000D02*
D03*
X653000D02*
D03*
X636000Y551000D02*
D03*
X626000D02*
D03*
X635000Y522000D02*
D03*
X625000D02*
D03*
X664183Y596548D02*
D03*
X654183D02*
D03*
X664466Y576484D02*
D03*
X654466D02*
D03*
X664000Y506000D02*
D03*
X654000D02*
D03*
X722000Y681000D02*
D03*
X712000D02*
D03*
X489000Y706000D02*
D03*
Y730250D02*
D03*
Y742375D02*
D03*
Y802609D02*
D03*
X476000Y838760D02*
D03*
X466000D02*
D03*
X476000Y821086D02*
D03*
X466000D02*
D03*
X476000Y803000D02*
D03*
X466000D02*
D03*
Y754000D02*
D03*
X476000D02*
D03*
X466000Y730000D02*
D03*
X476000D02*
D03*
X466000Y706000D02*
D03*
X476000D02*
D03*
X626000Y742375D02*
D03*
Y730250D02*
D03*
Y718125D02*
D03*
X649000Y706000D02*
D03*
X639000D02*
D03*
X649000Y730250D02*
D03*
X639000D02*
D03*
X649000Y754500D02*
D03*
X639000D02*
D03*
X626000Y766625D02*
D03*
Y803000D02*
D03*
Y778750D02*
D03*
X649000Y821086D02*
D03*
X639000D02*
D03*
X649000Y838760D02*
D03*
X639000D02*
D03*
X501000Y336000D02*
D03*
X511000D02*
D03*
X489000Y812430D02*
D03*
X626000Y706000D02*
D03*
Y790875D02*
D03*
Y754500D02*
D03*
X489000Y766625D02*
D03*
Y754500D02*
D03*
Y718125D02*
D03*
Y778750D02*
D03*
X639000Y778750D02*
D03*
X649000D02*
D03*
X476000Y779000D02*
D03*
X466000D02*
D03*
X639000Y803000D02*
D03*
X649000D02*
D03*
X654466Y490000D02*
D03*
X664466D02*
D03*
X489000Y790875D02*
D03*
X885000Y231000D02*
D03*
X875000D02*
D03*
X870000Y220000D02*
D03*
X860000D02*
D03*
X870000Y297000D02*
D03*
X860000D02*
D03*
X870000Y253000D02*
D03*
X860000D02*
D03*
X870000Y275000D02*
D03*
X860000D02*
D03*
X885000Y286000D02*
D03*
X875000D02*
D03*
D53*
X538333Y838000D02*
D03*
X563000D02*
D03*
X526000D02*
D03*
X605000Y754000D02*
D03*
X550667Y838000D02*
D03*
X649000Y241000D02*
D03*
Y231000D02*
D03*
X663000Y241000D02*
D03*
Y231000D02*
D03*
X682565Y241000D02*
D03*
Y231000D02*
D03*
X696852Y241000D02*
D03*
Y231000D02*
D03*
X724000Y199000D02*
D03*
Y209000D02*
D03*
X522000Y581367D02*
D03*
Y591367D02*
D03*
X539974Y581557D02*
D03*
Y591557D02*
D03*
X556180Y581694D02*
D03*
Y591694D02*
D03*
X572000Y581649D02*
D03*
Y591649D02*
D03*
X587957Y581649D02*
D03*
Y591649D02*
D03*
X604969Y581609D02*
D03*
Y591609D02*
D03*
X516000Y557000D02*
D03*
Y567000D02*
D03*
X540000Y568000D02*
D03*
Y558000D02*
D03*
X572000Y568000D02*
D03*
Y558000D02*
D03*
X605000Y563000D02*
D03*
Y573000D02*
D03*
X588000Y563000D02*
D03*
Y573000D02*
D03*
X556000Y563000D02*
D03*
Y573000D02*
D03*
X588000Y541000D02*
D03*
Y551000D02*
D03*
X572000Y549000D02*
D03*
Y539000D02*
D03*
X540000Y549000D02*
D03*
Y539000D02*
D03*
X556000Y549000D02*
D03*
Y539000D02*
D03*
X524000D02*
D03*
Y549000D02*
D03*
X508000Y539000D02*
D03*
Y549000D02*
D03*
X491000Y583000D02*
D03*
Y593000D02*
D03*
X523000Y517000D02*
D03*
Y527000D02*
D03*
X540000Y517000D02*
D03*
Y527000D02*
D03*
X556000D02*
D03*
Y517000D02*
D03*
X524000Y494000D02*
D03*
Y504000D02*
D03*
X540000Y484000D02*
D03*
Y494000D02*
D03*
X572000Y527000D02*
D03*
Y517000D02*
D03*
X741000Y625000D02*
D03*
Y635000D02*
D03*
X755000Y625000D02*
D03*
Y635000D02*
D03*
X392000Y600000D02*
D03*
Y590000D02*
D03*
X550667Y848000D02*
D03*
X563000D02*
D03*
X508000Y872000D02*
D03*
Y862000D02*
D03*
X603953Y872000D02*
D03*
Y862000D02*
D03*
X392000Y620811D02*
D03*
Y610811D02*
D03*
X695500Y524000D02*
D03*
Y534000D02*
D03*
X526000Y848000D02*
D03*
X538333D02*
D03*
X605000Y744000D02*
D03*
X556000Y775000D02*
D03*
Y765000D02*
D03*
D57*
X30000Y73000D02*
D03*
X970000Y75000D02*
D03*
X940000Y987000D02*
D03*
D58*
X580500Y448000D02*
D03*
X595500D02*
D03*
X379646Y310461D02*
D03*
X394646D02*
D03*
D60*
X458146Y272961D02*
D03*
Y287961D02*
D03*
D61*
X773000Y626500D02*
D03*
Y647500D02*
D03*
X476146Y290961D02*
D03*
Y269961D02*
D03*
D79*
X22900Y842000D02*
D03*
X48300D02*
D03*
X73700D02*
D03*
X99100D02*
D03*
X22900Y758000D02*
D03*
X48300D02*
D03*
X73700D02*
D03*
X99100D02*
D03*
X152600Y842000D02*
D03*
X178000D02*
D03*
X203400D02*
D03*
X228800D02*
D03*
X152600Y758000D02*
D03*
X178000D02*
D03*
X203400D02*
D03*
X228800D02*
D03*
D80*
X48300Y820400D02*
D03*
Y736400D02*
D03*
X178000Y820400D02*
D03*
Y736400D02*
D03*
D81*
X332000Y1045000D02*
D03*
X940000D02*
D03*
X932000Y50000D02*
D03*
X467000D02*
D03*
X70000Y927999D02*
D03*
Y1011998D02*
D03*
D82*
X659000Y980000D02*
D03*
Y1000000D02*
D03*
X639000Y980000D02*
D03*
Y1000000D02*
D03*
X619000Y980000D02*
D03*
Y1000000D02*
D03*
D83*
X921000Y432000D02*
D03*
Y362000D02*
D03*
X936000Y747000D02*
D03*
Y817000D02*
D03*
D84*
X946000Y419500D02*
D03*
X961000Y804500D02*
D03*
D85*
X946000Y374500D02*
D03*
X961000Y759500D02*
D03*
D86*
X778000Y209000D02*
D03*
X923218Y858184D02*
D03*
X948218D02*
D03*
X923218Y883184D02*
D03*
X948218D02*
D03*
X257000Y236053D02*
D03*
X237000D02*
D03*
X257000Y216053D02*
D03*
X237000D02*
D03*
X257000Y196053D02*
D03*
X237000D02*
D03*
X257000Y176053D02*
D03*
X237000D02*
D03*
X257000Y156053D02*
D03*
X237000D02*
D03*
X257000Y136053D02*
D03*
X237000D02*
D03*
X257000Y116053D02*
D03*
X237000D02*
D03*
X257000Y96053D02*
D03*
X237000D02*
D03*
X257000Y76053D02*
D03*
X237000D02*
D03*
X97000Y676060D02*
D03*
X77000D02*
D03*
X97000Y656060D02*
D03*
X77000D02*
D03*
X97000Y636060D02*
D03*
X77000D02*
D03*
X97000Y616060D02*
D03*
X77000D02*
D03*
X97000Y596060D02*
D03*
X77000D02*
D03*
X97000Y576060D02*
D03*
X77000D02*
D03*
X97000Y556060D02*
D03*
X77000D02*
D03*
X97000Y536060D02*
D03*
X77000D02*
D03*
X97000Y516060D02*
D03*
X77000D02*
D03*
X97000Y236053D02*
D03*
X77000D02*
D03*
X97000Y216053D02*
D03*
X77000D02*
D03*
X97000Y196053D02*
D03*
X77000D02*
D03*
X97000Y176053D02*
D03*
X77000D02*
D03*
X97000Y156053D02*
D03*
X77000D02*
D03*
X97000Y136053D02*
D03*
X77000D02*
D03*
X97000Y116053D02*
D03*
X77000D02*
D03*
X97000Y96053D02*
D03*
X77000D02*
D03*
X97000Y76053D02*
D03*
X77000D02*
D03*
X97000Y456060D02*
D03*
X77000D02*
D03*
X97000Y436060D02*
D03*
X77000D02*
D03*
X97000Y416060D02*
D03*
X77000D02*
D03*
X97000Y396060D02*
D03*
X77000D02*
D03*
X97000Y376060D02*
D03*
X77000D02*
D03*
X97000Y356060D02*
D03*
X77000D02*
D03*
X97000Y336060D02*
D03*
X77000D02*
D03*
X97000Y316060D02*
D03*
X77000D02*
D03*
X97000Y296060D02*
D03*
X77000D02*
D03*
X821400Y604200D02*
D03*
X846800Y591500D02*
D03*
X821400Y528000D02*
D03*
Y553400D02*
D03*
Y578800D02*
D03*
X846800Y540700D02*
D03*
Y566100D02*
D03*
D87*
X368300Y717100D02*
D03*
X393700D02*
D03*
X368300Y691700D02*
D03*
X393700D02*
D03*
X368300Y666300D02*
D03*
X393700Y640900D02*
D03*
X368300D02*
D03*
X393700Y666300D02*
D03*
X787000Y364200D02*
D03*
Y389600D02*
D03*
Y415000D02*
D03*
X956000Y627000D02*
D03*
X935700Y492500D02*
D03*
Y627000D02*
D03*
X956000Y492500D02*
D03*
D88*
X958000Y305000D02*
D03*
Y225000D02*
D03*
D89*
X846800Y515300D02*
D03*
D90*
X879800Y638500D02*
D03*
Y481000D02*
D03*
X143000Y927998D02*
D03*
X198000D02*
D03*
Y969998D02*
D03*
X143000D02*
D03*
X198000Y1011998D02*
D03*
X143000D02*
D03*
D91*
X910300Y616900D02*
D03*
Y502600D02*
D03*
D124*
X730000Y633000D02*
D03*
Y625000D02*
D03*
D126*
X580447Y473096D02*
D03*
X609447D02*
D03*
D127*
X686852Y190123D02*
D03*
Y171123D02*
D03*
X662852Y180623D02*
D03*
D128*
X717500Y665000D02*
D03*
X696500D02*
D03*
X397646Y330461D02*
D03*
X376646D02*
D03*
M02*
