G04*
G04 #@! TF.GenerationSoftware,Altium Limited,Altium Designer,24.2.2 (26)*
G04*
G04 Layer_Physical_Order=6*
G04 Layer_Color=16711680*
%FSLAX44Y44*%
%MOMM*%
G71*
G04*
G04 #@! TF.SameCoordinates,D1F85D35-12B9-47B7-842E-F7ABDB1EEA32*
G04*
G04*
G04 #@! TF.FilePolarity,Positive*
G04*
G01*
G75*
G04:AMPARAMS|DCode=22|XSize=0.7mm|YSize=0.6mm|CornerRadius=0.15mm|HoleSize=0mm|Usage=FLASHONLY|Rotation=90.000|XOffset=0mm|YOffset=0mm|HoleType=Round|Shape=RoundedRectangle|*
%AMROUNDEDRECTD22*
21,1,0.7000,0.3000,0,0,90.0*
21,1,0.4000,0.6000,0,0,90.0*
1,1,0.3000,0.1500,0.2000*
1,1,0.3000,0.1500,-0.2000*
1,1,0.3000,-0.1500,-0.2000*
1,1,0.3000,-0.1500,0.2000*
%
%ADD22ROUNDEDRECTD22*%
G04:AMPARAMS|DCode=24|XSize=0.7mm|YSize=0.6mm|CornerRadius=0.15mm|HoleSize=0mm|Usage=FLASHONLY|Rotation=0.000|XOffset=0mm|YOffset=0mm|HoleType=Round|Shape=RoundedRectangle|*
%AMROUNDEDRECTD24*
21,1,0.7000,0.3000,0,0,0.0*
21,1,0.4000,0.6000,0,0,0.0*
1,1,0.3000,0.2000,-0.1500*
1,1,0.3000,-0.2000,-0.1500*
1,1,0.3000,-0.2000,0.1500*
1,1,0.3000,0.2000,0.1500*
%
%ADD24ROUNDEDRECTD24*%
G04:AMPARAMS|DCode=28|XSize=0.95mm|YSize=1mm|CornerRadius=0.2375mm|HoleSize=0mm|Usage=FLASHONLY|Rotation=90.000|XOffset=0mm|YOffset=0mm|HoleType=Round|Shape=RoundedRectangle|*
%AMROUNDEDRECTD28*
21,1,0.9500,0.5250,0,0,90.0*
21,1,0.4750,1.0000,0,0,90.0*
1,1,0.4750,0.2625,0.2375*
1,1,0.4750,0.2625,-0.2375*
1,1,0.4750,-0.2625,-0.2375*
1,1,0.4750,-0.2625,0.2375*
%
%ADD28ROUNDEDRECTD28*%
G04:AMPARAMS|DCode=30|XSize=0.95mm|YSize=1mm|CornerRadius=0.2375mm|HoleSize=0mm|Usage=FLASHONLY|Rotation=180.000|XOffset=0mm|YOffset=0mm|HoleType=Round|Shape=RoundedRectangle|*
%AMROUNDEDRECTD30*
21,1,0.9500,0.5250,0,0,180.0*
21,1,0.4750,1.0000,0,0,180.0*
1,1,0.4750,-0.2375,0.2625*
1,1,0.4750,0.2375,0.2625*
1,1,0.4750,0.2375,-0.2625*
1,1,0.4750,-0.2375,-0.2625*
%
%ADD30ROUNDEDRECTD30*%
G04:AMPARAMS|DCode=31|XSize=1.5mm|YSize=1.6mm|CornerRadius=0.375mm|HoleSize=0mm|Usage=FLASHONLY|Rotation=180.000|XOffset=0mm|YOffset=0mm|HoleType=Round|Shape=RoundedRectangle|*
%AMROUNDEDRECTD31*
21,1,1.5000,0.8500,0,0,180.0*
21,1,0.7500,1.6000,0,0,180.0*
1,1,0.7500,-0.3750,0.4250*
1,1,0.7500,0.3750,0.4250*
1,1,0.7500,0.3750,-0.4250*
1,1,0.7500,-0.3750,-0.4250*
%
%ADD31ROUNDEDRECTD31*%
%ADD94C,1.0000*%
%ADD95C,0.3050*%
%ADD96C,0.1020*%
%ADD97C,0.2030*%
%ADD98C,0.1450*%
%ADD99C,0.1200*%
%ADD104C,1.9000*%
%ADD105C,1.3000*%
%ADD106C,3.0000*%
%ADD107C,1.2500*%
%ADD108C,1.9500*%
%ADD109C,1.5080*%
%ADD110R,1.5080X1.5080*%
%ADD111C,1.5000*%
%ADD112C,1.6000*%
%ADD113C,0.5000*%
%ADD114R,1.5000X1.5000*%
%ADD115C,2.5000*%
%ADD116C,3.2500*%
%ADD117C,0.4000*%
%ADD118C,0.4570*%
%ADD121C,0.1069*%
G04:AMPARAMS|DCode=122|XSize=1.15mm|YSize=1.8mm|CornerRadius=0.2875mm|HoleSize=0mm|Usage=FLASHONLY|Rotation=180.000|XOffset=0mm|YOffset=0mm|HoleType=Round|Shape=RoundedRectangle|*
%AMROUNDEDRECTD122*
21,1,1.1500,1.2250,0,0,180.0*
21,1,0.5750,1.8000,0,0,180.0*
1,1,0.5750,-0.2875,0.6125*
1,1,0.5750,0.2875,0.6125*
1,1,0.5750,0.2875,-0.6125*
1,1,0.5750,-0.2875,-0.6125*
%
%ADD122ROUNDEDRECTD122*%
%ADD123R,1.3500X0.6000*%
%ADD124R,0.5000X0.4000*%
G04:AMPARAMS|DCode=125|XSize=1.5mm|YSize=1.6mm|CornerRadius=0.375mm|HoleSize=0mm|Usage=FLASHONLY|Rotation=90.000|XOffset=0mm|YOffset=0mm|HoleType=Round|Shape=RoundedRectangle|*
%AMROUNDEDRECTD125*
21,1,1.5000,0.8500,0,0,90.0*
21,1,0.7500,1.6000,0,0,90.0*
1,1,0.7500,0.4250,0.3750*
1,1,0.7500,0.4250,-0.3750*
1,1,0.7500,-0.4250,-0.3750*
1,1,0.7500,-0.4250,0.3750*
%
%ADD125ROUNDEDRECTD125*%
G36*
X936116Y1078000D02*
X936153Y1077811D01*
X936134Y1077619D01*
X936230Y1076644D01*
X936396Y1076098D01*
X936507Y1075538D01*
X937254Y1073736D01*
X938096Y1072476D01*
X939475Y1071096D01*
X940736Y1070254D01*
X942538Y1069507D01*
X943098Y1069396D01*
X943644Y1069230D01*
X944619Y1069134D01*
X944811Y1069153D01*
X945000Y1069116D01*
X996116D01*
Y30885D01*
X945000Y30885D01*
X944811Y30847D01*
X944619Y30866D01*
X943644Y30770D01*
X943098Y30604D01*
X942538Y30493D01*
X940736Y29746D01*
X939475Y28904D01*
X938096Y27525D01*
X937254Y26265D01*
X936507Y24462D01*
X936396Y23902D01*
X936230Y23356D01*
X936134Y22381D01*
X936153Y22189D01*
X936116Y22000D01*
X936116Y3885D01*
X215885D01*
Y12000D01*
X215847Y12189D01*
X215866Y12381D01*
X215770Y13356D01*
X215604Y13903D01*
X215493Y14462D01*
X214746Y16265D01*
X213904Y17525D01*
X212525Y18904D01*
X211264Y19746D01*
X209462Y20493D01*
X208902Y20604D01*
X208356Y20770D01*
X207381Y20866D01*
X207189Y20847D01*
X207000Y20885D01*
X162000Y20885D01*
X161811Y20847D01*
X161619Y20866D01*
X160644Y20770D01*
X160098Y20604D01*
X159538Y20493D01*
X157736Y19746D01*
X156475Y18904D01*
X155096Y17525D01*
X154254Y16264D01*
X153507Y14462D01*
X153396Y13902D01*
X153230Y13356D01*
X153134Y12381D01*
X153153Y12189D01*
X153116Y12000D01*
X153116Y3885D01*
X3885D01*
Y1096116D01*
X153116D01*
Y1088000D01*
X153153Y1087811D01*
X153134Y1087619D01*
X153230Y1086644D01*
X153396Y1086098D01*
X153507Y1085538D01*
X154254Y1083736D01*
X155096Y1082476D01*
X156475Y1081096D01*
X157736Y1080254D01*
X159538Y1079508D01*
X160098Y1079396D01*
X160644Y1079230D01*
X161619Y1079134D01*
X161811Y1079153D01*
X162000Y1079116D01*
X207000Y1079116D01*
X207189Y1079153D01*
X207381Y1079134D01*
X208356Y1079230D01*
X208902Y1079396D01*
X209462Y1079508D01*
X211264Y1080254D01*
X212525Y1081096D01*
X213904Y1082476D01*
X214746Y1083736D01*
X215493Y1085538D01*
X215604Y1086098D01*
X215770Y1086644D01*
X215866Y1087619D01*
X215847Y1087811D01*
X215885Y1088000D01*
X215885Y1096116D01*
X936116D01*
Y1078000D01*
D02*
G37*
%LPC*%
G36*
X941728Y1062540D02*
X938273D01*
X934884Y1061866D01*
X931692Y1060544D01*
X928819Y1058624D01*
X926376Y1056181D01*
X924456Y1053308D01*
X923134Y1050116D01*
X922460Y1046728D01*
Y1043273D01*
X923134Y1039884D01*
X924456Y1036692D01*
X926376Y1033819D01*
X928819Y1031376D01*
X931692Y1029456D01*
X934884Y1028134D01*
X938273Y1027460D01*
X941728D01*
X945116Y1028134D01*
X948308Y1029456D01*
X951181Y1031376D01*
X953624Y1033819D01*
X955544Y1036692D01*
X956866Y1039884D01*
X957540Y1043273D01*
Y1046728D01*
X956866Y1050116D01*
X955544Y1053308D01*
X953624Y1056181D01*
X951181Y1058624D01*
X948308Y1060544D01*
X945116Y1061866D01*
X941728Y1062540D01*
D02*
G37*
G36*
X333728D02*
X330273D01*
X326884Y1061866D01*
X323692Y1060544D01*
X320819Y1058624D01*
X318376Y1056181D01*
X316456Y1053308D01*
X315134Y1050116D01*
X314460Y1046728D01*
Y1043273D01*
X315134Y1039884D01*
X316456Y1036692D01*
X318376Y1033819D01*
X320819Y1031376D01*
X323692Y1029456D01*
X326884Y1028134D01*
X330273Y1027460D01*
X333728D01*
X337116Y1028134D01*
X340308Y1029456D01*
X343181Y1031376D01*
X345624Y1033819D01*
X347544Y1036692D01*
X348866Y1039884D01*
X349540Y1043273D01*
Y1046728D01*
X348866Y1050116D01*
X347544Y1053308D01*
X345624Y1056181D01*
X343181Y1058624D01*
X340308Y1060544D01*
X337116Y1061866D01*
X333728Y1062540D01*
D02*
G37*
G36*
X649000Y1013625D02*
X649000Y1013625D01*
X604000D01*
X604000Y1013625D01*
X602613Y1013349D01*
X601437Y1012563D01*
X578499Y989625D01*
X521000D01*
X519613Y989349D01*
X518437Y988563D01*
X518437Y988563D01*
X471524Y941650D01*
X470254Y942176D01*
Y942903D01*
X469563Y944572D01*
X468286Y945849D01*
X466617Y946540D01*
X464811D01*
X463143Y945849D01*
X461865Y944572D01*
X461174Y942903D01*
Y941097D01*
X461865Y939428D01*
X463143Y938151D01*
X464811Y937460D01*
X465538D01*
X466064Y936190D01*
X412277Y882403D01*
X411492Y881228D01*
X411216Y879840D01*
X411216Y879840D01*
Y498672D01*
X410992Y498447D01*
X410300Y496779D01*
Y494973D01*
X410992Y493304D01*
X412269Y492027D01*
X413937Y491336D01*
X415744D01*
X417412Y492027D01*
X418689Y493304D01*
X419380Y494973D01*
Y496779D01*
X418689Y498447D01*
X418465Y498672D01*
Y507038D01*
X419097Y507460D01*
X420903D01*
X422572Y508151D01*
X423849Y509428D01*
X424540Y511097D01*
Y512903D01*
X423849Y514572D01*
X423600Y514821D01*
Y572881D01*
X424581Y573686D01*
X424806Y573642D01*
X424843D01*
X426127Y573897D01*
X427215Y574624D01*
X427360Y574840D01*
X428624Y574965D01*
X438137Y565452D01*
Y565135D01*
X438828Y563466D01*
X440105Y562189D01*
X441774Y561498D01*
X443580D01*
X445248Y562189D01*
X446526Y563466D01*
X447217Y565135D01*
Y566941D01*
X446526Y568609D01*
X445248Y569886D01*
X443580Y570578D01*
X443263D01*
X433625Y580216D01*
Y860935D01*
X515190Y942501D01*
X516460Y941974D01*
Y941097D01*
X517151Y939428D01*
X518428Y938151D01*
X520097Y937460D01*
X521903D01*
X523572Y938151D01*
X524849Y939428D01*
X525540Y941097D01*
Y942903D01*
X524849Y944572D01*
X523572Y945849D01*
X521903Y946540D01*
X521026D01*
X520499Y947810D01*
X536065Y963375D01*
X626000D01*
X626000Y963375D01*
X627387Y963651D01*
X628563Y964437D01*
X635866Y971740D01*
X637843Y971210D01*
X640157D01*
X642393Y971809D01*
X644397Y972966D01*
X646034Y974603D01*
X647191Y976607D01*
X647790Y978843D01*
Y981157D01*
X647191Y983393D01*
X646506Y984579D01*
X647104Y985892D01*
X647871Y986003D01*
X650740Y983134D01*
X650210Y981157D01*
Y978843D01*
X650809Y976607D01*
X651966Y974603D01*
X653603Y972966D01*
X655607Y971809D01*
X657843Y971210D01*
X660157D01*
X662393Y971809D01*
X664397Y972966D01*
X666034Y974603D01*
X667191Y976607D01*
X667790Y978843D01*
Y981157D01*
X667191Y983393D01*
X666034Y985397D01*
X664397Y987034D01*
X662393Y988191D01*
X660157Y988790D01*
X657843D01*
X655866Y988260D01*
X651563Y992563D01*
X650387Y993349D01*
X649000Y993625D01*
X649000Y993625D01*
X646686D01*
X646202Y994895D01*
X647191Y996607D01*
X647760Y998730D01*
X639000D01*
Y1001270D01*
X647760D01*
X647191Y1003393D01*
X646506Y1004579D01*
X647104Y1005892D01*
X647871Y1006003D01*
X650740Y1003134D01*
X650210Y1001157D01*
Y998843D01*
X650809Y996607D01*
X651966Y994603D01*
X653603Y992966D01*
X655607Y991809D01*
X657843Y991210D01*
X660157D01*
X662393Y991809D01*
X664397Y992966D01*
X666034Y994603D01*
X667191Y996607D01*
X667790Y998843D01*
Y1001157D01*
X667191Y1003393D01*
X666034Y1005397D01*
X664397Y1007034D01*
X662393Y1008191D01*
X660157Y1008790D01*
X657843D01*
X655866Y1008260D01*
X651563Y1012563D01*
X650387Y1013349D01*
X650157Y1013394D01*
X649000Y1013625D01*
D02*
G37*
G36*
X144481Y1027038D02*
X141519D01*
X138613Y1026460D01*
X135876Y1025326D01*
X133413Y1023680D01*
X131318Y1021585D01*
X129672Y1019122D01*
X128538Y1016385D01*
X127960Y1013479D01*
Y1010516D01*
X128538Y1007611D01*
X129672Y1004874D01*
X131318Y1002410D01*
X133413Y1000315D01*
X135876Y998669D01*
X138613Y997536D01*
X141519Y996958D01*
X144481D01*
X147387Y997536D01*
X150124Y998669D01*
X152587Y1000315D01*
X154682Y1002410D01*
X156328Y1004874D01*
X157462Y1007611D01*
X158040Y1010516D01*
Y1013479D01*
X157462Y1016385D01*
X156328Y1019122D01*
X154682Y1021585D01*
X152587Y1023680D01*
X150124Y1025326D01*
X147387Y1026460D01*
X144481Y1027038D01*
D02*
G37*
G36*
X716957Y1004480D02*
X715151D01*
X713482Y1003789D01*
X712205Y1002512D01*
X711514Y1000843D01*
Y999037D01*
X712205Y997369D01*
X713482Y996091D01*
X715151Y995400D01*
X716957D01*
X718626Y996091D01*
X719903Y997369D01*
X720594Y999037D01*
Y1000843D01*
X719903Y1002512D01*
X718626Y1003789D01*
X716957Y1004480D01*
D02*
G37*
G36*
X71777Y1030038D02*
X68223D01*
X64738Y1029345D01*
X61455Y1027985D01*
X58500Y1026011D01*
X55987Y1023498D01*
X54013Y1020543D01*
X52653Y1017260D01*
X51960Y1013775D01*
Y1010221D01*
X52653Y1006736D01*
X54013Y1003453D01*
X55987Y1000498D01*
X58500Y997986D01*
X61455Y996011D01*
X64738Y994651D01*
X68223Y993958D01*
X71777D01*
X75262Y994651D01*
X78545Y996011D01*
X81500Y997986D01*
X84012Y1000498D01*
X85987Y1003453D01*
X87347Y1006736D01*
X88040Y1010221D01*
Y1013775D01*
X87347Y1017260D01*
X85987Y1020543D01*
X84012Y1023498D01*
X81500Y1026011D01*
X78545Y1027985D01*
X75262Y1029345D01*
X71777Y1030038D01*
D02*
G37*
G36*
X941317Y997000D02*
X938683D01*
X936140Y996319D01*
X933860Y995002D01*
X931998Y993140D01*
X930682Y990860D01*
X930000Y988316D01*
Y985684D01*
X930682Y983140D01*
X931998Y980860D01*
X933860Y978998D01*
X936140Y977682D01*
X938683Y977000D01*
X941317D01*
X943860Y977682D01*
X946140Y978998D01*
X948002Y980860D01*
X949318Y983140D01*
X950000Y985684D01*
Y988316D01*
X949318Y990860D01*
X948002Y993140D01*
X946140Y995002D01*
X943860Y996319D01*
X941317Y997000D01*
D02*
G37*
G36*
X716866Y984577D02*
X715060D01*
X713392Y983886D01*
X712114Y982608D01*
X711423Y980940D01*
Y979134D01*
X712114Y977465D01*
X713392Y976188D01*
X715060Y975497D01*
X716866D01*
X718535Y976188D01*
X719812Y977465D01*
X720503Y979134D01*
Y980940D01*
X719812Y982608D01*
X718535Y983886D01*
X716866Y984577D01*
D02*
G37*
G36*
X426903Y975540D02*
X425097D01*
X423428Y974849D01*
X422151Y973572D01*
X421460Y971903D01*
Y970097D01*
X422151Y968428D01*
X423428Y967151D01*
X425097Y966460D01*
X426903D01*
X428572Y967151D01*
X429849Y968428D01*
X430540Y970097D01*
Y971903D01*
X429849Y973572D01*
X428572Y974849D01*
X426903Y975540D01*
D02*
G37*
G36*
X399903D02*
X398097D01*
X396428Y974849D01*
X395151Y973572D01*
X394460Y971903D01*
Y970097D01*
X395151Y968428D01*
X396428Y967151D01*
X398097Y966460D01*
X399903D01*
X401572Y967151D01*
X402849Y968428D01*
X403540Y970097D01*
Y971903D01*
X402849Y973572D01*
X401572Y974849D01*
X399903Y975540D01*
D02*
G37*
G36*
X456903Y974540D02*
X455097D01*
X453428Y973849D01*
X452151Y972572D01*
X451460Y970903D01*
Y969097D01*
X452151Y967428D01*
X453428Y966151D01*
X455097Y965460D01*
X456903D01*
X458572Y966151D01*
X459849Y967428D01*
X460540Y969097D01*
Y970903D01*
X459849Y972572D01*
X458572Y973849D01*
X456903Y974540D01*
D02*
G37*
G36*
X413946Y968093D02*
X412140D01*
X410471Y967402D01*
X409194Y966125D01*
X408503Y964456D01*
Y962650D01*
X409194Y960982D01*
X410471Y959704D01*
X412140Y959013D01*
X413946D01*
X415615Y959704D01*
X416892Y960982D01*
X417583Y962650D01*
Y964456D01*
X416892Y966125D01*
X415615Y967402D01*
X413946Y968093D01*
D02*
G37*
G36*
X144481Y985038D02*
X141519D01*
X138613Y984460D01*
X135876Y983326D01*
X133413Y981680D01*
X131318Y979585D01*
X129672Y977122D01*
X128538Y974385D01*
X127960Y971479D01*
Y968517D01*
X128538Y965611D01*
X129672Y962874D01*
X131318Y960410D01*
X133413Y958316D01*
X135876Y956670D01*
X138613Y955536D01*
X141519Y954958D01*
X144481D01*
X147387Y955536D01*
X150124Y956670D01*
X152587Y958316D01*
X154682Y960410D01*
X156328Y962874D01*
X157462Y965611D01*
X158040Y968517D01*
Y971479D01*
X157462Y974385D01*
X156328Y977122D01*
X154682Y979585D01*
X152587Y981680D01*
X150124Y983326D01*
X147387Y984460D01*
X144481Y985038D01*
D02*
G37*
G36*
X458903Y959540D02*
X457097D01*
X455428Y958849D01*
X454151Y957572D01*
X453460Y955903D01*
Y954097D01*
X454151Y952428D01*
X455428Y951151D01*
X457097Y950460D01*
X458903D01*
X460572Y951151D01*
X461849Y952428D01*
X462540Y954097D01*
Y955903D01*
X461849Y957572D01*
X460572Y958849D01*
X458903Y959540D01*
D02*
G37*
G36*
X561903Y953540D02*
X560097D01*
X558428Y952849D01*
X557151Y951572D01*
X556460Y949903D01*
Y948097D01*
X557151Y946428D01*
X558428Y945151D01*
X560097Y944460D01*
X561903D01*
X563572Y945151D01*
X564849Y946428D01*
X565540Y948097D01*
Y949903D01*
X564849Y951572D01*
X563572Y952849D01*
X561903Y953540D01*
D02*
G37*
G36*
X548903Y947540D02*
X547097D01*
X545428Y946849D01*
X544151Y945572D01*
X543460Y943903D01*
Y942097D01*
X544151Y940428D01*
X545428Y939151D01*
X547097Y938460D01*
X548903D01*
X550572Y939151D01*
X551849Y940428D01*
X552540Y942097D01*
Y943903D01*
X551849Y945572D01*
X550572Y946849D01*
X548903Y947540D01*
D02*
G37*
G36*
X533903Y956540D02*
X532097D01*
X530428Y955849D01*
X529151Y954572D01*
X528460Y952903D01*
Y951097D01*
X529151Y949428D01*
X530428Y948151D01*
X532048Y947480D01*
X532118Y947291D01*
X532252Y946190D01*
X531428Y945849D01*
X530151Y944572D01*
X529460Y942903D01*
Y941097D01*
X530151Y939428D01*
X531428Y938151D01*
X533097Y937460D01*
X534903D01*
X536572Y938151D01*
X537849Y939428D01*
X538540Y941097D01*
Y942903D01*
X537849Y944572D01*
X536572Y945849D01*
X534952Y946520D01*
X534882Y946709D01*
X534748Y947810D01*
X535572Y948151D01*
X536849Y949428D01*
X537540Y951097D01*
Y952903D01*
X536849Y954572D01*
X535572Y955849D01*
X533903Y956540D01*
D02*
G37*
G36*
X448189Y946540D02*
X446383D01*
X444714Y945849D01*
X443437Y944572D01*
X442746Y942903D01*
Y941097D01*
X443437Y939428D01*
X444714Y938151D01*
X446383Y937460D01*
X448189D01*
X449857Y938151D01*
X451134Y939428D01*
X451826Y941097D01*
Y942903D01*
X451134Y944572D01*
X449857Y945849D01*
X448189Y946540D01*
D02*
G37*
G36*
X429760D02*
X427954D01*
X426285Y945849D01*
X425008Y944572D01*
X424317Y942903D01*
Y941097D01*
X425008Y939428D01*
X426285Y938151D01*
X427954Y937460D01*
X429760D01*
X431429Y938151D01*
X432706Y939428D01*
X433397Y941097D01*
Y942903D01*
X432706Y944572D01*
X431429Y945849D01*
X429760Y946540D01*
D02*
G37*
G36*
X411332D02*
X409525D01*
X407857Y945849D01*
X406580Y944572D01*
X405889Y942903D01*
Y941097D01*
X406580Y939428D01*
X407857Y938151D01*
X409525Y937460D01*
X411332D01*
X413000Y938151D01*
X414277Y939428D01*
X414969Y941097D01*
Y942903D01*
X414277Y944572D01*
X413000Y945849D01*
X411332Y946540D01*
D02*
G37*
G36*
X392903D02*
X391097D01*
X389428Y945849D01*
X388151Y944572D01*
X387460Y942903D01*
Y941097D01*
X388151Y939428D01*
X389428Y938151D01*
X391097Y937460D01*
X392903D01*
X394572Y938151D01*
X395849Y939428D01*
X396540Y941097D01*
Y942903D01*
X395849Y944572D01*
X394572Y945849D01*
X392903Y946540D01*
D02*
G37*
G36*
X144481Y943038D02*
X141519D01*
X138613Y942460D01*
X135876Y941326D01*
X133413Y939680D01*
X131318Y937586D01*
X129672Y935122D01*
X128538Y932385D01*
X127960Y929479D01*
Y926517D01*
X128538Y923611D01*
X129672Y920874D01*
X131318Y918411D01*
X133413Y916316D01*
X135876Y914670D01*
X138613Y913536D01*
X141519Y912958D01*
X144481D01*
X147387Y913536D01*
X150124Y914670D01*
X152587Y916316D01*
X154682Y918411D01*
X156328Y920874D01*
X157462Y923611D01*
X158040Y926517D01*
Y929479D01*
X157462Y932385D01*
X156328Y935122D01*
X154682Y937586D01*
X152587Y939680D01*
X150124Y941326D01*
X147387Y942460D01*
X144481Y943038D01*
D02*
G37*
G36*
X71777Y946039D02*
X68223D01*
X64738Y945345D01*
X61455Y943985D01*
X58500Y942011D01*
X55987Y939498D01*
X54013Y936544D01*
X52653Y933261D01*
X51960Y929775D01*
Y926222D01*
X52653Y922737D01*
X54013Y919453D01*
X55987Y916499D01*
X58500Y913986D01*
X61455Y912012D01*
X64738Y910652D01*
X68223Y909959D01*
X71777D01*
X75262Y910652D01*
X78545Y912012D01*
X81500Y913986D01*
X84012Y916499D01*
X85987Y919453D01*
X87347Y922737D01*
X88040Y926222D01*
Y929775D01*
X87347Y933261D01*
X85987Y936544D01*
X84012Y939498D01*
X81500Y942011D01*
X78545Y943985D01*
X75262Y945345D01*
X71777Y946039D01*
D02*
G37*
G36*
X949540Y893224D02*
X949488D01*
Y884454D01*
X958258D01*
Y884506D01*
X957574Y887059D01*
X956252Y889349D01*
X954383Y891218D01*
X952093Y892540D01*
X949540Y893224D01*
D02*
G37*
G36*
X924540D02*
X924488D01*
Y884454D01*
X933258D01*
Y884506D01*
X932574Y887059D01*
X931252Y889349D01*
X929383Y891218D01*
X927093Y892540D01*
X924540Y893224D01*
D02*
G37*
G36*
X946948D02*
X946896D01*
X944343Y892540D01*
X942053Y891218D01*
X940184Y889349D01*
X938862Y887059D01*
X938178Y884506D01*
Y884454D01*
X946948D01*
Y893224D01*
D02*
G37*
G36*
X921948D02*
X921896D01*
X919343Y892540D01*
X917053Y891218D01*
X915184Y889349D01*
X913862Y887059D01*
X913178Y884506D01*
Y884454D01*
X921948D01*
Y893224D01*
D02*
G37*
G36*
X605953Y877619D02*
X605223D01*
Y873270D01*
X610072D01*
Y873500D01*
X609759Y875076D01*
X608866Y876413D01*
X607529Y877306D01*
X605953Y877619D01*
D02*
G37*
G36*
X602683D02*
X601953D01*
X600377Y877306D01*
X599040Y876413D01*
X598148Y875076D01*
X597834Y873500D01*
Y873270D01*
X602683D01*
Y877619D01*
D02*
G37*
G36*
X510000Y877619D02*
X509270D01*
Y873270D01*
X514119D01*
Y873500D01*
X513806Y875076D01*
X512913Y876413D01*
X511576Y877306D01*
X510000Y877619D01*
D02*
G37*
G36*
X506730D02*
X506000D01*
X504424Y877306D01*
X503087Y876413D01*
X502194Y875076D01*
X501881Y873500D01*
Y873270D01*
X506730D01*
Y877619D01*
D02*
G37*
G36*
X958258Y881914D02*
X949488D01*
Y873144D01*
X949540D01*
X952093Y873828D01*
X954383Y875150D01*
X956252Y877019D01*
X957574Y879309D01*
X958258Y881862D01*
Y881914D01*
D02*
G37*
G36*
X946948D02*
X938178D01*
Y881862D01*
X938862Y879309D01*
X940184Y877019D01*
X942053Y875150D01*
X944343Y873828D01*
X946896Y873144D01*
X946948D01*
Y881914D01*
D02*
G37*
G36*
X933258D02*
X924488D01*
Y873144D01*
X924540D01*
X927093Y873828D01*
X929383Y875150D01*
X931252Y877019D01*
X932574Y879309D01*
X933258Y881862D01*
Y881914D01*
D02*
G37*
G36*
X921948D02*
X913178D01*
Y881862D01*
X913862Y879309D01*
X915184Y877019D01*
X917053Y875150D01*
X919343Y873828D01*
X921896Y873144D01*
X921948D01*
Y881914D01*
D02*
G37*
G36*
X610072Y870730D02*
X597834D01*
Y870500D01*
X597961Y869860D01*
X596959Y868590D01*
X514994D01*
X513992Y869860D01*
X514119Y870500D01*
Y870730D01*
X501881D01*
Y870500D01*
X502008Y869860D01*
X501006Y868590D01*
X472000D01*
X471009Y868393D01*
X470169Y867831D01*
X469607Y866991D01*
X469410Y866000D01*
Y845754D01*
X468140Y844752D01*
X467500Y844879D01*
X467270D01*
Y838760D01*
X466000D01*
Y837490D01*
X460381D01*
Y836760D01*
X460428Y836522D01*
X459623Y835540D01*
X459097D01*
X457428Y834849D01*
X456151Y833572D01*
X455460Y831903D01*
Y830097D01*
X456151Y828428D01*
X457428Y827151D01*
X459097Y826460D01*
X460368D01*
X461102Y825273D01*
X460694Y824662D01*
X460381Y823086D01*
Y822356D01*
X466000D01*
Y821086D01*
X467270D01*
Y814966D01*
X467500D01*
X468140Y815094D01*
X469410Y814092D01*
Y809994D01*
X468140Y808992D01*
X467500Y809119D01*
X467270D01*
Y803000D01*
Y796881D01*
X467500D01*
X468140Y797008D01*
X469410Y796006D01*
Y785994D01*
X468140Y784992D01*
X467500Y785119D01*
X467270D01*
Y779000D01*
Y772881D01*
X467500D01*
X468140Y773008D01*
X469410Y772006D01*
Y760994D01*
X468140Y759992D01*
X467500Y760119D01*
X467270D01*
Y754000D01*
Y747881D01*
X467500D01*
X468140Y748008D01*
X469410Y747006D01*
Y736994D01*
X468140Y735992D01*
X467500Y736119D01*
X467270D01*
Y730000D01*
Y723881D01*
X467500D01*
X468140Y724008D01*
X469410Y723006D01*
Y712994D01*
X468140Y711992D01*
X467500Y712119D01*
X467270D01*
Y706000D01*
Y699881D01*
X467500D01*
X469076Y700194D01*
X469820Y700691D01*
X470169Y700169D01*
X471009Y699607D01*
X472000Y699410D01*
X473820D01*
X480000Y690616D01*
Y625126D01*
X472867D01*
X472019Y626396D01*
X472020Y626399D01*
Y627601D01*
X471560Y628711D01*
X470711Y629560D01*
X469601Y630020D01*
X468399D01*
X467289Y629560D01*
X466567Y628838D01*
X448110Y647296D01*
Y678286D01*
X449090Y679267D01*
X449825Y681040D01*
Y682960D01*
X449090Y684733D01*
X447733Y686090D01*
X445960Y686825D01*
X444040D01*
X442267Y686090D01*
X440910Y684733D01*
X440175Y682960D01*
Y681040D01*
X440910Y679267D01*
X441890Y678286D01*
Y646008D01*
X442127Y644818D01*
X442801Y643809D01*
X465339Y621271D01*
X466348Y620597D01*
X467538Y620360D01*
X468728Y620597D01*
X469737Y621271D01*
X470099Y621814D01*
X480000D01*
Y462000D01*
X501671D01*
Y418961D01*
X501924Y417687D01*
X502646Y416607D01*
X503221Y416223D01*
Y352464D01*
X501600Y350843D01*
X501369Y350689D01*
X499246Y348566D01*
X498860Y347989D01*
X498725Y347308D01*
Y340415D01*
X498517Y340374D01*
X497683Y339817D01*
X497126Y338983D01*
X496931Y338000D01*
Y334000D01*
X497126Y333017D01*
X497683Y332183D01*
X498517Y331626D01*
X498725Y331585D01*
Y327996D01*
X498440Y327711D01*
X497980Y326601D01*
Y325399D01*
X498080Y325158D01*
X498342Y324224D01*
X497445Y323625D01*
X497289Y323560D01*
X496440Y322711D01*
X495980Y321601D01*
Y320399D01*
X496440Y319289D01*
X496752Y318977D01*
X497224Y318303D01*
X496752Y317318D01*
X496586Y317152D01*
X496126Y316042D01*
Y314841D01*
X496586Y313731D01*
X497435Y312881D01*
X498545Y312421D01*
X499747D01*
X500857Y312881D01*
X501706Y313731D01*
X502166Y314841D01*
Y316042D01*
X501706Y317152D01*
X501394Y317464D01*
X500922Y318138D01*
X501394Y319123D01*
X501560Y319289D01*
X502020Y320399D01*
Y321601D01*
X501920Y321842D01*
X501658Y322776D01*
X502555Y323375D01*
X502711Y323440D01*
X503560Y324289D01*
X504020Y325399D01*
Y326601D01*
X503560Y327711D01*
X502711Y328560D01*
X502283Y328737D01*
Y331431D01*
X502500D01*
X503483Y331626D01*
X504317Y332183D01*
X504874Y333017D01*
X505069Y334000D01*
Y338000D01*
X504874Y338983D01*
X504317Y339817D01*
X503483Y340374D01*
X502500Y340569D01*
X502283D01*
Y346571D01*
X503730Y348018D01*
X503962Y348173D01*
X506258Y350469D01*
X506644Y351046D01*
X506779Y351727D01*
Y416223D01*
X507354Y416607D01*
X508076Y417687D01*
X508329Y418961D01*
Y462000D01*
X556890D01*
Y421925D01*
X555834Y421220D01*
X555516Y421351D01*
X553710D01*
X552041Y420660D01*
X550764Y419383D01*
X550073Y417715D01*
Y415908D01*
X550764Y414240D01*
X552041Y412963D01*
X553710Y412271D01*
X554331D01*
X555760Y410842D01*
X555738Y409158D01*
X555151Y408572D01*
X554460Y406903D01*
Y405097D01*
X555151Y403428D01*
X556428Y402151D01*
X558097Y401460D01*
X559142D01*
X645890Y314712D01*
Y246398D01*
X645424Y246306D01*
X644087Y245413D01*
X643194Y244076D01*
X642881Y242500D01*
Y239500D01*
X643194Y237924D01*
X643924Y236831D01*
X644020Y236000D01*
X643924Y235169D01*
X643194Y234076D01*
X642881Y232500D01*
Y229500D01*
X643194Y227924D01*
X644087Y226587D01*
X645424Y225694D01*
X647000Y225381D01*
X651000D01*
X652576Y225694D01*
X653913Y226587D01*
X654439Y227375D01*
X657561D01*
X658087Y226587D01*
X659375Y225727D01*
Y214439D01*
X658831Y214076D01*
X658000Y213980D01*
X657169Y214076D01*
X656076Y214806D01*
X654500Y215119D01*
X651500D01*
X649924Y214806D01*
X648587Y213913D01*
X647727Y212625D01*
X644796D01*
X644572Y212849D01*
X642903Y213540D01*
X641097D01*
X639428Y212849D01*
X638151Y211572D01*
X637460Y209903D01*
Y208097D01*
X638151Y206428D01*
X639428Y205151D01*
X641097Y204460D01*
X642903D01*
X644572Y205151D01*
X644796Y205375D01*
X647727D01*
X648587Y204087D01*
X649924Y203194D01*
X651500Y202881D01*
X654500D01*
X656076Y203194D01*
X657169Y203924D01*
X658000Y204020D01*
X658831Y203924D01*
X659375Y203561D01*
Y186163D01*
X653562D01*
Y175083D01*
X672142D01*
Y186163D01*
X666625D01*
Y203561D01*
X667413Y204087D01*
X668306Y205424D01*
X668619Y207000D01*
Y211000D01*
X668306Y212576D01*
X667413Y213913D01*
X666625Y214439D01*
Y225727D01*
X667913Y226587D01*
X668806Y227924D01*
X669119Y229500D01*
Y232500D01*
X668806Y234076D01*
X668076Y235169D01*
X667980Y236000D01*
X668076Y236831D01*
X668806Y237924D01*
X669119Y239500D01*
Y242500D01*
X668806Y244076D01*
X667913Y245413D01*
X666576Y246306D01*
X666110Y246398D01*
Y304763D01*
X667283Y305249D01*
X679456Y293076D01*
Y246398D01*
X678989Y246306D01*
X677653Y245413D01*
X676760Y244076D01*
X676446Y242500D01*
Y239500D01*
X676760Y237924D01*
X677490Y236831D01*
X677585Y236000D01*
X677490Y235169D01*
X676760Y234076D01*
X676446Y232500D01*
Y229500D01*
X676760Y227924D01*
X677653Y226587D01*
X678989Y225694D01*
X680565Y225381D01*
X684565D01*
X686142Y225694D01*
X687478Y226587D01*
X688005Y227375D01*
X691413D01*
X691939Y226587D01*
X693227Y225727D01*
Y214439D01*
X692683Y214076D01*
X691852Y213980D01*
X691021Y214076D01*
X689928Y214806D01*
X688352Y215119D01*
X685352D01*
X683776Y214806D01*
X682439Y213913D01*
X681546Y212576D01*
X681233Y211000D01*
Y207000D01*
X681546Y205424D01*
X682439Y204087D01*
X683227Y203561D01*
Y195663D01*
X677562D01*
Y184583D01*
X696142D01*
Y195663D01*
X690477D01*
Y203561D01*
X691021Y203924D01*
X691852Y204020D01*
X692683Y203924D01*
X693776Y203194D01*
X695352Y202881D01*
X698352D01*
X699928Y203194D01*
X701265Y204087D01*
X702125Y205375D01*
X718183D01*
X719055Y204310D01*
X718924Y203169D01*
X718194Y202076D01*
X717881Y200500D01*
Y197500D01*
X718194Y195924D01*
X719087Y194587D01*
X720375Y193727D01*
Y191796D01*
X720151Y191572D01*
X719460Y189903D01*
Y188097D01*
X720151Y186428D01*
X721428Y185151D01*
X723097Y184460D01*
X724903D01*
X726572Y185151D01*
X727849Y186428D01*
X728540Y188097D01*
Y189903D01*
X727849Y191572D01*
X727625Y191796D01*
Y193727D01*
X728913Y194587D01*
X729806Y195924D01*
X730119Y197500D01*
Y200500D01*
X729806Y202076D01*
X729076Y203169D01*
X728944Y204310D01*
X729817Y205375D01*
X768577D01*
X768644Y205125D01*
X769966Y202835D01*
X771835Y200966D01*
X774125Y199644D01*
X776678Y198960D01*
X779322D01*
X781875Y199644D01*
X784165Y200966D01*
X786034Y202835D01*
X787356Y205125D01*
X787423Y205375D01*
X797204D01*
X797428Y205151D01*
X799097Y204460D01*
X800903D01*
X802572Y205151D01*
X803849Y206428D01*
X804540Y208097D01*
Y209903D01*
X803849Y211572D01*
X802572Y212849D01*
X800903Y213540D01*
X799097D01*
X797428Y212849D01*
X797204Y212625D01*
X787423D01*
X787356Y212875D01*
X786034Y215165D01*
X784165Y217034D01*
X781875Y218356D01*
X779322Y219040D01*
X776678D01*
X774125Y218356D01*
X771835Y217034D01*
X769966Y215165D01*
X768644Y212875D01*
X768577Y212625D01*
X729439D01*
X728913Y213413D01*
X727576Y214306D01*
X726000Y214619D01*
X722000D01*
X720424Y214306D01*
X719087Y213413D01*
X718561Y212625D01*
X702125D01*
X701265Y213913D01*
X700477Y214439D01*
Y225727D01*
X701765Y226587D01*
X702658Y227924D01*
X702971Y229500D01*
Y232500D01*
X702658Y234076D01*
X701928Y235169D01*
X701832Y236000D01*
X701928Y236831D01*
X702658Y237924D01*
X702971Y239500D01*
Y242500D01*
X702658Y244076D01*
X701765Y245413D01*
X700428Y246306D01*
X699962Y246398D01*
Y286131D01*
X699725Y287321D01*
X699051Y288330D01*
X698084Y289297D01*
X698051Y289347D01*
X567110Y420288D01*
Y462000D01*
X576849D01*
Y455182D01*
X575957Y455005D01*
X574332Y453918D01*
X573245Y452293D01*
X572864Y450375D01*
Y445625D01*
X573245Y443707D01*
X574332Y442081D01*
X575957Y440995D01*
X577875Y440614D01*
X583125D01*
X585043Y440995D01*
X586669Y442081D01*
X587236Y442931D01*
X588764D01*
X589332Y442081D01*
X590957Y440995D01*
X592875Y440614D01*
X594230D01*
Y448000D01*
Y455386D01*
X592875D01*
X590957Y455005D01*
X589332Y453918D01*
X588764Y453069D01*
X587236D01*
X586669Y453918D01*
X585043Y455005D01*
X584098Y455193D01*
Y462000D01*
X640000D01*
Y487729D01*
X640560Y488289D01*
X641020Y489399D01*
Y490601D01*
X640799Y491134D01*
X641876Y491853D01*
X642289Y491440D01*
X643399Y490980D01*
X644601D01*
X644655Y491003D01*
X646829Y488829D01*
X648000Y488344D01*
X650396D01*
Y488000D01*
X650592Y487017D01*
X651149Y486183D01*
X651982Y485626D01*
X652966Y485431D01*
X655966D01*
X656949Y485626D01*
X657783Y486183D01*
X657883Y486334D01*
X658377Y486368D01*
X659315Y486191D01*
X660053Y485087D01*
X661389Y484194D01*
X662966Y483881D01*
X665966D01*
X667542Y484194D01*
X668878Y485087D01*
X669771Y486424D01*
X669864Y486890D01*
X685000D01*
X686190Y487127D01*
X687199Y487801D01*
X690118Y490720D01*
X691195Y490001D01*
X691022Y489585D01*
Y487779D01*
X691714Y486110D01*
X692991Y484833D01*
X694659Y484142D01*
X696466D01*
X698134Y484833D01*
X699411Y486110D01*
X700102Y487779D01*
Y489585D01*
X699411Y491253D01*
X698134Y492531D01*
X696466Y493222D01*
X694659D01*
X694243Y493049D01*
X693524Y494126D01*
X713199Y513801D01*
X713873Y514810D01*
X714110Y516000D01*
Y550689D01*
X714849Y551428D01*
X715540Y553097D01*
Y554903D01*
X714849Y556572D01*
X713572Y557849D01*
X711903Y558540D01*
X710097D01*
X708428Y557849D01*
X707151Y556572D01*
X706460Y554903D01*
Y553097D01*
X707151Y551428D01*
X707890Y550689D01*
Y517288D01*
X683712Y493110D01*
X669864D01*
X669771Y493576D01*
X668878Y494913D01*
X667542Y495806D01*
X665966Y496119D01*
X662966D01*
X661389Y495806D01*
X660053Y494913D01*
X659315Y493809D01*
X658377Y493631D01*
X657883Y493666D01*
X657783Y493817D01*
X656949Y494374D01*
X655966Y494569D01*
X652966D01*
X651982Y494374D01*
X651149Y493817D01*
X650592Y492983D01*
X650396Y492000D01*
Y491656D01*
X648686D01*
X646997Y493345D01*
X647020Y493399D01*
Y494601D01*
X646560Y495711D01*
X645711Y496560D01*
X644601Y497020D01*
X643399D01*
X642289Y496560D01*
X641440Y495711D01*
X641270Y495301D01*
X640000Y495553D01*
Y504447D01*
X641270Y504699D01*
X641440Y504289D01*
X642289Y503440D01*
X643399Y502980D01*
X644601D01*
X645711Y503440D01*
X646560Y504289D01*
X646583Y504344D01*
X649931D01*
Y504000D01*
X650126Y503017D01*
X650683Y502183D01*
X651517Y501626D01*
X652500Y501431D01*
X655500D01*
X656483Y501626D01*
X657317Y502183D01*
X657417Y502334D01*
X657911Y502369D01*
X658850Y502191D01*
X659587Y501087D01*
X660924Y500194D01*
X662500Y499881D01*
X665500D01*
X667076Y500194D01*
X668413Y501087D01*
X669306Y502424D01*
X669619Y504000D01*
Y508000D01*
X669306Y509576D01*
X668413Y510913D01*
X667076Y511806D01*
X665500Y512119D01*
X665110D01*
Y529455D01*
X665117Y529460D01*
X666923D01*
X668592Y530151D01*
X669331Y530890D01*
X689717D01*
X690424Y529831D01*
X690520Y529000D01*
X690424Y528169D01*
X689694Y527076D01*
X689381Y525500D01*
Y525270D01*
X695500D01*
X701619D01*
Y525500D01*
X701305Y527076D01*
X700576Y528169D01*
X700480Y529000D01*
X700576Y529831D01*
X701305Y530924D01*
X701619Y532500D01*
Y535500D01*
X701305Y537076D01*
X700413Y538413D01*
X699076Y539306D01*
X698610Y539398D01*
Y546189D01*
X699599Y547178D01*
X700290Y548847D01*
Y550653D01*
X699599Y552322D01*
X698322Y553599D01*
X696653Y554290D01*
X694847D01*
X693178Y553599D01*
X691901Y552322D01*
X691210Y550653D01*
Y548847D01*
X691901Y547178D01*
X692390Y546689D01*
Y539398D01*
X691924Y539306D01*
X690587Y538413D01*
X689717Y537110D01*
X669331D01*
X668592Y537849D01*
X666923Y538540D01*
X665347D01*
X665208Y539810D01*
X684199Y558801D01*
X684873Y559810D01*
X685110Y561000D01*
Y585383D01*
X684873Y586573D01*
X684199Y587582D01*
X675524Y596257D01*
Y597303D01*
X674832Y598971D01*
X673555Y600248D01*
X671887Y600939D01*
X670080D01*
X669190Y600571D01*
X668595Y601461D01*
X667259Y602354D01*
X665683Y602668D01*
X662683D01*
X661106Y602354D01*
X659770Y601461D01*
X659032Y600357D01*
X658094Y600180D01*
X657600Y600215D01*
X657499Y600365D01*
X656666Y600922D01*
X656166Y601022D01*
Y608895D01*
X656560Y609289D01*
X657020Y610399D01*
Y611020D01*
X666000Y620000D01*
Y689000D01*
X655000Y700000D01*
X654071D01*
X653742Y700543D01*
X653535Y701270D01*
X654306Y702424D01*
X654619Y704000D01*
Y704730D01*
X649000D01*
Y706000D01*
X647730D01*
Y712119D01*
X647500D01*
X646860Y711992D01*
X645590Y712994D01*
Y723256D01*
X646860Y724258D01*
X647500Y724131D01*
X647730D01*
Y730250D01*
Y736369D01*
X647500D01*
X646860Y736242D01*
X645590Y737244D01*
Y747506D01*
X646860Y748508D01*
X647500Y748381D01*
X647730D01*
Y754500D01*
Y760619D01*
X647500D01*
X646860Y760492D01*
X645590Y761494D01*
Y771756D01*
X646860Y772758D01*
X647500Y772631D01*
X647730D01*
Y778750D01*
Y784869D01*
X647500D01*
X646860Y784742D01*
X645590Y785744D01*
Y796006D01*
X646860Y797008D01*
X647500Y796881D01*
X647730D01*
Y803000D01*
Y809119D01*
X647500D01*
X646860Y808992D01*
X645590Y809994D01*
Y814092D01*
X646860Y815094D01*
X647500Y814966D01*
X647730D01*
Y821086D01*
Y827205D01*
X647500D01*
X646860Y827077D01*
X645590Y828079D01*
Y831766D01*
X646860Y832768D01*
X647500Y832641D01*
X647730D01*
Y838760D01*
Y844879D01*
X647500D01*
X646860Y844752D01*
X645590Y845754D01*
Y866000D01*
X645393Y866991D01*
X644831Y867831D01*
X643991Y868393D01*
X643000Y868590D01*
X610947D01*
X609945Y869860D01*
X610072Y870500D01*
Y870730D01*
D02*
G37*
G36*
X460903Y864540D02*
X459097D01*
X457428Y863849D01*
X456151Y862572D01*
X455460Y860903D01*
Y859097D01*
X456151Y857428D01*
X457428Y856151D01*
X459097Y855460D01*
X460903D01*
X462572Y856151D01*
X463849Y857428D01*
X464540Y859097D01*
Y860903D01*
X463849Y862572D01*
X462572Y863849D01*
X460903Y864540D01*
D02*
G37*
G36*
X392903Y863540D02*
X391097D01*
X389428Y862849D01*
X388151Y861572D01*
X387460Y859903D01*
Y858097D01*
X388151Y856428D01*
X389428Y855151D01*
X391097Y854460D01*
X392903D01*
X394572Y855151D01*
X395849Y856428D01*
X396540Y858097D01*
Y859903D01*
X395849Y861572D01*
X394572Y862849D01*
X392903Y863540D01*
D02*
G37*
G36*
X949540Y868224D02*
X946896D01*
X944343Y867540D01*
X942053Y866218D01*
X940184Y864349D01*
X938862Y862059D01*
X938178Y859506D01*
Y856862D01*
X938862Y854309D01*
X940184Y852019D01*
X942053Y850150D01*
X944343Y848828D01*
X946896Y848144D01*
X949540D01*
X952093Y848828D01*
X954383Y850150D01*
X956252Y852019D01*
X957574Y854309D01*
X958258Y856862D01*
Y859506D01*
X957574Y862059D01*
X956252Y864349D01*
X954383Y866218D01*
X952093Y867540D01*
X949540Y868224D01*
D02*
G37*
G36*
X924540D02*
X921896D01*
X919343Y867540D01*
X917053Y866218D01*
X915184Y864349D01*
X913862Y862059D01*
X913178Y859506D01*
Y856862D01*
X913862Y854309D01*
X915184Y852019D01*
X917053Y850150D01*
X919343Y848828D01*
X921896Y848144D01*
X924540D01*
X927093Y848828D01*
X929383Y850150D01*
X931252Y852019D01*
X932574Y854309D01*
X933258Y856862D01*
Y859506D01*
X932574Y862059D01*
X931252Y864349D01*
X929383Y866218D01*
X927093Y867540D01*
X924540Y868224D01*
D02*
G37*
G36*
X262961Y853019D02*
X261155D01*
X259486Y852328D01*
X258209Y851051D01*
X257518Y849382D01*
Y847576D01*
X258209Y845907D01*
X259486Y844630D01*
X261155Y843939D01*
X262961D01*
X264630Y844630D01*
X265907Y845907D01*
X266598Y847576D01*
Y849382D01*
X265907Y851051D01*
X264630Y852328D01*
X262961Y853019D01*
D02*
G37*
G36*
X230385Y854040D02*
X230070D01*
Y843270D01*
X240840D01*
Y843585D01*
X240019Y846647D01*
X238434Y849393D01*
X236193Y851634D01*
X233447Y853220D01*
X230385Y854040D01*
D02*
G37*
G36*
X100685D02*
X100370D01*
Y843270D01*
X111140D01*
Y843585D01*
X110319Y846647D01*
X108734Y849393D01*
X106493Y851634D01*
X103747Y853220D01*
X100685Y854040D01*
D02*
G37*
G36*
X227530D02*
X227215D01*
X224153Y853220D01*
X221407Y851634D01*
X219166Y849393D01*
X217581Y846647D01*
X216760Y843585D01*
Y843270D01*
X227530D01*
Y854040D01*
D02*
G37*
G36*
X97830D02*
X97515D01*
X94453Y853220D01*
X91707Y851634D01*
X89466Y849393D01*
X87880Y846647D01*
X87060Y843585D01*
Y843270D01*
X97830D01*
Y854040D01*
D02*
G37*
G36*
X392903Y849540D02*
X391097D01*
X389428Y848849D01*
X388151Y847572D01*
X387460Y845903D01*
Y844097D01*
X388151Y842428D01*
X389428Y841151D01*
X391097Y840460D01*
X392903D01*
X394572Y841151D01*
X395849Y842428D01*
X396540Y844097D01*
Y845903D01*
X395849Y847572D01*
X394572Y848849D01*
X392903Y849540D01*
D02*
G37*
G36*
X650500Y844879D02*
X650270D01*
Y840030D01*
X654619D01*
Y840760D01*
X654306Y842336D01*
X653413Y843673D01*
X652076Y844566D01*
X650500Y844879D01*
D02*
G37*
G36*
X460903Y850040D02*
X459097D01*
X457428Y849349D01*
X456151Y848072D01*
X455460Y846403D01*
Y844597D01*
X456151Y842928D01*
X457428Y841651D01*
X459097Y840960D01*
X460217D01*
X460381Y840760D01*
Y840030D01*
X464730D01*
Y844879D01*
X464540D01*
Y846403D01*
X463849Y848072D01*
X462572Y849349D01*
X460903Y850040D01*
D02*
G37*
G36*
X654619Y837490D02*
X650270D01*
Y832641D01*
X650500D01*
X652076Y832954D01*
X653413Y833847D01*
X654306Y835184D01*
X654619Y836760D01*
Y837490D01*
D02*
G37*
G36*
X240840Y840730D02*
X230070D01*
Y829960D01*
X230385D01*
X233447Y830780D01*
X236193Y832366D01*
X238434Y834607D01*
X240019Y837353D01*
X240840Y840415D01*
Y840730D01*
D02*
G37*
G36*
X227530D02*
X216760D01*
Y840415D01*
X217581Y837353D01*
X219166Y834607D01*
X221407Y832366D01*
X224153Y830780D01*
X227215Y829960D01*
X227530D01*
Y840730D01*
D02*
G37*
G36*
X204985Y854040D02*
X201815D01*
X198753Y853220D01*
X196007Y851634D01*
X193766Y849393D01*
X192181Y846647D01*
X191360Y843585D01*
Y840415D01*
X192181Y837353D01*
X193766Y834607D01*
X196007Y832366D01*
X198753Y830780D01*
X201815Y829960D01*
X204985D01*
X208047Y830780D01*
X210793Y832366D01*
X213034Y834607D01*
X214620Y837353D01*
X215440Y840415D01*
Y843585D01*
X214620Y846647D01*
X213034Y849393D01*
X210793Y851634D01*
X208047Y853220D01*
X204985Y854040D01*
D02*
G37*
G36*
X154185D02*
X151015D01*
X147953Y853220D01*
X145207Y851634D01*
X142966Y849393D01*
X141381Y846647D01*
X140560Y843585D01*
Y840415D01*
X141381Y837353D01*
X142966Y834607D01*
X145207Y832366D01*
X147953Y830780D01*
X151015Y829960D01*
X154185D01*
X157247Y830780D01*
X159993Y832366D01*
X162234Y834607D01*
X163820Y837353D01*
X164640Y840415D01*
Y843585D01*
X163820Y846647D01*
X162234Y849393D01*
X159993Y851634D01*
X157247Y853220D01*
X154185Y854040D01*
D02*
G37*
G36*
X111140Y840730D02*
X100370D01*
Y829960D01*
X100685D01*
X103747Y830780D01*
X106493Y832366D01*
X108734Y834607D01*
X110319Y837353D01*
X111140Y840415D01*
Y840730D01*
D02*
G37*
G36*
X97830D02*
X87060D01*
Y840415D01*
X87880Y837353D01*
X89466Y834607D01*
X91707Y832366D01*
X94453Y830780D01*
X97515Y829960D01*
X97830D01*
Y840730D01*
D02*
G37*
G36*
X75285Y854040D02*
X72115D01*
X69053Y853220D01*
X66307Y851634D01*
X64066Y849393D01*
X62481Y846647D01*
X61660Y843585D01*
Y840415D01*
X62481Y837353D01*
X64066Y834607D01*
X66307Y832366D01*
X69053Y830780D01*
X72115Y829960D01*
X75285D01*
X78347Y830780D01*
X81093Y832366D01*
X83334Y834607D01*
X84920Y837353D01*
X85740Y840415D01*
Y843585D01*
X84920Y846647D01*
X83334Y849393D01*
X81093Y851634D01*
X78347Y853220D01*
X75285Y854040D01*
D02*
G37*
G36*
X24485D02*
X21315D01*
X18253Y853220D01*
X15507Y851634D01*
X13266Y849393D01*
X11681Y846647D01*
X10860Y843585D01*
Y840415D01*
X11681Y837353D01*
X13266Y834607D01*
X15507Y832366D01*
X18253Y830780D01*
X21315Y829960D01*
X24485D01*
X27547Y830780D01*
X30293Y832366D01*
X32534Y834607D01*
X34120Y837353D01*
X34940Y840415D01*
Y843585D01*
X34120Y846647D01*
X32534Y849393D01*
X30293Y851634D01*
X27547Y853220D01*
X24485Y854040D01*
D02*
G37*
G36*
X443153Y835540D02*
X441347D01*
X439678Y834849D01*
X438401Y833572D01*
X437710Y831903D01*
Y830097D01*
X438401Y828428D01*
X439678Y827151D01*
X441347Y826460D01*
X443153D01*
X444822Y827151D01*
X446099Y828428D01*
X446790Y830097D01*
Y831903D01*
X446099Y833572D01*
X444822Y834849D01*
X443153Y835540D01*
D02*
G37*
G36*
X650500Y827205D02*
X650270D01*
Y822356D01*
X654619D01*
Y823086D01*
X654306Y824662D01*
X653413Y825998D01*
X652076Y826891D01*
X650500Y827205D01*
D02*
G37*
G36*
X654619Y819816D02*
X650270D01*
Y814966D01*
X650500D01*
X652076Y815280D01*
X653413Y816173D01*
X654306Y817509D01*
X654619Y819086D01*
Y819816D01*
D02*
G37*
G36*
X464730D02*
X460381D01*
Y819086D01*
X460694Y817509D01*
X461587Y816173D01*
X462924Y815280D01*
X464500Y814966D01*
X464730D01*
Y819816D01*
D02*
G37*
G36*
X179585Y854040D02*
X176415D01*
X173353Y853220D01*
X170607Y851634D01*
X168366Y849393D01*
X166780Y846647D01*
X165960Y843585D01*
Y840415D01*
X166780Y837353D01*
X168366Y834607D01*
X170607Y832366D01*
X173353Y830780D01*
X175129Y830304D01*
X175129Y828990D01*
X174511Y828824D01*
X172449Y827634D01*
X170766Y825951D01*
X169576Y823889D01*
X168960Y821590D01*
Y819210D01*
X169576Y816911D01*
X170766Y814849D01*
X172449Y813166D01*
X174511Y811976D01*
X176810Y811360D01*
X179190D01*
X181489Y811976D01*
X183551Y813166D01*
X185234Y814849D01*
X186424Y816911D01*
X187040Y819210D01*
Y821590D01*
X186424Y823889D01*
X185234Y825951D01*
X183551Y827634D01*
X181489Y828824D01*
X180871Y828990D01*
X180871Y830304D01*
X182647Y830780D01*
X185393Y832366D01*
X187634Y834607D01*
X189219Y837353D01*
X190040Y840415D01*
Y843585D01*
X189219Y846647D01*
X187634Y849393D01*
X185393Y851634D01*
X182647Y853220D01*
X179585Y854040D01*
D02*
G37*
G36*
X49885D02*
X46715D01*
X43653Y853220D01*
X40907Y851634D01*
X38666Y849393D01*
X37081Y846647D01*
X36260Y843585D01*
Y840415D01*
X37081Y837353D01*
X38666Y834607D01*
X40907Y832366D01*
X43653Y830780D01*
X45429Y830304D01*
X45429Y828990D01*
X44811Y828824D01*
X42749Y827634D01*
X41066Y825951D01*
X39876Y823889D01*
X39260Y821590D01*
Y819210D01*
X39876Y816911D01*
X41066Y814849D01*
X42749Y813166D01*
X44811Y811976D01*
X47110Y811360D01*
X49490D01*
X51789Y811976D01*
X53851Y813166D01*
X55534Y814849D01*
X56724Y816911D01*
X57340Y819210D01*
Y821590D01*
X56724Y823889D01*
X55534Y825951D01*
X53851Y827634D01*
X51789Y828824D01*
X51171Y828990D01*
X51171Y830304D01*
X52947Y830780D01*
X55693Y832366D01*
X57934Y834607D01*
X59520Y837353D01*
X60340Y840415D01*
Y843585D01*
X59520Y846647D01*
X57934Y849393D01*
X55693Y851634D01*
X52947Y853220D01*
X49885Y854040D01*
D02*
G37*
G36*
X937618Y829290D02*
X934382D01*
X931256Y828453D01*
X928454Y826834D01*
X926166Y824546D01*
X924548Y821744D01*
X923710Y818618D01*
Y815382D01*
X924548Y812256D01*
X926166Y809454D01*
X928454Y807166D01*
X931256Y805548D01*
X934382Y804710D01*
X937618D01*
X940744Y805548D01*
X943546Y807166D01*
X945835Y809454D01*
X947452Y812256D01*
X948290Y815382D01*
Y818618D01*
X947452Y821744D01*
X945835Y824546D01*
X943546Y826834D01*
X940744Y828453D01*
X937618Y829290D01*
D02*
G37*
G36*
X650500Y809119D02*
X650270D01*
Y804270D01*
X654619D01*
Y805000D01*
X654306Y806576D01*
X653413Y807913D01*
X652076Y808805D01*
X650500Y809119D01*
D02*
G37*
G36*
X464730Y809119D02*
X464500D01*
X462924Y808806D01*
X461587Y807913D01*
X460694Y806576D01*
X460381Y805000D01*
Y804270D01*
X464730D01*
Y809119D01*
D02*
G37*
G36*
X773903Y806540D02*
X772097D01*
X770428Y805849D01*
X769151Y804572D01*
X768460Y802903D01*
Y801097D01*
X769151Y799428D01*
X770428Y798151D01*
X772097Y797460D01*
X773903D01*
X775572Y798151D01*
X776849Y799428D01*
X777540Y801097D01*
Y802903D01*
X776849Y804572D01*
X775572Y805849D01*
X773903Y806540D01*
D02*
G37*
G36*
X464730Y801730D02*
X460381D01*
Y801000D01*
X460694Y799424D01*
X461587Y798087D01*
X462924Y797194D01*
X464500Y796881D01*
X464730D01*
Y801730D01*
D02*
G37*
G36*
X654619D02*
X650270D01*
Y796881D01*
X650500D01*
X652076Y797194D01*
X653413Y798087D01*
X654306Y799424D01*
X654619Y801000D01*
Y801730D01*
D02*
G37*
G36*
X962327Y814580D02*
X959673D01*
X957109Y813893D01*
X954811Y812566D01*
X952934Y810689D01*
X951607Y808391D01*
X950920Y805827D01*
Y803173D01*
X951607Y800609D01*
X952934Y798311D01*
X954811Y796434D01*
X957109Y795107D01*
X959673Y794420D01*
X962327D01*
X964891Y795107D01*
X967189Y796434D01*
X969066Y798311D01*
X970393Y800609D01*
X971080Y803173D01*
Y805827D01*
X970393Y808391D01*
X969066Y810689D01*
X967189Y812566D01*
X964891Y813893D01*
X962327Y814580D01*
D02*
G37*
G36*
X464730Y785119D02*
X464500D01*
X462924Y784806D01*
X461587Y783913D01*
X460694Y782576D01*
X460381Y781000D01*
Y780270D01*
X464730D01*
Y785119D01*
D02*
G37*
G36*
X650500Y784869D02*
X650270D01*
Y780020D01*
X654619D01*
Y780750D01*
X654306Y782326D01*
X653413Y783663D01*
X652076Y784556D01*
X650500Y784869D01*
D02*
G37*
G36*
X360903Y782540D02*
X359097D01*
X357428Y781849D01*
X356151Y780572D01*
X355460Y778903D01*
Y777097D01*
X356151Y775428D01*
X357428Y774151D01*
X359097Y773460D01*
X360903D01*
X362572Y774151D01*
X363849Y775428D01*
X364540Y777097D01*
Y778903D01*
X363849Y780572D01*
X362572Y781849D01*
X360903Y782540D01*
D02*
G37*
G36*
X464730Y777730D02*
X460381D01*
Y777000D01*
X460694Y775424D01*
X461587Y774087D01*
X462924Y773194D01*
X464500Y772881D01*
X464730D01*
Y777730D01*
D02*
G37*
G36*
X654619Y777480D02*
X650270D01*
Y772631D01*
X650500D01*
X652076Y772944D01*
X653413Y773837D01*
X654306Y775174D01*
X654619Y776750D01*
Y777480D01*
D02*
G37*
G36*
X971080Y769580D02*
X962270D01*
Y760770D01*
X971080D01*
Y769580D01*
D02*
G37*
G36*
X959730D02*
X950920D01*
Y760770D01*
X959730D01*
Y769580D01*
D02*
G37*
G36*
X230385Y770040D02*
X230070D01*
Y759270D01*
X240840D01*
Y759585D01*
X240019Y762647D01*
X238434Y765393D01*
X236193Y767634D01*
X233447Y769220D01*
X230385Y770040D01*
D02*
G37*
G36*
X100685D02*
X100370D01*
Y759270D01*
X111140D01*
Y759585D01*
X110319Y762647D01*
X108734Y765393D01*
X106493Y767634D01*
X103747Y769220D01*
X100685Y770040D01*
D02*
G37*
G36*
X227530D02*
X227215D01*
X224153Y769220D01*
X221407Y767634D01*
X219166Y765393D01*
X217581Y762647D01*
X216760Y759585D01*
Y759270D01*
X227530D01*
Y770040D01*
D02*
G37*
G36*
X97830D02*
X97515D01*
X94453Y769220D01*
X91707Y767634D01*
X89466Y765393D01*
X87880Y762647D01*
X87060Y759585D01*
Y759270D01*
X97830D01*
Y770040D01*
D02*
G37*
G36*
X262903Y766540D02*
X261097D01*
X259428Y765849D01*
X258151Y764572D01*
X257460Y762903D01*
Y761097D01*
X258151Y759428D01*
X259428Y758151D01*
X261097Y757460D01*
X262903D01*
X264572Y758151D01*
X265849Y759428D01*
X266540Y761097D01*
Y762903D01*
X265849Y764572D01*
X264572Y765849D01*
X262903Y766540D01*
D02*
G37*
G36*
X650500Y760619D02*
X650270D01*
Y755770D01*
X654619D01*
Y756500D01*
X654306Y758076D01*
X653413Y759413D01*
X652076Y760306D01*
X650500Y760619D01*
D02*
G37*
G36*
X464730Y760119D02*
X464500D01*
X462924Y759806D01*
X461587Y758913D01*
X460694Y757576D01*
X460381Y756000D01*
Y755270D01*
X464730D01*
Y760119D01*
D02*
G37*
G36*
X971080Y758230D02*
X962270D01*
Y749420D01*
X971080D01*
Y758230D01*
D02*
G37*
G36*
X959730D02*
X950920D01*
Y749420D01*
X959730D01*
Y758230D01*
D02*
G37*
G36*
X654619Y753230D02*
X650270D01*
Y748381D01*
X650500D01*
X652076Y748695D01*
X653413Y749587D01*
X654306Y750924D01*
X654619Y752500D01*
Y753230D01*
D02*
G37*
G36*
X464730Y752730D02*
X460381D01*
Y752000D01*
X460694Y750424D01*
X461587Y749087D01*
X462924Y748194D01*
X464500Y747881D01*
X464730D01*
Y752730D01*
D02*
G37*
G36*
X240840Y756730D02*
X230070D01*
Y745960D01*
X230385D01*
X233447Y746780D01*
X236193Y748366D01*
X238434Y750607D01*
X240019Y753353D01*
X240840Y756415D01*
Y756730D01*
D02*
G37*
G36*
X227530D02*
X216760D01*
Y756415D01*
X217581Y753353D01*
X219166Y750607D01*
X221407Y748366D01*
X224153Y746780D01*
X227215Y745960D01*
X227530D01*
Y756730D01*
D02*
G37*
G36*
X204985Y770040D02*
X201815D01*
X198753Y769220D01*
X196007Y767634D01*
X193766Y765393D01*
X192181Y762647D01*
X191360Y759585D01*
Y756415D01*
X192181Y753353D01*
X193766Y750607D01*
X196007Y748366D01*
X198753Y746780D01*
X201815Y745960D01*
X204985D01*
X208047Y746780D01*
X210793Y748366D01*
X213034Y750607D01*
X214620Y753353D01*
X215440Y756415D01*
Y759585D01*
X214620Y762647D01*
X213034Y765393D01*
X210793Y767634D01*
X208047Y769220D01*
X204985Y770040D01*
D02*
G37*
G36*
X154185D02*
X151015D01*
X147953Y769220D01*
X145207Y767634D01*
X142966Y765393D01*
X141381Y762647D01*
X140560Y759585D01*
Y756415D01*
X141381Y753353D01*
X142966Y750607D01*
X145207Y748366D01*
X147953Y746780D01*
X151015Y745960D01*
X154185D01*
X157247Y746780D01*
X159993Y748366D01*
X162234Y750607D01*
X163820Y753353D01*
X164640Y756415D01*
Y759585D01*
X163820Y762647D01*
X162234Y765393D01*
X159993Y767634D01*
X157247Y769220D01*
X154185Y770040D01*
D02*
G37*
G36*
X111140Y756730D02*
X100370D01*
Y745960D01*
X100685D01*
X103747Y746780D01*
X106493Y748366D01*
X108734Y750607D01*
X110319Y753353D01*
X111140Y756415D01*
Y756730D01*
D02*
G37*
G36*
X97830D02*
X87060D01*
Y756415D01*
X87880Y753353D01*
X89466Y750607D01*
X91707Y748366D01*
X94453Y746780D01*
X97515Y745960D01*
X97830D01*
Y756730D01*
D02*
G37*
G36*
X75285Y770040D02*
X72115D01*
X69053Y769220D01*
X66307Y767634D01*
X64066Y765393D01*
X62481Y762647D01*
X61660Y759585D01*
Y756415D01*
X62481Y753353D01*
X64066Y750607D01*
X66307Y748366D01*
X69053Y746780D01*
X72115Y745960D01*
X75285D01*
X78347Y746780D01*
X81093Y748366D01*
X83334Y750607D01*
X84920Y753353D01*
X85740Y756415D01*
Y759585D01*
X84920Y762647D01*
X83334Y765393D01*
X81093Y767634D01*
X78347Y769220D01*
X75285Y770040D01*
D02*
G37*
G36*
X24485D02*
X21315D01*
X18253Y769220D01*
X15507Y767634D01*
X13266Y765393D01*
X11681Y762647D01*
X10860Y759585D01*
Y756415D01*
X11681Y753353D01*
X13266Y750607D01*
X15507Y748366D01*
X18253Y746780D01*
X21315Y745960D01*
X24485D01*
X27547Y746780D01*
X30293Y748366D01*
X32534Y750607D01*
X34120Y753353D01*
X34940Y756415D01*
Y759585D01*
X34120Y762647D01*
X32534Y765393D01*
X30293Y767634D01*
X27547Y769220D01*
X24485Y770040D01*
D02*
G37*
G36*
X937618Y759290D02*
X934382D01*
X931256Y758453D01*
X928454Y756834D01*
X926166Y754546D01*
X924548Y751744D01*
X923710Y748618D01*
Y745382D01*
X924548Y742256D01*
X926166Y739454D01*
X928454Y737166D01*
X931256Y735548D01*
X934382Y734710D01*
X937618D01*
X940744Y735548D01*
X943546Y737166D01*
X945835Y739454D01*
X947452Y742256D01*
X948290Y745382D01*
Y748618D01*
X947452Y751744D01*
X945835Y754546D01*
X943546Y756834D01*
X940744Y758453D01*
X937618Y759290D01*
D02*
G37*
G36*
X650500Y736369D02*
X650270D01*
Y731520D01*
X654619D01*
Y732250D01*
X654306Y733826D01*
X653413Y735163D01*
X652076Y736056D01*
X650500Y736369D01*
D02*
G37*
G36*
X464730Y736119D02*
X464500D01*
X462924Y735806D01*
X461587Y734913D01*
X460694Y733576D01*
X460381Y732000D01*
Y731270D01*
X464730D01*
Y736119D01*
D02*
G37*
G36*
X179585Y770040D02*
X176415D01*
X173353Y769220D01*
X170607Y767634D01*
X168366Y765393D01*
X166780Y762647D01*
X165960Y759585D01*
Y756415D01*
X166780Y753353D01*
X168366Y750607D01*
X170607Y748366D01*
X173353Y746780D01*
X175129Y746304D01*
X175129Y744990D01*
X174511Y744824D01*
X172449Y743634D01*
X170766Y741951D01*
X169576Y739889D01*
X168960Y737590D01*
Y735210D01*
X169576Y732911D01*
X170766Y730849D01*
X172449Y729166D01*
X174511Y727976D01*
X176810Y727360D01*
X179190D01*
X181489Y727976D01*
X183551Y729166D01*
X185234Y730849D01*
X186424Y732911D01*
X187040Y735210D01*
Y737590D01*
X186424Y739889D01*
X185234Y741951D01*
X183551Y743634D01*
X181489Y744824D01*
X180871Y744990D01*
X180871Y746304D01*
X182647Y746780D01*
X185393Y748366D01*
X187634Y750607D01*
X189219Y753353D01*
X190040Y756415D01*
Y759585D01*
X189219Y762647D01*
X187634Y765393D01*
X185393Y767634D01*
X182647Y769220D01*
X179585Y770040D01*
D02*
G37*
G36*
X49885D02*
X46715D01*
X43653Y769220D01*
X40907Y767634D01*
X38666Y765393D01*
X37081Y762647D01*
X36260Y759585D01*
Y756415D01*
X37081Y753353D01*
X38666Y750607D01*
X40907Y748366D01*
X43653Y746780D01*
X45429Y746304D01*
X45429Y744990D01*
X44811Y744824D01*
X42749Y743634D01*
X41066Y741951D01*
X39876Y739889D01*
X39260Y737590D01*
Y735210D01*
X39876Y732911D01*
X41066Y730849D01*
X42749Y729166D01*
X44811Y727976D01*
X47110Y727360D01*
X49490D01*
X51789Y727976D01*
X53851Y729166D01*
X55534Y730849D01*
X56724Y732911D01*
X57340Y735210D01*
Y737590D01*
X56724Y739889D01*
X55534Y741951D01*
X53851Y743634D01*
X51789Y744824D01*
X51171Y744990D01*
X51171Y746304D01*
X52947Y746780D01*
X55693Y748366D01*
X57934Y750607D01*
X59520Y753353D01*
X60340Y756415D01*
Y759585D01*
X59520Y762647D01*
X57934Y765393D01*
X55693Y767634D01*
X52947Y769220D01*
X49885Y770040D01*
D02*
G37*
G36*
X654619Y728980D02*
X650270D01*
Y724131D01*
X650500D01*
X652076Y724444D01*
X653413Y725337D01*
X654306Y726674D01*
X654619Y728250D01*
Y728980D01*
D02*
G37*
G36*
X464730Y728730D02*
X460381D01*
Y728000D01*
X460694Y726424D01*
X461587Y725087D01*
X462924Y724194D01*
X464500Y723881D01*
X464730D01*
Y728730D01*
D02*
G37*
G36*
X443668Y722060D02*
X441748D01*
X439975Y721326D01*
X438618Y719968D01*
X437883Y718195D01*
Y716276D01*
X438618Y714502D01*
X439975Y713145D01*
X441748Y712410D01*
X443668D01*
X445441Y713145D01*
X446799Y714502D01*
X447533Y716276D01*
Y718195D01*
X446799Y719968D01*
X445441Y721326D01*
X443668Y722060D01*
D02*
G37*
G36*
X650500Y712119D02*
X650270D01*
Y707270D01*
X654619D01*
Y708000D01*
X654306Y709576D01*
X653413Y710913D01*
X652076Y711806D01*
X650500Y712119D01*
D02*
G37*
G36*
X464730D02*
X464500D01*
X462924Y711806D01*
X461587Y710913D01*
X460694Y709576D01*
X460381Y708000D01*
Y707270D01*
X464730D01*
Y712119D01*
D02*
G37*
G36*
X395088Y727640D02*
X392312D01*
X389632Y726922D01*
X387228Y725534D01*
X385266Y723572D01*
X383878Y721168D01*
X383160Y718488D01*
Y715712D01*
X383878Y713032D01*
X385266Y710628D01*
X387228Y708666D01*
X389632Y707278D01*
X392312Y706560D01*
X395088D01*
X397768Y707278D01*
X400172Y708666D01*
X402134Y710628D01*
X403522Y713032D01*
X404240Y715712D01*
Y718488D01*
X403522Y721168D01*
X402134Y723572D01*
X400172Y725534D01*
X397768Y726922D01*
X395088Y727640D01*
D02*
G37*
G36*
X369688D02*
X366912D01*
X364232Y726922D01*
X361828Y725534D01*
X359866Y723572D01*
X358478Y721168D01*
X357760Y718488D01*
Y715712D01*
X358478Y713032D01*
X359866Y710628D01*
X361828Y708666D01*
X364232Y707278D01*
X366912Y706560D01*
X369688D01*
X372368Y707278D01*
X374772Y708666D01*
X376734Y710628D01*
X378122Y713032D01*
X378840Y715712D01*
Y718488D01*
X378122Y721168D01*
X376734Y723572D01*
X374772Y725534D01*
X372368Y726922D01*
X369688Y727640D01*
D02*
G37*
G36*
X153667Y742670D02*
X151861D01*
X150193Y741979D01*
X148916Y740702D01*
X148224Y739033D01*
Y737227D01*
X148916Y735559D01*
X150193Y734281D01*
X151147Y733886D01*
X176964Y708069D01*
X178309Y707171D01*
X179895Y706855D01*
X329142D01*
X330097Y706460D01*
X331903D01*
X333572Y707151D01*
X334849Y708428D01*
X335540Y710097D01*
Y711903D01*
X334849Y713572D01*
X333572Y714849D01*
X331903Y715540D01*
X330097D01*
X329142Y715145D01*
X181611D01*
X157009Y739747D01*
X156613Y740702D01*
X155336Y741979D01*
X153667Y742670D01*
D02*
G37*
G36*
X464730Y704730D02*
X460381D01*
Y704000D01*
X460694Y702424D01*
X461587Y701087D01*
X462924Y700194D01*
X464500Y699881D01*
X464730D01*
Y704730D01*
D02*
G37*
G36*
X722903Y695540D02*
X721097D01*
X719428Y694849D01*
X718151Y693572D01*
X717460Y691903D01*
Y690097D01*
X718151Y688428D01*
X718375Y688204D01*
Y686817D01*
X717310Y685945D01*
X716169Y686076D01*
X715076Y686806D01*
X713500Y687119D01*
X713270D01*
Y681000D01*
X710730D01*
Y687119D01*
X710500D01*
X708924Y686806D01*
X707587Y685913D01*
X706957Y684970D01*
X702650D01*
X701263Y684694D01*
X700087Y683908D01*
X699301Y682732D01*
X699025Y681345D01*
X699301Y679958D01*
X700087Y678782D01*
X701263Y677997D01*
X702650Y677721D01*
X706635D01*
X706694Y677424D01*
X707587Y676087D01*
X708924Y675194D01*
X709204Y675139D01*
X709472Y673790D01*
X708715Y673285D01*
X707746Y671834D01*
X706254D01*
X705285Y673285D01*
X703204Y674675D01*
X700750Y675163D01*
X697770D01*
Y665000D01*
Y654837D01*
X700750D01*
X703204Y655325D01*
X705285Y656715D01*
X706254Y658166D01*
X707746D01*
X708715Y656715D01*
X710796Y655325D01*
X713250Y654837D01*
X717875D01*
Y651500D01*
X717875Y651500D01*
X718151Y650113D01*
X718937Y648937D01*
X725460Y642414D01*
Y642097D01*
X726151Y640428D01*
X726375Y640204D01*
Y637540D01*
X724960D01*
Y628460D01*
Y620460D01*
X726375D01*
Y616796D01*
X726151Y616572D01*
X725460Y614903D01*
Y613097D01*
X726151Y611428D01*
X727428Y610151D01*
X729097Y609460D01*
X730903D01*
X732140Y609972D01*
X733410Y609330D01*
Y605000D01*
Y491000D01*
X733607Y490009D01*
X734169Y489169D01*
X735009Y488607D01*
X736000Y488410D01*
X847000D01*
X847991Y488607D01*
X848831Y489169D01*
X873831Y514169D01*
X874393Y515009D01*
X874590Y516000D01*
Y605000D01*
X874393Y605991D01*
X873831Y606831D01*
X851572Y629091D01*
X851393Y629991D01*
X850831Y630831D01*
X849991Y631393D01*
X849000Y631590D01*
X783163D01*
X783002Y631558D01*
X782675Y633204D01*
X781285Y635285D01*
X779834Y636254D01*
Y637746D01*
X781285Y638715D01*
X782675Y640796D01*
X783163Y643250D01*
Y646230D01*
X762837D01*
Y643250D01*
X763325Y640796D01*
X764715Y638715D01*
X766166Y637746D01*
Y636254D01*
X764715Y635285D01*
X763325Y633204D01*
X762837Y630750D01*
Y628875D01*
X760312D01*
X759983Y630025D01*
X760076Y630831D01*
X760806Y631924D01*
X761119Y633500D01*
Y633730D01*
X748881D01*
Y633500D01*
X749194Y631924D01*
X749924Y630831D01*
X750055Y629690D01*
X749183Y628625D01*
X746817D01*
X745945Y629690D01*
X746076Y630831D01*
X746806Y631924D01*
X747119Y633500D01*
Y633730D01*
X741000D01*
Y636270D01*
X747119D01*
Y636500D01*
X746806Y638076D01*
X745913Y639413D01*
X744625Y640273D01*
Y643000D01*
X744349Y644387D01*
X743563Y645563D01*
X742387Y646349D01*
X741000Y646625D01*
X739613Y646349D01*
X738437Y645563D01*
X737651Y644387D01*
X737375Y643000D01*
Y640273D01*
X736087Y639413D01*
X735570Y638638D01*
X735545Y638601D01*
X735545Y638601D01*
X735194Y638076D01*
X735040Y637540D01*
X733625D01*
Y640204D01*
X733849Y640428D01*
X734540Y642097D01*
Y643903D01*
X733849Y645572D01*
X732572Y646849D01*
X730903Y647540D01*
X730586D01*
X725125Y653001D01*
Y655940D01*
X726285Y656715D01*
X727675Y658796D01*
X728163Y661250D01*
Y668750D01*
X727675Y671204D01*
X726285Y673285D01*
X725375Y673893D01*
Y675394D01*
X726413Y676087D01*
X727306Y677424D01*
X727619Y679000D01*
Y683000D01*
X727306Y684576D01*
X726413Y685913D01*
X725625Y686439D01*
Y688204D01*
X725849Y688428D01*
X726540Y690097D01*
Y691903D01*
X725849Y693572D01*
X724572Y694849D01*
X722903Y695540D01*
D02*
G37*
G36*
X395088Y702240D02*
X392312D01*
X389632Y701522D01*
X387228Y700134D01*
X385266Y698172D01*
X383878Y695768D01*
X383160Y693088D01*
Y690312D01*
X383878Y687632D01*
X385266Y685228D01*
X387228Y683266D01*
X389632Y681878D01*
X392312Y681160D01*
X395088D01*
X397768Y681878D01*
X400172Y683266D01*
X402134Y685228D01*
X403522Y687632D01*
X404240Y690312D01*
Y693088D01*
X403522Y695768D01*
X402134Y698172D01*
X400172Y700134D01*
X397768Y701522D01*
X395088Y702240D01*
D02*
G37*
G36*
X369688D02*
X366912D01*
X364232Y701522D01*
X361828Y700134D01*
X359866Y698172D01*
X358478Y695768D01*
X357760Y693088D01*
Y690312D01*
X358478Y687632D01*
X359866Y685228D01*
X361828Y683266D01*
X364232Y681878D01*
X366912Y681160D01*
X369688D01*
X372368Y681878D01*
X374772Y683266D01*
X376734Y685228D01*
X378122Y687632D01*
X378840Y690312D01*
Y693088D01*
X378122Y695768D01*
X376734Y698172D01*
X374772Y700134D01*
X372368Y701522D01*
X369688Y702240D01*
D02*
G37*
G36*
X95730Y686100D02*
X95678D01*
X93125Y685416D01*
X90835Y684094D01*
X88966Y682225D01*
X87662Y679967D01*
X87386Y679901D01*
X86614D01*
X86338Y679967D01*
X85034Y682225D01*
X83165Y684094D01*
X80875Y685416D01*
X78322Y686100D01*
X78270D01*
Y676060D01*
X77000D01*
Y674790D01*
X66960D01*
Y674738D01*
X67644Y672185D01*
X68929Y669960D01*
X68760Y669288D01*
X68512Y668690D01*
X67580D01*
X66390Y668453D01*
X65381Y667779D01*
X50801Y653199D01*
X50127Y652190D01*
X49890Y651000D01*
Y440000D01*
X50127Y438810D01*
X50801Y437801D01*
X64801Y423801D01*
X65810Y423127D01*
X67000Y422890D01*
X67906D01*
X68617Y421620D01*
X67644Y419935D01*
X66960Y417382D01*
Y417330D01*
X77000D01*
Y414790D01*
X66960D01*
Y414738D01*
X67644Y412185D01*
X68966Y409895D01*
X70835Y408026D01*
X73094Y406722D01*
X73159Y406446D01*
Y405674D01*
X73094Y405398D01*
X70835Y404094D01*
X68966Y402225D01*
X67644Y399935D01*
X66960Y397382D01*
Y395115D01*
X56069Y384224D01*
X55171Y382880D01*
X54855Y381294D01*
Y334060D01*
X55171Y332474D01*
X56069Y331129D01*
X67564Y319635D01*
X66960Y317382D01*
Y314738D01*
X67644Y312185D01*
X68966Y309895D01*
X70835Y308026D01*
X73094Y306722D01*
X73159Y306446D01*
Y305674D01*
X73094Y305398D01*
X70835Y304094D01*
X68966Y302225D01*
X67644Y299935D01*
X66960Y297382D01*
Y294738D01*
X67644Y292185D01*
X68966Y289895D01*
X70835Y288026D01*
X73125Y286704D01*
X75678Y286020D01*
X78322D01*
X80875Y286704D01*
X83165Y288026D01*
X85034Y289895D01*
X86338Y292153D01*
X86614Y292219D01*
X87386D01*
X87662Y292153D01*
X88966Y289895D01*
X90835Y288026D01*
X93125Y286704D01*
X95678Y286020D01*
X97826D01*
X98374Y284771D01*
X52801Y239199D01*
X52127Y238190D01*
X51890Y237000D01*
Y220000D01*
X52127Y218810D01*
X52801Y217801D01*
X66801Y203801D01*
X67810Y203127D01*
X68053Y203079D01*
X68173Y202965D01*
X68647Y201666D01*
X67644Y199929D01*
X66960Y197375D01*
Y197323D01*
X77000D01*
Y194783D01*
X66960D01*
Y194732D01*
X67644Y192178D01*
X68966Y189889D01*
X70835Y188019D01*
X73094Y186716D01*
X73159Y186440D01*
Y185667D01*
X73094Y185391D01*
X70835Y184087D01*
X68966Y182218D01*
X67644Y179929D01*
X66960Y177375D01*
Y177323D01*
X77000D01*
Y174783D01*
X66960D01*
Y174732D01*
X67644Y172178D01*
X68966Y169889D01*
X70835Y168019D01*
X73094Y166716D01*
X73159Y166440D01*
Y165667D01*
X73094Y165391D01*
X70835Y164087D01*
X68966Y162218D01*
X67644Y159929D01*
X66960Y157375D01*
Y157323D01*
X77000D01*
Y154783D01*
X66960D01*
Y154732D01*
X67644Y152178D01*
X68966Y149889D01*
X70835Y148019D01*
X73094Y146715D01*
X73159Y146440D01*
Y145667D01*
X73094Y145391D01*
X70835Y144087D01*
X68966Y142218D01*
X67644Y139929D01*
X66960Y137375D01*
Y134732D01*
X67644Y132178D01*
X68966Y129889D01*
X70835Y128019D01*
X73094Y126715D01*
X73159Y126440D01*
Y125667D01*
X73094Y125391D01*
X70835Y124087D01*
X68966Y122218D01*
X67644Y119929D01*
X66960Y117375D01*
Y117323D01*
X77000D01*
Y114783D01*
X66960D01*
Y114732D01*
X67644Y112178D01*
X68966Y109889D01*
X70835Y108019D01*
X73094Y106715D01*
X73159Y106440D01*
Y105667D01*
X73094Y105391D01*
X70835Y104087D01*
X68966Y102218D01*
X67644Y99929D01*
X66960Y97375D01*
Y94732D01*
X67644Y92178D01*
X68966Y89889D01*
X70835Y88019D01*
X73094Y86715D01*
X73159Y86440D01*
Y85667D01*
X73094Y85391D01*
X70835Y84087D01*
X68966Y82218D01*
X67644Y79929D01*
X66960Y77375D01*
Y74731D01*
X67644Y72178D01*
X68966Y69889D01*
X70835Y68019D01*
X73125Y66698D01*
X75678Y66013D01*
X78322D01*
X80875Y66698D01*
X83165Y68019D01*
X85034Y69889D01*
X86338Y72147D01*
X86614Y72212D01*
X87386D01*
X87662Y72147D01*
X88966Y69889D01*
X90835Y68019D01*
X93125Y66698D01*
X95678Y66013D01*
X98322D01*
X100875Y66698D01*
X103165Y68019D01*
X105034Y69889D01*
X106356Y72178D01*
X107040Y74731D01*
Y77375D01*
X106356Y79929D01*
X105034Y82218D01*
X103165Y84087D01*
X100906Y85391D01*
X100841Y85667D01*
Y86440D01*
X100906Y86715D01*
X103165Y88019D01*
X105034Y89889D01*
X106356Y92178D01*
X107040Y94732D01*
Y97375D01*
X106356Y99929D01*
X105034Y102218D01*
X103165Y104087D01*
X100906Y105391D01*
X100841Y105667D01*
Y106440D01*
X100906Y106715D01*
X103165Y108019D01*
X105034Y109889D01*
X106356Y112178D01*
X107040Y114732D01*
Y114783D01*
X97000D01*
Y117323D01*
X107040D01*
Y117375D01*
X106356Y119929D01*
X105034Y122218D01*
X103165Y124087D01*
X100906Y125391D01*
X100841Y125667D01*
Y126440D01*
X100906Y126715D01*
X103165Y128019D01*
X105034Y129889D01*
X106356Y132178D01*
X107040Y134732D01*
Y137375D01*
X106356Y139929D01*
X105034Y142218D01*
X103165Y144087D01*
X100906Y145391D01*
X100841Y145667D01*
Y146440D01*
X100906Y146715D01*
X103165Y148019D01*
X105034Y149889D01*
X106356Y152178D01*
X107040Y154732D01*
Y154783D01*
X97000D01*
Y157323D01*
X107040D01*
Y157375D01*
X106356Y159929D01*
X105034Y162218D01*
X103165Y164087D01*
X100906Y165391D01*
X100841Y165667D01*
Y166440D01*
X100906Y166716D01*
X103165Y168019D01*
X105034Y169889D01*
X106356Y172178D01*
X107040Y174732D01*
Y174783D01*
X97000D01*
Y177323D01*
X107040D01*
Y177375D01*
X106356Y179929D01*
X105034Y182218D01*
X103165Y184087D01*
X100906Y185391D01*
X100841Y185667D01*
Y186440D01*
X100906Y186716D01*
X103165Y188019D01*
X105034Y189889D01*
X106356Y192178D01*
X107040Y194732D01*
Y197375D01*
X106356Y199929D01*
X105034Y202218D01*
X104827Y202425D01*
X105323Y203591D01*
X105402Y203646D01*
X106520Y203424D01*
X228512D01*
X228760Y202825D01*
X228929Y202153D01*
X227644Y199929D01*
X226960Y197375D01*
Y197323D01*
X237000D01*
Y194783D01*
X226960D01*
Y194732D01*
X227644Y192178D01*
X228966Y189889D01*
X230835Y188019D01*
X233093Y186716D01*
X233159Y186440D01*
Y185667D01*
X233093Y185391D01*
X230835Y184087D01*
X228966Y182218D01*
X227644Y179929D01*
X226960Y177375D01*
Y174732D01*
X227644Y172178D01*
X228966Y169889D01*
X230835Y168019D01*
X233093Y166716D01*
X233159Y166440D01*
Y165667D01*
X233093Y165391D01*
X230835Y164087D01*
X228966Y162218D01*
X227644Y159929D01*
X226960Y157375D01*
Y157323D01*
X237000D01*
Y154783D01*
X226960D01*
Y154732D01*
X227644Y152178D01*
X228966Y149889D01*
X230835Y148019D01*
X233093Y146715D01*
X233159Y146440D01*
Y145667D01*
X233093Y145391D01*
X230835Y144087D01*
X228966Y142218D01*
X227644Y139929D01*
X226960Y137375D01*
Y134732D01*
X227644Y132178D01*
X228966Y129889D01*
X230835Y128019D01*
X233093Y126715D01*
X233159Y126440D01*
Y125667D01*
X233093Y125391D01*
X230835Y124087D01*
X228966Y122218D01*
X227644Y119929D01*
X226960Y117375D01*
Y117323D01*
X237000D01*
Y114783D01*
X226960D01*
Y114732D01*
X227644Y112178D01*
X228966Y109889D01*
X230835Y108019D01*
X233093Y106715D01*
X233159Y106440D01*
Y105667D01*
X233093Y105391D01*
X230835Y104087D01*
X228966Y102218D01*
X227644Y99929D01*
X226960Y97375D01*
Y94732D01*
X227644Y92178D01*
X228966Y89889D01*
X230835Y88019D01*
X233093Y86715D01*
X233159Y86440D01*
Y85667D01*
X233093Y85391D01*
X230835Y84087D01*
X228966Y82218D01*
X227644Y79929D01*
X226960Y77375D01*
Y74731D01*
X227644Y72178D01*
X228966Y69889D01*
X230835Y68019D01*
X233125Y66698D01*
X235678Y66013D01*
X238322D01*
X240875Y66698D01*
X243165Y68019D01*
X245034Y69889D01*
X246338Y72147D01*
X246614Y72212D01*
X247386D01*
X247662Y72147D01*
X248966Y69889D01*
X250835Y68019D01*
X253125Y66698D01*
X255678Y66013D01*
X258322D01*
X260875Y66698D01*
X263165Y68019D01*
X265034Y69889D01*
X266356Y72178D01*
X267040Y74731D01*
Y77375D01*
X266356Y79929D01*
X265034Y82218D01*
X263165Y84087D01*
X260907Y85391D01*
X260841Y85667D01*
Y86440D01*
X260907Y86715D01*
X263165Y88019D01*
X265034Y89889D01*
X266356Y92178D01*
X267040Y94732D01*
Y97375D01*
X266356Y99929D01*
X265034Y102218D01*
X263165Y104087D01*
X260907Y105391D01*
X260841Y105667D01*
Y106440D01*
X260907Y106715D01*
X263165Y108019D01*
X265034Y109889D01*
X266356Y112178D01*
X267040Y114732D01*
Y114783D01*
X257000D01*
Y117323D01*
X267040D01*
Y117375D01*
X266356Y119929D01*
X265034Y122218D01*
X263165Y124087D01*
X260907Y125391D01*
X260841Y125667D01*
Y126440D01*
X260907Y126715D01*
X263165Y128019D01*
X265034Y129889D01*
X266356Y132178D01*
X267040Y134732D01*
Y137375D01*
X266356Y139929D01*
X265034Y142218D01*
X263165Y144087D01*
X260907Y145391D01*
X260841Y145667D01*
Y146440D01*
X260907Y146715D01*
X263165Y148019D01*
X265034Y149889D01*
X266356Y152178D01*
X267040Y154732D01*
Y154783D01*
X257000D01*
Y157323D01*
X267040D01*
Y157375D01*
X266356Y159929D01*
X265034Y162218D01*
X263165Y164087D01*
X260907Y165391D01*
X260841Y165667D01*
Y166440D01*
X260907Y166716D01*
X263165Y168019D01*
X265034Y169889D01*
X266356Y172178D01*
X267040Y174732D01*
Y177375D01*
X266356Y179929D01*
X265034Y182218D01*
X263165Y184087D01*
X260907Y185391D01*
X260841Y185667D01*
Y186440D01*
X260907Y186716D01*
X263165Y188019D01*
X265034Y189889D01*
X266356Y192178D01*
X267040Y194732D01*
Y197375D01*
X266356Y199929D01*
X265034Y202218D01*
X263165Y204087D01*
X260907Y205391D01*
X260841Y205667D01*
Y206440D01*
X260907Y206716D01*
X263165Y208019D01*
X265034Y209889D01*
X266356Y212178D01*
X267040Y214732D01*
Y217375D01*
X266356Y219929D01*
X265034Y222218D01*
X263165Y224087D01*
X260907Y225391D01*
X260841Y225667D01*
Y226440D01*
X260907Y226716D01*
X263165Y228019D01*
X265034Y229889D01*
X266356Y232178D01*
X267040Y234732D01*
Y234783D01*
X257000D01*
Y236053D01*
X255730D01*
Y246093D01*
X255678D01*
X253125Y245409D01*
X250835Y244087D01*
X248966Y242218D01*
X247662Y239960D01*
X247386Y239894D01*
X246614D01*
X246338Y239960D01*
X245034Y242218D01*
X243165Y244087D01*
X240875Y245409D01*
X238322Y246093D01*
X238270D01*
Y236053D01*
X237000D01*
Y234783D01*
X226960D01*
Y234732D01*
X227644Y232178D01*
X228966Y229889D01*
X229174Y229681D01*
X228677Y228515D01*
X228598Y228461D01*
X227480Y228683D01*
X105488D01*
X105240Y229281D01*
X105071Y229953D01*
X106356Y232178D01*
X107040Y234732D01*
Y234783D01*
X97000D01*
Y236053D01*
X95730D01*
Y246093D01*
X95678D01*
X93125Y245409D01*
X90835Y244087D01*
X88966Y242218D01*
X87662Y239960D01*
X87386Y239894D01*
X86614D01*
X86338Y239960D01*
X85034Y242218D01*
X83165Y244087D01*
X80875Y245409D01*
X78322Y246093D01*
X78270D01*
Y236053D01*
X75730D01*
Y246093D01*
X75678D01*
X75144Y245950D01*
X74487Y247089D01*
X124199Y296801D01*
X124873Y297810D01*
X125110Y299000D01*
Y430000D01*
X124873Y431190D01*
X124199Y432199D01*
X108054Y448344D01*
X107045Y449018D01*
X106070Y449212D01*
X105654Y449813D01*
X105397Y450524D01*
X106356Y452185D01*
X107040Y454738D01*
Y454790D01*
X97000D01*
Y456060D01*
X95730D01*
Y466100D01*
X95678D01*
X93125Y465416D01*
X90835Y464094D01*
X88966Y462225D01*
X87662Y459967D01*
X87386Y459901D01*
X86614D01*
X86338Y459967D01*
X85034Y462225D01*
X83165Y464094D01*
X80875Y465416D01*
X78322Y466100D01*
X78270D01*
Y456060D01*
X77000D01*
Y454790D01*
X66960D01*
Y454738D01*
X67644Y452185D01*
X68966Y449895D01*
X70835Y448026D01*
X73094Y446722D01*
X73159Y446446D01*
Y445674D01*
X73094Y445398D01*
X70835Y444094D01*
X68966Y442225D01*
X67869Y440325D01*
X66727Y440010D01*
X66357Y440040D01*
X61110Y445288D01*
Y635772D01*
X67414Y642076D01*
X68430Y641296D01*
X67644Y639935D01*
X66960Y637382D01*
Y637330D01*
X77000D01*
Y634790D01*
X66960D01*
Y634738D01*
X67644Y632185D01*
X68966Y629895D01*
X70835Y628026D01*
X73094Y626722D01*
X73159Y626446D01*
Y625674D01*
X73094Y625398D01*
X70835Y624094D01*
X68966Y622225D01*
X67644Y619935D01*
X66960Y617382D01*
Y617330D01*
X77000D01*
Y614790D01*
X66960D01*
Y614738D01*
X67644Y612185D01*
X68966Y609895D01*
X70835Y608026D01*
X73094Y606722D01*
X73159Y606446D01*
Y605674D01*
X73094Y605398D01*
X70835Y604094D01*
X68966Y602225D01*
X67644Y599935D01*
X66960Y597382D01*
Y597330D01*
X77000D01*
Y594790D01*
X66960D01*
Y594738D01*
X67644Y592185D01*
X68966Y589895D01*
X70835Y588026D01*
X73094Y586722D01*
X73159Y586446D01*
Y585674D01*
X73094Y585398D01*
X70835Y584094D01*
X68966Y582225D01*
X67644Y579935D01*
X66960Y577382D01*
Y574738D01*
X67644Y572185D01*
X68966Y569895D01*
X70835Y568026D01*
X73094Y566722D01*
X73159Y566446D01*
Y565674D01*
X73094Y565398D01*
X70835Y564094D01*
X68966Y562225D01*
X67644Y559935D01*
X66960Y557382D01*
Y557330D01*
X77000D01*
Y554790D01*
X66960D01*
Y554738D01*
X67644Y552185D01*
X68966Y549895D01*
X70835Y548026D01*
X73094Y546722D01*
X73159Y546446D01*
Y545674D01*
X73094Y545398D01*
X70835Y544094D01*
X68966Y542225D01*
X67644Y539935D01*
X66960Y537382D01*
Y534738D01*
X67644Y532185D01*
X68966Y529895D01*
X70835Y528026D01*
X73094Y526722D01*
X73159Y526446D01*
Y525674D01*
X73094Y525398D01*
X70835Y524094D01*
X68966Y522225D01*
X67644Y519935D01*
X66960Y517382D01*
Y514738D01*
X67644Y512185D01*
X68966Y509895D01*
X70835Y508026D01*
X73125Y506704D01*
X75678Y506020D01*
X78322D01*
X80875Y506704D01*
X83165Y508026D01*
X85034Y509895D01*
X86338Y512154D01*
X86614Y512219D01*
X87386D01*
X87662Y512154D01*
X88966Y509895D01*
X90835Y508026D01*
X93125Y506704D01*
X95678Y506020D01*
X98322D01*
X100875Y506704D01*
X103165Y508026D01*
X105034Y509895D01*
X106356Y512185D01*
X107040Y514738D01*
Y517382D01*
X106356Y519935D01*
X105034Y522225D01*
X103165Y524094D01*
X100906Y525398D01*
X100841Y525674D01*
Y526446D01*
X100906Y526722D01*
X103165Y528026D01*
X105034Y529895D01*
X106356Y532185D01*
X107040Y534738D01*
Y537382D01*
X106356Y539935D01*
X105034Y542225D01*
X103165Y544094D01*
X100906Y545398D01*
X100841Y545674D01*
Y546446D01*
X100906Y546722D01*
X103165Y548026D01*
X105034Y549895D01*
X106356Y552185D01*
X107040Y554738D01*
Y554790D01*
X97000D01*
Y557330D01*
X107040D01*
Y557382D01*
X106356Y559935D01*
X105034Y562225D01*
X103165Y564094D01*
X100906Y565398D01*
X100841Y565674D01*
Y566446D01*
X100906Y566722D01*
X103165Y568026D01*
X105034Y569895D01*
X106356Y572185D01*
X107040Y574738D01*
Y577382D01*
X106356Y579935D01*
X105034Y582225D01*
X103165Y584094D01*
X100906Y585398D01*
X100841Y585674D01*
Y586446D01*
X100906Y586722D01*
X103165Y588026D01*
X105034Y589895D01*
X106356Y592185D01*
X107040Y594738D01*
Y594790D01*
X97000D01*
Y597330D01*
X107040D01*
Y597382D01*
X106356Y599935D01*
X105034Y602225D01*
X103165Y604094D01*
X100906Y605398D01*
X100841Y605674D01*
Y606446D01*
X100906Y606722D01*
X103165Y608026D01*
X105034Y609895D01*
X106356Y612185D01*
X107040Y614738D01*
Y617382D01*
X106356Y619935D01*
X105034Y622225D01*
X103165Y624094D01*
X100906Y625398D01*
X100841Y625674D01*
Y626446D01*
X100906Y626722D01*
X103165Y628026D01*
X105034Y629895D01*
X106356Y632185D01*
X107040Y634738D01*
Y637382D01*
X106356Y639935D01*
X105071Y642160D01*
X105240Y642832D01*
X105488Y643430D01*
X320172D01*
X365801Y597801D01*
X366810Y597127D01*
X368000Y596890D01*
X386217D01*
X386924Y595831D01*
X386973Y595408D01*
X386440Y594753D01*
X385185Y594339D01*
X383516Y595030D01*
X381710D01*
X380041Y594339D01*
X378764Y593062D01*
X378073Y591393D01*
Y589587D01*
X378764Y587918D01*
X380041Y586641D01*
X381710Y585950D01*
X383516D01*
X384543Y586375D01*
X386561D01*
X387087Y585587D01*
X388424Y584694D01*
X390000Y584381D01*
X394000D01*
X395576Y584694D01*
X396913Y585587D01*
X397806Y586924D01*
X398119Y588500D01*
Y591500D01*
X397806Y593076D01*
X397076Y594169D01*
X396980Y595000D01*
X397076Y595831D01*
X397783Y596890D01*
X400689D01*
X401428Y596151D01*
X403097Y595460D01*
X404903D01*
X406572Y596151D01*
X407849Y597428D01*
X408540Y599097D01*
Y600903D01*
X407849Y602572D01*
X406572Y603849D01*
X406247Y603983D01*
Y605358D01*
X406572Y605492D01*
X407849Y606770D01*
X408540Y608438D01*
Y610244D01*
X407849Y611913D01*
X406572Y613190D01*
X404903Y613881D01*
X403097D01*
X401428Y613190D01*
X400689Y612451D01*
X398091D01*
X397806Y613888D01*
X397076Y614980D01*
X396945Y616122D01*
X397817Y617187D01*
X401204D01*
X401428Y616963D01*
X403097Y616271D01*
X404903D01*
X406572Y616963D01*
X407849Y618240D01*
X408540Y619908D01*
Y621714D01*
X407849Y623383D01*
X406572Y624660D01*
X404903Y625351D01*
X403097D01*
X401428Y624660D01*
X401204Y624436D01*
X397439D01*
X396913Y625224D01*
X395576Y626117D01*
X394000Y626430D01*
X390000D01*
X388424Y626117D01*
X387087Y625224D01*
X386194Y623888D01*
X385881Y622311D01*
Y619311D01*
X386194Y617735D01*
X386924Y616642D01*
X387020Y615811D01*
X386924Y614980D01*
X386343Y614110D01*
X367288D01*
X327199Y654199D01*
X326190Y654873D01*
X325000Y655110D01*
X107040D01*
Y657382D01*
X106356Y659935D01*
X105034Y662225D01*
X103165Y664094D01*
X100906Y665398D01*
X100841Y665674D01*
Y666446D01*
X100906Y666722D01*
X103165Y668026D01*
X105034Y669895D01*
X106356Y672185D01*
X107040Y674738D01*
Y674790D01*
X97000D01*
Y676060D01*
X95730D01*
Y686100D01*
D02*
G37*
G36*
X98322D02*
X98270D01*
Y677330D01*
X107040D01*
Y677382D01*
X106356Y679935D01*
X105034Y682225D01*
X103165Y684094D01*
X100875Y685416D01*
X98322Y686100D01*
D02*
G37*
G36*
X75730D02*
X75678D01*
X73125Y685416D01*
X70835Y684094D01*
X68966Y682225D01*
X67644Y679935D01*
X66960Y677382D01*
Y677330D01*
X75730D01*
Y686100D01*
D02*
G37*
G36*
X395088Y676840D02*
X392312D01*
X389632Y676122D01*
X387228Y674734D01*
X385266Y672772D01*
X383878Y670368D01*
X383160Y667688D01*
Y664912D01*
X383878Y662232D01*
X385266Y659828D01*
X387228Y657866D01*
X389632Y656478D01*
X392312Y655760D01*
X395088D01*
X397768Y656478D01*
X400172Y657866D01*
X402134Y659828D01*
X403522Y662232D01*
X404240Y664912D01*
Y667688D01*
X403522Y670368D01*
X402134Y672772D01*
X400172Y674734D01*
X397768Y676122D01*
X395088Y676840D01*
D02*
G37*
G36*
X369688D02*
X366912D01*
X364232Y676122D01*
X361828Y674734D01*
X359866Y672772D01*
X358478Y670368D01*
X357760Y667688D01*
Y664912D01*
X358478Y662232D01*
X359866Y659828D01*
X361828Y657866D01*
X364232Y656478D01*
X366912Y655760D01*
X369688D01*
X372368Y656478D01*
X374772Y657866D01*
X376734Y659828D01*
X378122Y662232D01*
X378840Y664912D01*
Y667688D01*
X378122Y670368D01*
X376734Y672772D01*
X374772Y674734D01*
X372368Y676122D01*
X369688Y676840D01*
D02*
G37*
G36*
X695230Y675163D02*
X692250D01*
X689796Y674675D01*
X687715Y673285D01*
X686325Y671204D01*
X685837Y668750D01*
Y668625D01*
X680000D01*
X678613Y668349D01*
X677437Y667563D01*
X676651Y666387D01*
X676375Y665000D01*
X676651Y663613D01*
X677437Y662437D01*
X678613Y661651D01*
X680000Y661375D01*
X685837D01*
Y661250D01*
X686325Y658796D01*
X687715Y656715D01*
X689796Y655325D01*
X692250Y654837D01*
X695230D01*
Y665000D01*
Y675163D01*
D02*
G37*
G36*
X773000Y667115D02*
X771613Y666839D01*
X770437Y666053D01*
X769651Y664877D01*
X769375Y663490D01*
Y658163D01*
X769250D01*
X766796Y657675D01*
X764715Y656285D01*
X763325Y654204D01*
X762837Y651750D01*
Y648770D01*
X783163D01*
Y651750D01*
X782675Y654204D01*
X781285Y656285D01*
X779204Y657675D01*
X776750Y658163D01*
X776625D01*
Y663490D01*
X776349Y664877D01*
X775563Y666053D01*
X774387Y666839D01*
X773000Y667115D01*
D02*
G37*
G36*
X395088Y651440D02*
X394970D01*
Y642170D01*
X404240D01*
Y642288D01*
X403522Y644968D01*
X402134Y647372D01*
X400172Y649334D01*
X397768Y650722D01*
X395088Y651440D01*
D02*
G37*
G36*
X392430D02*
X392312D01*
X389632Y650722D01*
X387228Y649334D01*
X385266Y647372D01*
X383878Y644968D01*
X383160Y642288D01*
Y642170D01*
X392430D01*
Y651440D01*
D02*
G37*
G36*
X755000Y646625D02*
X753613Y646349D01*
X752437Y645563D01*
X751651Y644387D01*
X751375Y643000D01*
Y640273D01*
X750087Y639413D01*
X749194Y638076D01*
X748881Y636500D01*
Y636270D01*
X761119D01*
Y636500D01*
X760806Y638076D01*
X759913Y639413D01*
X758625Y640273D01*
Y643000D01*
X758349Y644387D01*
X757563Y645563D01*
X756387Y646349D01*
X755000Y646625D01*
D02*
G37*
G36*
X954730Y637540D02*
X954612D01*
X951932Y636822D01*
X949528Y635434D01*
X947566Y633472D01*
X946583Y631770D01*
X945117D01*
X944134Y633472D01*
X942172Y635434D01*
X939768Y636822D01*
X937088Y637540D01*
X934312D01*
X931632Y636822D01*
X929228Y635434D01*
X927266Y633472D01*
X925878Y631068D01*
X925587Y629982D01*
X924171Y629602D01*
X922278Y631495D01*
X919200Y633551D01*
X915781Y634968D01*
X912151Y635690D01*
X908449D01*
X904819Y634968D01*
X901400Y633551D01*
X898322Y631495D01*
X895705Y628878D01*
X893649Y625800D01*
X892232Y622381D01*
X891510Y618751D01*
Y615049D01*
X892232Y611419D01*
X893649Y608000D01*
X895705Y604922D01*
X898322Y602305D01*
X901400Y600248D01*
X904819Y598832D01*
X908449Y598110D01*
X912151D01*
X915781Y598832D01*
X919200Y600248D01*
X922278Y602305D01*
X924895Y604922D01*
X926952Y608000D01*
X928368Y611419D01*
X929090Y615049D01*
Y617179D01*
X930360Y617912D01*
X931632Y617178D01*
X934312Y616460D01*
X937088D01*
X939768Y617178D01*
X942172Y618566D01*
X944134Y620528D01*
X945117Y622230D01*
X946583D01*
X947566Y620528D01*
X949528Y618566D01*
X951932Y617178D01*
X954612Y616460D01*
X954730D01*
Y627000D01*
Y637540D01*
D02*
G37*
G36*
X404240Y639630D02*
X394970D01*
Y630360D01*
X395088D01*
X397768Y631078D01*
X400172Y632466D01*
X402134Y634428D01*
X403522Y636832D01*
X404240Y639512D01*
Y639630D01*
D02*
G37*
G36*
X392430D02*
X383160D01*
Y639512D01*
X383878Y636832D01*
X385266Y634428D01*
X387228Y632466D01*
X389632Y631078D01*
X392312Y630360D01*
X392430D01*
Y639630D01*
D02*
G37*
G36*
X369688Y651440D02*
X366912D01*
X364232Y650722D01*
X361828Y649334D01*
X359866Y647372D01*
X358478Y644968D01*
X357760Y642288D01*
Y639512D01*
X358478Y636832D01*
X359866Y634428D01*
X361828Y632466D01*
X364232Y631078D01*
X366912Y630360D01*
X369688D01*
X372368Y631078D01*
X374772Y632466D01*
X376734Y634428D01*
X378122Y636832D01*
X378840Y639512D01*
Y642288D01*
X378122Y644968D01*
X376734Y647372D01*
X374772Y649334D01*
X372368Y650722D01*
X369688Y651440D01*
D02*
G37*
G36*
X957388Y637540D02*
X957270D01*
Y628270D01*
X966540D01*
Y628388D01*
X965822Y631068D01*
X964434Y633472D01*
X962472Y635434D01*
X960068Y636822D01*
X957388Y637540D01*
D02*
G37*
G36*
X881281Y653540D02*
X878319D01*
X875413Y652962D01*
X872676Y651828D01*
X870213Y650182D01*
X868118Y648087D01*
X866472Y645624D01*
X865338Y642887D01*
X864760Y639981D01*
Y637019D01*
X865338Y634113D01*
X866472Y631376D01*
X868118Y628913D01*
X870213Y626818D01*
X872676Y625172D01*
X875413Y624038D01*
X878319Y623460D01*
X881281D01*
X884187Y624038D01*
X886924Y625172D01*
X889387Y626818D01*
X891482Y628913D01*
X893128Y631376D01*
X894262Y634113D01*
X894840Y637019D01*
Y639981D01*
X894262Y642887D01*
X893128Y645624D01*
X891482Y648087D01*
X889387Y650182D01*
X886924Y651828D01*
X884187Y652962D01*
X881281Y653540D01*
D02*
G37*
G36*
X966540Y625730D02*
X957270D01*
Y616460D01*
X957388D01*
X960068Y617178D01*
X962472Y618566D01*
X964434Y620528D01*
X965822Y622932D01*
X966540Y625612D01*
Y625730D01*
D02*
G37*
G36*
X434903Y527540D02*
X433097D01*
X431428Y526849D01*
X430151Y525572D01*
X429460Y523903D01*
Y522097D01*
X430151Y520428D01*
X431428Y519151D01*
X433097Y518460D01*
X434903D01*
X436572Y519151D01*
X437849Y520428D01*
X438540Y522097D01*
Y523903D01*
X437849Y525572D01*
X436572Y526849D01*
X434903Y527540D01*
D02*
G37*
G36*
X136903Y520631D02*
X135097D01*
X133428Y519940D01*
X132151Y518663D01*
X131460Y516994D01*
Y515188D01*
X132151Y513519D01*
X133428Y512242D01*
X135097Y511551D01*
X136903D01*
X138572Y512242D01*
X139849Y513519D01*
X140540Y515188D01*
Y516994D01*
X139849Y518663D01*
X138572Y519940D01*
X136903Y520631D01*
D02*
G37*
G36*
X701619Y522730D02*
X695500D01*
X689381D01*
Y522500D01*
X689694Y520924D01*
X690587Y519587D01*
X691907Y518706D01*
Y513366D01*
X691907Y513366D01*
X692182Y511978D01*
X692968Y510802D01*
X692999Y510771D01*
X694175Y509986D01*
X695562Y509710D01*
X696949Y509986D01*
X698125Y510771D01*
X698911Y511947D01*
X699187Y513334D01*
X699156Y513491D01*
Y518748D01*
X700413Y519587D01*
X701305Y520924D01*
X701619Y522500D01*
Y522730D01*
D02*
G37*
G36*
X400903Y507540D02*
X399097D01*
X397428Y506849D01*
X396151Y505572D01*
X395460Y503903D01*
Y502097D01*
X396151Y500428D01*
X397428Y499151D01*
X399097Y498460D01*
X400903D01*
X402572Y499151D01*
X403849Y500428D01*
X404540Y502097D01*
Y503903D01*
X403849Y505572D01*
X402572Y506849D01*
X400903Y507540D01*
D02*
G37*
G36*
X957388Y503040D02*
X957270D01*
Y493770D01*
X966540D01*
Y493888D01*
X965822Y496568D01*
X964434Y498972D01*
X962472Y500934D01*
X960068Y502322D01*
X957388Y503040D01*
D02*
G37*
G36*
X185903Y501631D02*
X184097D01*
X182428Y500940D01*
X181151Y499663D01*
X180460Y497994D01*
Y496188D01*
X181151Y494519D01*
X182428Y493242D01*
X184097Y492551D01*
X185903D01*
X187572Y493242D01*
X188849Y494519D01*
X189540Y496188D01*
Y497994D01*
X188849Y499663D01*
X187572Y500940D01*
X185903Y501631D01*
D02*
G37*
G36*
X400903Y494540D02*
X399097D01*
X397428Y493849D01*
X396151Y492572D01*
X395460Y490903D01*
Y489097D01*
X396151Y487428D01*
X397428Y486151D01*
X399097Y485460D01*
X400903D01*
X402572Y486151D01*
X403849Y487428D01*
X404540Y489097D01*
Y490903D01*
X403849Y492572D01*
X402572Y493849D01*
X400903Y494540D01*
D02*
G37*
G36*
X966540Y491230D02*
X957270D01*
Y481960D01*
X957388D01*
X960068Y482678D01*
X962472Y484066D01*
X964434Y486028D01*
X965822Y488432D01*
X966540Y491112D01*
Y491230D01*
D02*
G37*
G36*
X912151Y521390D02*
X908449D01*
X904819Y520668D01*
X901400Y519252D01*
X898322Y517195D01*
X895705Y514578D01*
X893649Y511500D01*
X892232Y508081D01*
X891510Y504451D01*
Y500749D01*
X892232Y497119D01*
X893649Y493700D01*
X895705Y490622D01*
X898322Y488005D01*
X901400Y485948D01*
X904819Y484532D01*
X908449Y483810D01*
X912151D01*
X915781Y484532D01*
X919200Y485948D01*
X922278Y488005D01*
X924171Y489898D01*
X925587Y489518D01*
X925878Y488432D01*
X927266Y486028D01*
X929228Y484066D01*
X931632Y482678D01*
X934312Y481960D01*
X937088D01*
X939768Y482678D01*
X942172Y484066D01*
X944134Y486028D01*
X945117Y487730D01*
X946583D01*
X947566Y486028D01*
X949528Y484066D01*
X951932Y482678D01*
X954612Y481960D01*
X954730D01*
Y492500D01*
Y503040D01*
X954612D01*
X951932Y502322D01*
X949528Y500934D01*
X947566Y498972D01*
X946583Y497270D01*
X945117D01*
X944134Y498972D01*
X942172Y500934D01*
X939768Y502322D01*
X937088Y503040D01*
X934312D01*
X931632Y502322D01*
X930360Y501587D01*
X929090Y502321D01*
Y504451D01*
X928368Y508081D01*
X926952Y511500D01*
X924895Y514578D01*
X922278Y517195D01*
X919200Y519252D01*
X915781Y520668D01*
X912151Y521390D01*
D02*
G37*
G36*
X881281Y496040D02*
X878319D01*
X875413Y495462D01*
X872676Y494328D01*
X870213Y492682D01*
X868118Y490587D01*
X866472Y488124D01*
X865338Y485387D01*
X864760Y482481D01*
Y479519D01*
X865338Y476613D01*
X866472Y473876D01*
X868118Y471413D01*
X870213Y469318D01*
X872676Y467672D01*
X875413Y466538D01*
X878319Y465960D01*
X881281D01*
X884187Y466538D01*
X886924Y467672D01*
X889387Y469318D01*
X891482Y471413D01*
X893128Y473876D01*
X894262Y476613D01*
X894840Y479519D01*
Y482481D01*
X894262Y485387D01*
X893128Y488124D01*
X891482Y490587D01*
X889387Y492682D01*
X886924Y494328D01*
X884187Y495462D01*
X881281Y496040D01*
D02*
G37*
G36*
X406903Y485540D02*
X405097D01*
X403428Y484849D01*
X402151Y483572D01*
X401460Y481903D01*
Y480684D01*
X401085Y479915D01*
X400316Y479540D01*
X399097D01*
X397428Y478849D01*
X396151Y477572D01*
X395460Y475903D01*
Y474097D01*
X396151Y472428D01*
X397428Y471151D01*
X399097Y470460D01*
X400903D01*
X401460Y470088D01*
Y469097D01*
X402151Y467428D01*
X403428Y466151D01*
X405097Y465460D01*
X406903D01*
X408572Y466151D01*
X409849Y467428D01*
X410540Y469097D01*
Y470903D01*
X409849Y472572D01*
X408572Y473849D01*
X406903Y474540D01*
X405433D01*
X405178Y474926D01*
X405631Y476434D01*
X405684Y476460D01*
X406903D01*
X408572Y477151D01*
X409849Y478428D01*
X410540Y480097D01*
Y481903D01*
X409849Y483572D01*
X408572Y484849D01*
X406903Y485540D01*
D02*
G37*
G36*
X98322Y466100D02*
X98270D01*
Y457330D01*
X107040D01*
Y457382D01*
X106356Y459935D01*
X105034Y462225D01*
X103165Y464094D01*
X100875Y465416D01*
X98322Y466100D01*
D02*
G37*
G36*
X75730D02*
X75678D01*
X73125Y465416D01*
X70835Y464094D01*
X68966Y462225D01*
X67644Y459935D01*
X66960Y457382D01*
Y457330D01*
X75730D01*
Y466100D01*
D02*
G37*
G36*
X598125Y455386D02*
X596770D01*
Y449270D01*
X603136D01*
Y450375D01*
X602755Y452293D01*
X601669Y453918D01*
X600043Y455005D01*
X598125Y455386D01*
D02*
G37*
G36*
X603136Y446730D02*
X596770D01*
Y440614D01*
X598125D01*
X600043Y440995D01*
X601669Y442081D01*
X602755Y443707D01*
X603136Y445625D01*
Y446730D01*
D02*
G37*
G36*
X461903Y526540D02*
X460097D01*
X458428Y525849D01*
X457151Y524572D01*
X456460Y522903D01*
Y522168D01*
X442666Y508374D01*
X441944Y507294D01*
X441691Y506020D01*
Y481067D01*
X440903Y480540D01*
X439097D01*
X437428Y479849D01*
X436151Y478572D01*
X435460Y476903D01*
Y475097D01*
X436151Y473428D01*
X437428Y472151D01*
X439097Y471460D01*
X440903D01*
X441691Y470933D01*
Y394399D01*
X441944Y393125D01*
X442666Y392045D01*
X443746Y391324D01*
X445020Y391070D01*
X446294Y391324D01*
X447374Y392045D01*
X448096Y393125D01*
X448349Y394399D01*
Y504641D01*
X453401Y509693D01*
X454671Y509167D01*
Y441092D01*
X454151Y440572D01*
X453460Y438903D01*
Y437097D01*
X454151Y435428D01*
X455428Y434151D01*
X457097Y433460D01*
X458903D01*
X460572Y434151D01*
X461849Y435428D01*
X462540Y437097D01*
Y438903D01*
X461849Y440572D01*
X461329Y441092D01*
Y508051D01*
X461572Y508151D01*
X462849Y509428D01*
X463540Y511097D01*
Y512903D01*
X462849Y514572D01*
X461572Y515849D01*
X461728Y517159D01*
X461903Y517460D01*
X463572Y518151D01*
X464849Y519428D01*
X465540Y521097D01*
Y522903D01*
X464849Y524572D01*
X463572Y525849D01*
X461903Y526540D01*
D02*
G37*
G36*
X871064Y433825D02*
X869145D01*
X867371Y433090D01*
X866014Y431733D01*
X865280Y429960D01*
Y428040D01*
X866014Y426267D01*
X867371Y424910D01*
X869145Y424175D01*
X871064D01*
X872838Y424910D01*
X874195Y426267D01*
X874930Y428040D01*
Y429960D01*
X874195Y431733D01*
X872838Y433090D01*
X871064Y433825D01*
D02*
G37*
G36*
X922618Y444290D02*
X919382D01*
X916256Y443452D01*
X913454Y441834D01*
X911166Y439546D01*
X909548Y436744D01*
X908710Y433618D01*
Y430382D01*
X909548Y427256D01*
X911166Y424454D01*
X913454Y422166D01*
X916256Y420548D01*
X919382Y419710D01*
X922618D01*
X925744Y420548D01*
X928546Y422166D01*
X930835Y424454D01*
X932452Y427256D01*
X933290Y430382D01*
Y433618D01*
X932452Y436744D01*
X930835Y439546D01*
X928546Y441834D01*
X925744Y443452D01*
X922618Y444290D01*
D02*
G37*
G36*
X526903Y426540D02*
X525097D01*
X523428Y425849D01*
X522151Y424572D01*
X521460Y422903D01*
Y421097D01*
X522151Y419428D01*
X523428Y418151D01*
X525097Y417460D01*
X526903D01*
X528572Y418151D01*
X529849Y419428D01*
X530540Y421097D01*
Y422903D01*
X529849Y424572D01*
X528572Y425849D01*
X526903Y426540D01*
D02*
G37*
G36*
X420601Y418020D02*
X419399D01*
X418289Y417560D01*
X417440Y416711D01*
X416980Y415601D01*
Y414399D01*
X417440Y413289D01*
X418289Y412440D01*
X419399Y411980D01*
X420601D01*
X421711Y412440D01*
X422560Y413289D01*
X423020Y414399D01*
Y415601D01*
X422560Y416711D01*
X421711Y417560D01*
X420601Y418020D01*
D02*
G37*
G36*
X947327Y429580D02*
X944673D01*
X942109Y428893D01*
X939811Y427566D01*
X937934Y425689D01*
X936607Y423391D01*
X935920Y420827D01*
Y418173D01*
X936607Y415609D01*
X937934Y413311D01*
X939811Y411434D01*
X942109Y410107D01*
X944673Y409420D01*
X947327D01*
X949891Y410107D01*
X952189Y411434D01*
X954066Y413311D01*
X955393Y415609D01*
X956080Y418173D01*
Y420827D01*
X955393Y423391D01*
X954066Y425689D01*
X952189Y427566D01*
X949891Y428893D01*
X947327Y429580D01*
D02*
G37*
G36*
X788388Y425540D02*
X785612D01*
X782932Y424822D01*
X780528Y423434D01*
X778566Y421472D01*
X777178Y419068D01*
X776460Y416388D01*
Y413612D01*
X777178Y410932D01*
X778566Y408528D01*
X780528Y406566D01*
X782932Y405178D01*
X785612Y404460D01*
X788388D01*
X791068Y405178D01*
X793472Y406566D01*
X795434Y408528D01*
X796822Y410932D01*
X797540Y413612D01*
Y416388D01*
X796822Y419068D01*
X795434Y421472D01*
X793472Y423434D01*
X791068Y424822D01*
X788388Y425540D01*
D02*
G37*
G36*
Y400140D02*
X785612D01*
X782932Y399422D01*
X780528Y398034D01*
X778566Y396072D01*
X777178Y393668D01*
X776460Y390988D01*
Y388212D01*
X777178Y385532D01*
X778566Y383128D01*
X780528Y381166D01*
X782932Y379778D01*
X785612Y379060D01*
X788388D01*
X791068Y379778D01*
X793472Y381166D01*
X795434Y383128D01*
X796822Y385532D01*
X797540Y388212D01*
Y390988D01*
X796822Y393668D01*
X795434Y396072D01*
X793472Y398034D01*
X791068Y399422D01*
X788388Y400140D01*
D02*
G37*
G36*
X956080Y384580D02*
X947270D01*
Y375770D01*
X956080D01*
Y384580D01*
D02*
G37*
G36*
X944730D02*
X935920D01*
Y375770D01*
X944730D01*
Y384580D01*
D02*
G37*
G36*
X570903Y380540D02*
X569097D01*
X567428Y379849D01*
X566151Y378572D01*
X565460Y376903D01*
Y375097D01*
X566151Y373428D01*
X567428Y372151D01*
X569097Y371460D01*
X570903D01*
X572572Y372151D01*
X573849Y373428D01*
X574540Y375097D01*
Y376903D01*
X573849Y378572D01*
X572572Y379849D01*
X570903Y380540D01*
D02*
G37*
G36*
X788388Y374740D02*
X788270D01*
Y365470D01*
X797540D01*
Y365588D01*
X796822Y368268D01*
X795434Y370672D01*
X793472Y372634D01*
X791068Y374022D01*
X788388Y374740D01*
D02*
G37*
G36*
X785730D02*
X785612D01*
X782932Y374022D01*
X780528Y372634D01*
X778566Y370672D01*
X777178Y368268D01*
X776460Y365588D01*
Y365470D01*
X785730D01*
Y374740D01*
D02*
G37*
G36*
X956080Y373230D02*
X947270D01*
Y364420D01*
X956080D01*
Y373230D01*
D02*
G37*
G36*
X944730D02*
X935920D01*
Y364420D01*
X944730D01*
Y373230D01*
D02*
G37*
G36*
X494601Y367020D02*
X493399D01*
X492289Y366560D01*
X491440Y365711D01*
X490980Y364601D01*
Y363399D01*
X491440Y362289D01*
X492289Y361440D01*
X493399Y360980D01*
X494601D01*
X495711Y361440D01*
X496560Y362289D01*
X497020Y363399D01*
Y364601D01*
X496560Y365711D01*
X495711Y366560D01*
X494601Y367020D01*
D02*
G37*
G36*
X462601Y365020D02*
X461399D01*
X460289Y364560D01*
X459440Y363711D01*
X458980Y362601D01*
Y361399D01*
X459440Y360289D01*
X460289Y359440D01*
X461399Y358980D01*
X462601D01*
X463711Y359440D01*
X464560Y360289D01*
X465020Y361399D01*
Y362601D01*
X464560Y363711D01*
X463711Y364560D01*
X462601Y365020D01*
D02*
G37*
G36*
X797540Y362930D02*
X788270D01*
Y353660D01*
X788388D01*
X791068Y354378D01*
X793472Y355766D01*
X795434Y357728D01*
X796822Y360132D01*
X797540Y362812D01*
Y362930D01*
D02*
G37*
G36*
X785730D02*
X776460D01*
Y362812D01*
X777178Y360132D01*
X778566Y357728D01*
X780528Y355766D01*
X782932Y354378D01*
X785612Y353660D01*
X785730D01*
Y362930D01*
D02*
G37*
G36*
X922618Y374290D02*
X919382D01*
X916256Y373452D01*
X913454Y371834D01*
X911166Y369546D01*
X909548Y366744D01*
X908710Y363618D01*
Y360382D01*
X909548Y357256D01*
X911166Y354454D01*
X913454Y352166D01*
X916256Y350548D01*
X919382Y349710D01*
X922618D01*
X925744Y350548D01*
X928546Y352166D01*
X930835Y354454D01*
X932452Y357256D01*
X933290Y360382D01*
Y363618D01*
X932452Y366744D01*
X930835Y369546D01*
X928546Y371834D01*
X925744Y373452D01*
X922618Y374290D01*
D02*
G37*
G36*
X456613Y355406D02*
X455412D01*
X454302Y354946D01*
X453452Y354096D01*
X452992Y352986D01*
Y351785D01*
X453452Y350675D01*
X454302Y349825D01*
X455412Y349366D01*
X456613D01*
X457723Y349825D01*
X458573Y350675D01*
X459032Y351785D01*
Y352986D01*
X458573Y354096D01*
X457723Y354946D01*
X456613Y355406D01*
D02*
G37*
G36*
X508965Y347020D02*
X507763D01*
X506654Y346560D01*
X505804Y345711D01*
X505344Y344601D01*
Y343399D01*
X505804Y342289D01*
X506654Y341440D01*
X507377Y341140D01*
X507660Y339917D01*
X507645Y339759D01*
X507126Y338983D01*
X506931Y338000D01*
Y334000D01*
X507126Y333017D01*
X507683Y332183D01*
X508517Y331626D01*
X509500Y331431D01*
X512500D01*
X513483Y331626D01*
X514317Y332183D01*
X514874Y333017D01*
X515055Y333925D01*
X519804D01*
X520289Y333440D01*
X521399Y332980D01*
X522601D01*
X523711Y333440D01*
X524560Y334289D01*
X525020Y335399D01*
Y336601D01*
X524560Y337711D01*
X523711Y338560D01*
X522601Y339020D01*
X521399D01*
X520289Y338560D01*
X519804Y338075D01*
X515055D01*
X514874Y338983D01*
X514317Y339817D01*
X513483Y340374D01*
X512500Y340569D01*
X511001D01*
X510474Y341839D01*
X510924Y342289D01*
X511384Y343399D01*
Y344601D01*
X510924Y345711D01*
X510075Y346560D01*
X508965Y347020D01*
D02*
G37*
G36*
X375376Y340625D02*
X372396D01*
X369942Y340136D01*
X367861Y338746D01*
X366471Y336665D01*
X365983Y334211D01*
Y331731D01*
X375376D01*
Y340625D01*
D02*
G37*
G36*
Y329191D02*
X365983D01*
Y326711D01*
X366471Y324257D01*
X367861Y322176D01*
X369942Y320786D01*
X372396Y320298D01*
X375376D01*
Y329191D01*
D02*
G37*
G36*
X382271Y317847D02*
X380916D01*
Y311731D01*
X387282D01*
Y312836D01*
X386901Y314754D01*
X385815Y316380D01*
X384189Y317466D01*
X382271Y317847D01*
D02*
G37*
G36*
X378376D02*
X377021D01*
X375103Y317466D01*
X373478Y316380D01*
X372391Y314754D01*
X372010Y312836D01*
Y311731D01*
X378376D01*
Y317847D01*
D02*
G37*
G36*
X499601Y311020D02*
X498399D01*
X497289Y310560D01*
X496440Y309711D01*
X495980Y308601D01*
Y307399D01*
X496440Y306289D01*
X497289Y305440D01*
X498399Y304980D01*
X499601D01*
X500711Y305440D01*
X501560Y306289D01*
X502020Y307399D01*
Y308601D01*
X501560Y309711D01*
X500711Y310560D01*
X499601Y311020D01*
D02*
G37*
G36*
X387282Y309191D02*
X380916D01*
Y303075D01*
X382271D01*
X384189Y303456D01*
X385815Y304543D01*
X386901Y306168D01*
X387282Y308086D01*
Y309191D01*
D02*
G37*
G36*
X378376D02*
X372010D01*
Y308086D01*
X372391Y306168D01*
X373478Y304543D01*
X375103Y303456D01*
X377021Y303075D01*
X378376D01*
Y309191D01*
D02*
G37*
G36*
X380896Y340625D02*
X377916D01*
Y330461D01*
Y320298D01*
X380896D01*
X383350Y320786D01*
X385431Y322176D01*
X386821Y324257D01*
X387309Y326711D01*
X388533D01*
X388903Y324850D01*
X389318Y324229D01*
X389283Y324062D01*
X389055Y323271D01*
X388977Y323147D01*
X388704Y322861D01*
X387561Y322366D01*
X387414Y322215D01*
X387219Y322134D01*
X387132Y321923D01*
X386973Y321759D01*
X386977Y321548D01*
X386896Y321353D01*
Y317588D01*
X386960Y317434D01*
X386944Y317268D01*
X387116Y317058D01*
X387219Y316807D01*
X387374Y316744D01*
X387480Y316614D01*
X388576Y316028D01*
X389030Y315290D01*
X389096Y315138D01*
X389127Y314616D01*
X388823Y314161D01*
X388559Y312836D01*
Y308086D01*
X388823Y306762D01*
X389573Y305639D01*
X390696Y304888D01*
X392021Y304625D01*
X397271D01*
X398596Y304888D01*
X399001Y305159D01*
X399576Y305110D01*
X399895Y304957D01*
X400418Y304579D01*
X401006Y303480D01*
X401135Y303374D01*
X401199Y303219D01*
X401449Y303116D01*
X401659Y302943D01*
X401825Y302960D01*
X401979Y302896D01*
X410414D01*
X410668Y303001D01*
X410858D01*
X411765Y303377D01*
X412527D01*
X413434Y303001D01*
X413624D01*
X413878Y302896D01*
X420000D01*
X420781Y303219D01*
X421104Y304000D01*
Y339000D01*
X420781Y339781D01*
X420000Y340104D01*
X407789D01*
X407634Y340040D01*
X407468Y340056D01*
X407258Y339884D01*
X407008Y339781D01*
X406944Y339626D01*
X406815Y339520D01*
X406245Y338454D01*
X406198Y338412D01*
X405059Y337975D01*
X404838Y337982D01*
X403757Y338704D01*
X401896Y339075D01*
X393396D01*
X391535Y338704D01*
X389957Y337650D01*
X388903Y336072D01*
X388533Y334211D01*
X387309D01*
X386821Y336665D01*
X385431Y338746D01*
X383350Y340136D01*
X380896Y340625D01*
D02*
G37*
G36*
X871500Y303119D02*
X868500D01*
X866924Y302806D01*
X865587Y301913D01*
X864413D01*
X863076Y302806D01*
X861500Y303119D01*
X858500D01*
X856924Y302806D01*
X855587Y301913D01*
X854727Y300625D01*
X836796D01*
X836572Y300849D01*
X834903Y301540D01*
X833097D01*
X831428Y300849D01*
X830151Y299572D01*
X829460Y297903D01*
Y296097D01*
X830151Y294428D01*
X831428Y293151D01*
X833097Y292460D01*
X834903D01*
X836572Y293151D01*
X836796Y293375D01*
X854727D01*
X855587Y292087D01*
X856924Y291194D01*
X858500Y290881D01*
X858467Y289625D01*
X836796D01*
X836572Y289849D01*
X834903Y290540D01*
X833097D01*
X831428Y289849D01*
X830151Y288572D01*
X829460Y286903D01*
Y285097D01*
X830151Y283428D01*
X831428Y282151D01*
X833097Y281460D01*
X834903D01*
X836572Y282151D01*
X836796Y282375D01*
X858467D01*
X858500Y281119D01*
X856924Y280806D01*
X855587Y279913D01*
X854727Y278625D01*
X836796D01*
X836572Y278849D01*
X834903Y279540D01*
X833097D01*
X831428Y278849D01*
X830151Y277572D01*
X829460Y275903D01*
Y274097D01*
X830151Y272428D01*
X831428Y271151D01*
X833097Y270460D01*
X834903D01*
X836572Y271151D01*
X836796Y271375D01*
X854727D01*
X855587Y270087D01*
X856924Y269194D01*
X858500Y268881D01*
X861500D01*
X863076Y269194D01*
X864413Y270087D01*
X865587D01*
X866924Y269194D01*
X868500Y268881D01*
X871500D01*
X873076Y269194D01*
X874413Y270087D01*
X875273Y271375D01*
X877204D01*
X877428Y271151D01*
X879097Y270460D01*
X880903D01*
X882572Y271151D01*
X883849Y272428D01*
X884540Y274097D01*
Y275903D01*
X883849Y277572D01*
X882669Y278751D01*
X882680Y278841D01*
X883500Y279881D01*
X886500D01*
X888076Y280194D01*
X889413Y281087D01*
X890273Y282375D01*
X892204D01*
X892428Y282151D01*
X894097Y281460D01*
X895903D01*
X897572Y282151D01*
X898849Y283428D01*
X899540Y285097D01*
Y286903D01*
X898849Y288572D01*
X897572Y289849D01*
X895903Y290540D01*
X894097D01*
X892428Y289849D01*
X892204Y289625D01*
X890273D01*
X889413Y290913D01*
X888076Y291806D01*
X886500Y292119D01*
X883500D01*
X882680Y293159D01*
X882669Y293249D01*
X883849Y294428D01*
X884540Y296097D01*
Y297903D01*
X883849Y299572D01*
X882572Y300849D01*
X880903Y301540D01*
X879097D01*
X877428Y300849D01*
X877204Y300625D01*
X875273D01*
X874413Y301913D01*
X873076Y302806D01*
X871500Y303119D01*
D02*
G37*
G36*
X958993Y312540D02*
X957007D01*
X955090Y312026D01*
X953370Y311033D01*
X951966Y309630D01*
X950974Y307910D01*
X950460Y305993D01*
Y304007D01*
X950974Y302090D01*
X951966Y300370D01*
X953370Y298967D01*
X955090Y297974D01*
X957007Y297460D01*
X958993D01*
X960910Y297974D01*
X962630Y298967D01*
X964034Y300370D01*
X965026Y302090D01*
X965540Y304007D01*
Y305993D01*
X965026Y307910D01*
X964034Y309630D01*
X962630Y311033D01*
X960910Y312026D01*
X958993Y312540D01*
D02*
G37*
G36*
X136903Y298540D02*
X135097D01*
X133428Y297849D01*
X132151Y296572D01*
X131460Y294903D01*
Y293097D01*
X132151Y291428D01*
X133428Y290151D01*
X135097Y289460D01*
X136903D01*
X138572Y290151D01*
X139849Y291428D01*
X140540Y293097D01*
Y294903D01*
X139849Y296572D01*
X138572Y297849D01*
X136903Y298540D01*
D02*
G37*
G36*
X484000Y318104D02*
X442000D01*
X441219Y317781D01*
X440896Y317000D01*
Y282000D01*
X441219Y281219D01*
X442000Y280896D01*
X450742D01*
X450896Y280960D01*
X451062Y280944D01*
X451272Y281115D01*
X451523Y281219D01*
X451586Y281374D01*
X451716Y281479D01*
X452170Y282329D01*
X452544Y282511D01*
X453228Y282690D01*
X453545Y282722D01*
X453582Y282716D01*
X454446Y282138D01*
X455771Y281875D01*
X460521D01*
X461846Y282138D01*
X462969Y282889D01*
X463719Y284012D01*
X463983Y285336D01*
Y290586D01*
X463900Y290999D01*
X464469Y291744D01*
X464975Y292109D01*
X465033Y292103D01*
X466303Y292488D01*
X467065Y292235D01*
X467533Y291874D01*
Y286711D01*
X467903Y284850D01*
X468957Y283272D01*
X470535Y282218D01*
X472396Y281848D01*
Y280624D01*
X469942Y280136D01*
X467861Y278746D01*
X466580Y276829D01*
X465921Y276800D01*
X465258Y276963D01*
X465151Y277504D01*
X464064Y279130D01*
X462439Y280216D01*
X460521Y280597D01*
X459416D01*
Y272961D01*
Y265325D01*
X460521D01*
X462439Y265706D01*
X464064Y266793D01*
X464713Y267763D01*
X465983Y267378D01*
Y265711D01*
X466471Y263257D01*
X467861Y261176D01*
X469942Y259786D01*
X472396Y259298D01*
X474876D01*
Y269961D01*
X476146D01*
Y271231D01*
X486309D01*
Y274211D01*
X485821Y276665D01*
X484431Y278746D01*
X482350Y280136D01*
X479896Y280624D01*
Y281848D01*
X481757Y282218D01*
X483335Y283272D01*
X484389Y284850D01*
X484759Y286711D01*
Y295211D01*
X484389Y297072D01*
X483413Y298534D01*
X483409Y298937D01*
X483671Y299953D01*
X484520Y300407D01*
X484626Y300536D01*
X484781Y300600D01*
X484884Y300851D01*
X485056Y301061D01*
X485040Y301227D01*
X485104Y301381D01*
Y317000D01*
X484781Y317781D01*
X484000Y318104D01*
D02*
G37*
G36*
X456876Y280597D02*
X455771D01*
X453853Y280216D01*
X452228Y279130D01*
X451141Y277504D01*
X450760Y275586D01*
Y274231D01*
X456876D01*
Y280597D01*
D02*
G37*
G36*
X185903Y279540D02*
X184097D01*
X182428Y278849D01*
X181151Y277572D01*
X180460Y275903D01*
Y274097D01*
X181151Y272428D01*
X182428Y271151D01*
X184097Y270460D01*
X185903D01*
X187572Y271151D01*
X188849Y272428D01*
X189540Y274097D01*
Y275903D01*
X188849Y277572D01*
X187572Y278849D01*
X185903Y279540D01*
D02*
G37*
G36*
X456876Y271691D02*
X450760D01*
Y270336D01*
X451141Y268419D01*
X452228Y266793D01*
X453853Y265706D01*
X455771Y265325D01*
X456876D01*
Y271691D01*
D02*
G37*
G36*
X840903Y268540D02*
X839097D01*
X837428Y267849D01*
X836151Y266572D01*
X835460Y264903D01*
Y263097D01*
X836151Y261428D01*
X837428Y260151D01*
X839097Y259460D01*
X840903D01*
X842572Y260151D01*
X843849Y261428D01*
X844540Y263097D01*
Y264903D01*
X843849Y266572D01*
X842572Y267849D01*
X840903Y268540D01*
D02*
G37*
G36*
X486309Y268691D02*
X477416D01*
Y259298D01*
X479896D01*
X482350Y259786D01*
X484431Y261176D01*
X485821Y263257D01*
X486309Y265711D01*
Y268691D01*
D02*
G37*
G36*
X871500Y259119D02*
X868500D01*
X866924Y258806D01*
X865587Y257913D01*
X864413D01*
X863076Y258806D01*
X861500Y259119D01*
X858500D01*
X856924Y258806D01*
X855587Y257913D01*
X854727Y256625D01*
X836796D01*
X836572Y256849D01*
X834903Y257540D01*
X833097D01*
X831428Y256849D01*
X830151Y255572D01*
X829460Y253903D01*
Y252097D01*
X830151Y250428D01*
X831428Y249151D01*
X833097Y248460D01*
X834903D01*
X836572Y249151D01*
X836796Y249375D01*
X854727D01*
X855587Y248087D01*
X856924Y247194D01*
X858500Y246881D01*
X861500D01*
X863076Y247194D01*
X864413Y248087D01*
X865587D01*
X866924Y247194D01*
X868500Y246881D01*
X871500D01*
X873076Y247194D01*
X874413Y248087D01*
X875273Y249375D01*
X877204D01*
X877428Y249151D01*
X879097Y248460D01*
X880903D01*
X882572Y249151D01*
X883849Y250428D01*
X884324Y251577D01*
X884349Y251613D01*
X884357Y251656D01*
X884540Y252097D01*
Y252575D01*
X884625Y253000D01*
X884540Y253426D01*
Y253903D01*
X884357Y254344D01*
X884349Y254387D01*
X884324Y254423D01*
X883849Y255572D01*
X882572Y256849D01*
X880903Y257540D01*
X879097D01*
X877428Y256849D01*
X877204Y256625D01*
X875273D01*
X874413Y257913D01*
X873076Y258806D01*
X871500Y259119D01*
D02*
G37*
G36*
X258322Y246093D02*
X258270D01*
Y237323D01*
X267040D01*
Y237375D01*
X266356Y239929D01*
X265034Y242218D01*
X263165Y244087D01*
X260875Y245409D01*
X258322Y246093D01*
D02*
G37*
G36*
X98322D02*
X98270D01*
Y237323D01*
X107040D01*
Y237375D01*
X106356Y239929D01*
X105034Y242218D01*
X103165Y244087D01*
X100875Y245409D01*
X98322Y246093D01*
D02*
G37*
G36*
X235730D02*
X235678D01*
X233125Y245409D01*
X230835Y244087D01*
X228966Y242218D01*
X227644Y239929D01*
X226960Y237375D01*
Y237323D01*
X235730D01*
Y246093D01*
D02*
G37*
G36*
X886500Y237119D02*
X883500D01*
X881924Y236806D01*
X880587Y235913D01*
X879413D01*
X878076Y236806D01*
X876500Y237119D01*
X873500D01*
X871924Y236806D01*
X870587Y235913D01*
X869727Y234625D01*
X836796D01*
X836572Y234849D01*
X834903Y235540D01*
X833097D01*
X831428Y234849D01*
X830151Y233572D01*
X829460Y231903D01*
Y230097D01*
X830151Y228428D01*
X831428Y227151D01*
X833097Y226460D01*
X834903D01*
X836572Y227151D01*
X836796Y227375D01*
X858467D01*
X858500Y226119D01*
X856924Y225806D01*
X855587Y224913D01*
X854727Y223625D01*
X836796D01*
X836572Y223849D01*
X834903Y224540D01*
X833097D01*
X831428Y223849D01*
X830151Y222572D01*
X829460Y220903D01*
Y219097D01*
X830151Y217428D01*
X831428Y216151D01*
X833097Y215460D01*
X834903D01*
X836572Y216151D01*
X836796Y216375D01*
X854727D01*
X855587Y215087D01*
X856924Y214194D01*
X858500Y213881D01*
X861500D01*
X863076Y214194D01*
X864413Y215087D01*
X865587D01*
X866924Y214194D01*
X868500Y213881D01*
X871500D01*
X873076Y214194D01*
X874413Y215087D01*
X875273Y216375D01*
X877204D01*
X877428Y216151D01*
X879097Y215460D01*
X880903D01*
X882572Y216151D01*
X883849Y217428D01*
X884540Y219097D01*
Y220903D01*
X883849Y222572D01*
X882669Y223751D01*
X882680Y223841D01*
X883500Y224881D01*
X886500D01*
X888076Y225194D01*
X889413Y226087D01*
X890273Y227375D01*
X892204D01*
X892428Y227151D01*
X894097Y226460D01*
X895903D01*
X897572Y227151D01*
X898849Y228428D01*
X899324Y229577D01*
X899349Y229613D01*
X899357Y229656D01*
X899540Y230097D01*
Y230574D01*
X899625Y231000D01*
X899540Y231426D01*
Y231903D01*
X899357Y232344D01*
X899349Y232387D01*
X899324Y232423D01*
X898849Y233572D01*
X897572Y234849D01*
X895903Y235540D01*
X894097D01*
X892428Y234849D01*
X892204Y234625D01*
X890273D01*
X889413Y235913D01*
X888076Y236806D01*
X886500Y237119D01*
D02*
G37*
G36*
X958993Y232540D02*
X957007D01*
X955090Y232026D01*
X953370Y231033D01*
X951966Y229630D01*
X950974Y227910D01*
X950460Y225993D01*
Y224007D01*
X950974Y222090D01*
X951966Y220370D01*
X953370Y218967D01*
X955090Y217974D01*
X957007Y217460D01*
X958993D01*
X960910Y217974D01*
X962630Y218967D01*
X964034Y220370D01*
X965026Y222090D01*
X965540Y224007D01*
Y225993D01*
X965026Y227910D01*
X964034Y229630D01*
X962630Y231033D01*
X960910Y232026D01*
X958993Y232540D01*
D02*
G37*
G36*
X696142Y176663D02*
X688122D01*
Y172393D01*
X696142D01*
Y176663D01*
D02*
G37*
G36*
X685582D02*
X677562D01*
Y172393D01*
X685582D01*
Y176663D01*
D02*
G37*
G36*
X696142Y169853D02*
X688122D01*
Y165583D01*
X696142D01*
Y169853D01*
D02*
G37*
G36*
X685582D02*
X677562D01*
Y165583D01*
X685582D01*
Y169853D01*
D02*
G37*
G36*
X927903Y137540D02*
X926097D01*
X924428Y136849D01*
X923151Y135572D01*
X922460Y133903D01*
Y132097D01*
X923151Y130428D01*
X924428Y129151D01*
X926097Y128460D01*
X927903D01*
X929572Y129151D01*
X930849Y130428D01*
X931540Y132097D01*
Y133903D01*
X930849Y135572D01*
X929572Y136849D01*
X927903Y137540D01*
D02*
G37*
G36*
X904903D02*
X903097D01*
X901428Y136849D01*
X900151Y135572D01*
X899460Y133903D01*
Y132097D01*
X900151Y130428D01*
X901428Y129151D01*
X903097Y128460D01*
X904903D01*
X906572Y129151D01*
X907849Y130428D01*
X908540Y132097D01*
Y133903D01*
X907849Y135572D01*
X906572Y136849D01*
X904903Y137540D01*
D02*
G37*
G36*
X296403Y78966D02*
X294597D01*
X292928Y78275D01*
X291651Y76998D01*
X290960Y75329D01*
Y73523D01*
X291651Y71855D01*
X292928Y70578D01*
X294597Y69886D01*
X296403D01*
X298072Y70578D01*
X299349Y71855D01*
X300040Y73523D01*
Y75329D01*
X299349Y76998D01*
X298072Y78275D01*
X296403Y78966D01*
D02*
G37*
G36*
X136903D02*
X135097D01*
X133428Y78275D01*
X132151Y76998D01*
X131460Y75329D01*
Y73523D01*
X132151Y71855D01*
X133428Y70578D01*
X135097Y69886D01*
X136903D01*
X138572Y70578D01*
X139849Y71855D01*
X140540Y73523D01*
Y75329D01*
X139849Y76998D01*
X138572Y78275D01*
X136903Y78966D01*
D02*
G37*
G36*
X971317Y85000D02*
X968683D01*
X966140Y84319D01*
X963860Y83002D01*
X961998Y81140D01*
X960682Y78860D01*
X960000Y76316D01*
Y73684D01*
X960682Y71140D01*
X961998Y68860D01*
X963860Y66998D01*
X966140Y65682D01*
X968683Y65000D01*
X971317D01*
X973860Y65682D01*
X976140Y66998D01*
X978002Y68860D01*
X979318Y71140D01*
X980000Y73684D01*
Y76316D01*
X979318Y78860D01*
X978002Y81140D01*
X976140Y83002D01*
X973860Y84319D01*
X971317Y85000D01*
D02*
G37*
G36*
X31316Y83000D02*
X28684D01*
X26140Y82318D01*
X23860Y81002D01*
X21998Y79140D01*
X20682Y76860D01*
X20000Y74317D01*
Y71684D01*
X20682Y69140D01*
X21998Y66860D01*
X23860Y64998D01*
X26140Y63682D01*
X28684Y63000D01*
X31316D01*
X33860Y63682D01*
X36140Y64998D01*
X38002Y66860D01*
X39318Y69140D01*
X40000Y71684D01*
Y74317D01*
X39318Y76860D01*
X38002Y79140D01*
X36140Y81002D01*
X33860Y82318D01*
X31316Y83000D01*
D02*
G37*
G36*
X345403Y59966D02*
X343597D01*
X341928Y59275D01*
X340651Y57998D01*
X339960Y56329D01*
Y54523D01*
X340651Y52855D01*
X341928Y51578D01*
X343597Y50886D01*
X345403D01*
X347072Y51578D01*
X348349Y52855D01*
X349040Y54523D01*
Y56329D01*
X348349Y57998D01*
X347072Y59275D01*
X345403Y59966D01*
D02*
G37*
G36*
X185903D02*
X184097D01*
X182428Y59275D01*
X181151Y57998D01*
X180460Y56329D01*
Y54523D01*
X181151Y52855D01*
X182428Y51578D01*
X184097Y50886D01*
X185903D01*
X187572Y51578D01*
X188849Y52855D01*
X189540Y54523D01*
Y56329D01*
X188849Y57998D01*
X187572Y59275D01*
X185903Y59966D01*
D02*
G37*
G36*
X933728Y67540D02*
X930273D01*
X926884Y66866D01*
X923692Y65544D01*
X920819Y63624D01*
X918376Y61181D01*
X916456Y58309D01*
X915134Y55116D01*
X914460Y51728D01*
Y48273D01*
X915134Y44884D01*
X916456Y41692D01*
X918376Y38819D01*
X920819Y36376D01*
X923692Y34457D01*
X926884Y33134D01*
X930273Y32460D01*
X933728D01*
X937116Y33134D01*
X940308Y34457D01*
X943181Y36376D01*
X945624Y38819D01*
X947544Y41692D01*
X948866Y44884D01*
X949540Y48273D01*
Y51728D01*
X948866Y55116D01*
X947544Y58309D01*
X945624Y61181D01*
X943181Y63624D01*
X940308Y65544D01*
X937116Y66866D01*
X933728Y67540D01*
D02*
G37*
G36*
X468728D02*
X465273D01*
X461884Y66866D01*
X458692Y65544D01*
X455819Y63624D01*
X453376Y61181D01*
X451456Y58309D01*
X450134Y55116D01*
X449460Y51728D01*
Y48273D01*
X450134Y44884D01*
X451456Y41692D01*
X453376Y38819D01*
X455819Y36376D01*
X458692Y34457D01*
X461884Y33134D01*
X465273Y32460D01*
X468728D01*
X472116Y33134D01*
X475308Y34457D01*
X478181Y36376D01*
X480624Y38819D01*
X482544Y41692D01*
X483866Y44884D01*
X484540Y48273D01*
Y51728D01*
X483866Y55116D01*
X482544Y58309D01*
X480624Y61181D01*
X478181Y63624D01*
X475308Y65544D01*
X472116Y66866D01*
X468728Y67540D01*
D02*
G37*
%LPD*%
G36*
X643000Y702000D02*
X622000D01*
Y843000D01*
X521430D01*
X520759Y844270D01*
X521020Y844899D01*
Y846101D01*
X520560Y847211D01*
X519711Y848060D01*
X518601Y848520D01*
X517399D01*
X516289Y848060D01*
X515440Y847211D01*
X514980Y846101D01*
Y844899D01*
X515241Y844270D01*
X514570Y843000D01*
X506430D01*
X505759Y844270D01*
X506020Y844899D01*
Y846101D01*
X505560Y847211D01*
X504711Y848060D01*
X503601Y848520D01*
X502399D01*
X501289Y848060D01*
X500440Y847211D01*
X499980Y846101D01*
Y844899D01*
X500241Y844270D01*
X499570Y843000D01*
X493000D01*
Y702000D01*
X472000D01*
Y866000D01*
X643000D01*
Y702000D01*
D02*
G37*
G36*
X652017Y604357D02*
Y600985D01*
X651700Y600922D01*
X650866Y600365D01*
X650309Y599532D01*
X650113Y598548D01*
Y594548D01*
X650309Y593565D01*
X650866Y592732D01*
X651700Y592175D01*
X652683Y591979D01*
X655683D01*
X656666Y592175D01*
X657499Y592732D01*
X657600Y592882D01*
X658094Y592917D01*
X659032Y592740D01*
X659770Y591636D01*
X661106Y590743D01*
X662683Y590429D01*
X665683D01*
X665785Y590345D01*
Y590026D01*
X666476Y588357D01*
X667753Y587080D01*
X669422Y586389D01*
X671228D01*
X672896Y587080D01*
X674174Y588357D01*
X674553Y588433D01*
X678890Y584095D01*
Y562288D01*
X675283Y558681D01*
X674110Y559167D01*
Y562689D01*
X674849Y563428D01*
X675540Y565097D01*
Y566903D01*
X674849Y568572D01*
X673572Y569849D01*
X672452Y570313D01*
Y571687D01*
X673572Y572151D01*
X674849Y573428D01*
X675540Y575097D01*
Y576903D01*
X674849Y578572D01*
X673572Y579849D01*
X671903Y580540D01*
X670097D01*
X669591Y580330D01*
X668878Y581397D01*
X667542Y582290D01*
X665966Y582603D01*
X662966D01*
X661389Y582290D01*
X660053Y581397D01*
X659315Y580293D01*
X658377Y580115D01*
X657883Y580150D01*
X657783Y580301D01*
X656949Y580858D01*
X655966Y581053D01*
X652966D01*
X651982Y580858D01*
X651149Y580301D01*
X650592Y579467D01*
X650396Y578484D01*
Y574751D01*
X645070Y569425D01*
X643948D01*
X642838Y568965D01*
X641989Y568115D01*
X641529Y567005D01*
Y565804D01*
X641989Y564694D01*
X642838Y563844D01*
X643948Y563385D01*
X645150D01*
X646260Y563844D01*
X647109Y564694D01*
X647569Y565804D01*
Y566055D01*
X653428Y571914D01*
X655966D01*
X656949Y572110D01*
X657783Y572667D01*
X657883Y572818D01*
X658377Y572852D01*
X659315Y572675D01*
X660053Y571571D01*
X661356Y570701D01*
Y556754D01*
X653761Y549159D01*
X653087Y548150D01*
X652850Y546960D01*
X653087Y545770D01*
X653761Y544761D01*
X654304Y544398D01*
Y535646D01*
X642314Y523656D01*
X640000D01*
Y548651D01*
X640054Y548925D01*
X642383D01*
X642797Y548511D01*
X643907Y548051D01*
X645108D01*
X646218Y548511D01*
X647068Y549361D01*
X647527Y550471D01*
Y551672D01*
X647068Y552782D01*
X646218Y553632D01*
X645108Y554091D01*
X643907D01*
X642797Y553632D01*
X642240Y553075D01*
X640054D01*
X640000Y553349D01*
Y594000D01*
X650843Y604843D01*
X652017Y604357D01*
D02*
G37*
G36*
X849000Y628000D02*
X872000Y605000D01*
Y516000D01*
X847000Y491000D01*
X736000D01*
Y605000D01*
Y619118D01*
X737270Y619797D01*
X737424Y619694D01*
X739000Y619381D01*
X739730D01*
Y625000D01*
X742270D01*
Y619381D01*
X743000D01*
X744576Y619694D01*
X745913Y620587D01*
X746439Y621375D01*
X749561D01*
X750087Y620587D01*
X751424Y619694D01*
X753000Y619381D01*
X753730D01*
Y625000D01*
X756270D01*
Y619381D01*
X757000D01*
X758576Y619694D01*
X759913Y620587D01*
X760606Y621625D01*
X762961D01*
X763325Y619796D01*
X764715Y617715D01*
X766796Y616325D01*
X769250Y615837D01*
X771730D01*
Y626500D01*
X773000D01*
Y627770D01*
X783163D01*
Y629000D01*
X849000D01*
Y628000D01*
D02*
G37*
%LPC*%
G36*
X783163Y625230D02*
X774270D01*
Y615837D01*
X776750D01*
X779204Y616325D01*
X781285Y617715D01*
X782675Y619796D01*
X783163Y622250D01*
Y625230D01*
D02*
G37*
G36*
X822722Y614240D02*
X820078D01*
X817525Y613556D01*
X815235Y612234D01*
X813366Y610365D01*
X812044Y608075D01*
X811360Y605522D01*
Y602878D01*
X812044Y600325D01*
X813366Y598035D01*
X815235Y596166D01*
X817525Y594844D01*
X820078Y594160D01*
X822722D01*
X825275Y594844D01*
X827565Y596166D01*
X829434Y598035D01*
X830756Y600325D01*
X831440Y602878D01*
Y605522D01*
X830756Y608075D01*
X829434Y610365D01*
X827565Y612234D01*
X825275Y613556D01*
X822722Y614240D01*
D02*
G37*
G36*
X848122Y601540D02*
X845478D01*
X842925Y600856D01*
X840635Y599534D01*
X838766Y597665D01*
X837444Y595375D01*
X836760Y592822D01*
Y590178D01*
X837444Y587625D01*
X838766Y585335D01*
X840635Y583466D01*
X842925Y582144D01*
X845478Y581460D01*
X848122D01*
X850675Y582144D01*
X852965Y583466D01*
X854834Y585335D01*
X856156Y587625D01*
X856840Y590178D01*
Y592822D01*
X856156Y595375D01*
X854834Y597665D01*
X852965Y599534D01*
X850675Y600856D01*
X848122Y601540D01*
D02*
G37*
G36*
X822522Y587320D02*
X820278D01*
X818111Y586739D01*
X816169Y585618D01*
X814582Y584031D01*
X813461Y582089D01*
X812880Y579922D01*
Y577678D01*
X813461Y575511D01*
X814582Y573569D01*
X816169Y571982D01*
X818111Y570861D01*
X820278Y570280D01*
X822522D01*
X824689Y570861D01*
X826631Y571982D01*
X828218Y573569D01*
X829339Y575511D01*
X829920Y577678D01*
Y579922D01*
X829339Y582089D01*
X828218Y584031D01*
X826631Y585618D01*
X824689Y586739D01*
X822522Y587320D01*
D02*
G37*
G36*
X848122Y576140D02*
X848070D01*
Y567370D01*
X856840D01*
Y567422D01*
X856156Y569975D01*
X854834Y572265D01*
X852965Y574134D01*
X850675Y575456D01*
X848122Y576140D01*
D02*
G37*
G36*
X845530D02*
X845478D01*
X842925Y575456D01*
X840635Y574134D01*
X838766Y572265D01*
X837444Y569975D01*
X836760Y567422D01*
Y567370D01*
X845530D01*
Y576140D01*
D02*
G37*
G36*
X856840Y564830D02*
X848070D01*
Y556060D01*
X848122D01*
X850675Y556744D01*
X852965Y558066D01*
X854834Y559935D01*
X856156Y562225D01*
X856840Y564778D01*
Y564830D01*
D02*
G37*
G36*
X845530D02*
X836760D01*
Y564778D01*
X837444Y562225D01*
X838766Y559935D01*
X840635Y558066D01*
X842925Y556744D01*
X845478Y556060D01*
X845530D01*
Y564830D01*
D02*
G37*
G36*
X822722Y563440D02*
X822670D01*
Y554670D01*
X831440D01*
Y554722D01*
X830756Y557275D01*
X829434Y559565D01*
X827565Y561434D01*
X825275Y562756D01*
X822722Y563440D01*
D02*
G37*
G36*
X820130D02*
X820078D01*
X817525Y562756D01*
X815235Y561434D01*
X813366Y559565D01*
X812044Y557275D01*
X811360Y554722D01*
Y554670D01*
X820130D01*
Y563440D01*
D02*
G37*
G36*
X831440Y552130D02*
X822670D01*
Y543360D01*
X822722D01*
X825275Y544044D01*
X827565Y545366D01*
X829434Y547235D01*
X830756Y549525D01*
X831440Y552078D01*
Y552130D01*
D02*
G37*
G36*
X820130D02*
X811360D01*
Y552078D01*
X812044Y549525D01*
X813366Y547235D01*
X815235Y545366D01*
X817525Y544044D01*
X820078Y543360D01*
X820130D01*
Y552130D01*
D02*
G37*
G36*
X847922Y549220D02*
X845678D01*
X843511Y548639D01*
X841569Y547518D01*
X839982Y545931D01*
X838861Y543989D01*
X838280Y541822D01*
Y539578D01*
X838861Y537411D01*
X839982Y535469D01*
X841569Y533882D01*
X843511Y532761D01*
X845678Y532180D01*
X847922D01*
X850089Y532761D01*
X852031Y533882D01*
X853618Y535469D01*
X854739Y537411D01*
X855320Y539578D01*
Y541822D01*
X854739Y543989D01*
X853618Y545931D01*
X852031Y547518D01*
X850089Y548639D01*
X847922Y549220D01*
D02*
G37*
G36*
X822522Y536520D02*
X820278D01*
X818111Y535939D01*
X816169Y534818D01*
X814582Y533231D01*
X813461Y531289D01*
X812880Y529122D01*
Y526878D01*
X813461Y524711D01*
X814582Y522769D01*
X816169Y521182D01*
X818111Y520061D01*
X820278Y519480D01*
X822522D01*
X824689Y520061D01*
X826631Y521182D01*
X828218Y522769D01*
X829339Y524711D01*
X829920Y526878D01*
Y529122D01*
X829339Y531289D01*
X828218Y533231D01*
X826631Y534818D01*
X824689Y535939D01*
X822522Y536520D01*
D02*
G37*
G36*
X855320Y523820D02*
X838280D01*
Y506780D01*
X855320D01*
Y523820D01*
D02*
G37*
%LPD*%
G36*
X73094Y386722D02*
X73159Y386446D01*
Y385674D01*
X73094Y385398D01*
X70835Y384094D01*
X68966Y382225D01*
X67644Y379935D01*
X66960Y377382D01*
Y377330D01*
X77000D01*
Y374790D01*
X66960D01*
Y374738D01*
X67644Y372185D01*
X68966Y369895D01*
X70835Y368026D01*
X73094Y366722D01*
X73159Y366446D01*
Y365674D01*
X73094Y365398D01*
X70835Y364094D01*
X68966Y362225D01*
X67644Y359935D01*
X66960Y357382D01*
Y354738D01*
X67644Y352185D01*
X68966Y349895D01*
X70835Y348026D01*
X73094Y346722D01*
X73159Y346446D01*
Y345674D01*
X73094Y345398D01*
X70835Y344094D01*
X68966Y342225D01*
X67644Y339935D01*
X66960Y337382D01*
Y337330D01*
X77000D01*
Y334790D01*
X66960D01*
Y334738D01*
X67319Y333398D01*
X66180Y332741D01*
X63145Y335777D01*
Y379577D01*
X71316Y387748D01*
X73094Y386722D01*
D02*
G37*
G36*
X111890Y416772D02*
Y298288D01*
X108288Y294686D01*
X107040Y295234D01*
Y297382D01*
X106356Y299935D01*
X105034Y302225D01*
X103165Y304094D01*
X100906Y305398D01*
X100841Y305674D01*
Y306446D01*
X100906Y306722D01*
X103165Y308026D01*
X105034Y309895D01*
X106356Y312185D01*
X107040Y314738D01*
Y317382D01*
X106356Y319935D01*
X105034Y322225D01*
X103165Y324094D01*
X100906Y325398D01*
X100841Y325674D01*
Y326446D01*
X100906Y326722D01*
X103165Y328026D01*
X105034Y329895D01*
X106356Y332185D01*
X107040Y334738D01*
Y334790D01*
X97000D01*
Y337330D01*
X107040D01*
Y337382D01*
X106356Y339935D01*
X105034Y342225D01*
X103165Y344094D01*
X100906Y345398D01*
X100841Y345674D01*
Y346446D01*
X100906Y346722D01*
X103165Y348026D01*
X105034Y349895D01*
X106356Y352185D01*
X107040Y354738D01*
Y357382D01*
X106356Y359935D01*
X105034Y362225D01*
X103165Y364094D01*
X100906Y365398D01*
X100841Y365674D01*
Y366446D01*
X100906Y366722D01*
X103165Y368026D01*
X105034Y369895D01*
X106356Y372185D01*
X107040Y374738D01*
Y374790D01*
X97000D01*
Y377330D01*
X107040D01*
Y377382D01*
X106356Y379935D01*
X105034Y382225D01*
X103165Y384094D01*
X100906Y385398D01*
X100841Y385674D01*
Y386446D01*
X100906Y386722D01*
X103165Y388026D01*
X105034Y389895D01*
X106356Y392185D01*
X107040Y394738D01*
Y394790D01*
X97000D01*
Y397330D01*
X107040D01*
Y397382D01*
X106356Y399935D01*
X105034Y402225D01*
X103165Y404094D01*
X100906Y405398D01*
X100841Y405674D01*
Y406446D01*
X100906Y406722D01*
X103165Y408026D01*
X105034Y409895D01*
X106356Y412185D01*
X107040Y414738D01*
Y417382D01*
X106356Y419935D01*
X105570Y421296D01*
X106587Y422076D01*
X111890Y416772D01*
D02*
G37*
G36*
X420000Y304000D02*
X413878D01*
X413857Y304021D01*
X412747Y304481D01*
X411545D01*
X410435Y304021D01*
X410414Y304000D01*
X401979D01*
X401301Y305270D01*
X401901Y306168D01*
X402282Y308086D01*
Y309191D01*
X394646D01*
Y310461D01*
X393376D01*
Y317847D01*
X392021D01*
X390103Y317466D01*
X389270Y316909D01*
X388000Y317588D01*
Y321353D01*
X389270Y321903D01*
X390942Y320786D01*
X393396Y320298D01*
X396376D01*
Y330461D01*
X397646D01*
Y331731D01*
X408309D01*
Y334211D01*
X407821Y336665D01*
X407110Y337730D01*
X407789Y339000D01*
X420000D01*
Y304000D01*
D02*
G37*
%LPC*%
G36*
X408309Y329191D02*
X398916D01*
Y320298D01*
X401896D01*
X404350Y320786D01*
X406431Y322176D01*
X407821Y324257D01*
X408309Y326711D01*
Y329191D01*
D02*
G37*
G36*
X412747Y323481D02*
X411545D01*
X410435Y323022D01*
X409586Y322172D01*
X409126Y321062D01*
Y319860D01*
X409586Y318750D01*
X410435Y317901D01*
X411545Y317441D01*
X412747D01*
X413857Y317901D01*
X414706Y318750D01*
X415166Y319860D01*
Y321062D01*
X414706Y322172D01*
X413857Y323022D01*
X412747Y323481D01*
D02*
G37*
G36*
X397271Y317847D02*
X395916D01*
Y311731D01*
X402282D01*
Y312836D01*
X401901Y314754D01*
X400815Y316380D01*
X399189Y317466D01*
X397271Y317847D01*
D02*
G37*
%LPD*%
G36*
X484000Y301381D02*
X482880Y300782D01*
X482350Y301136D01*
X479896Y301624D01*
X477416D01*
Y290961D01*
X474876D01*
Y301624D01*
X472396D01*
X469942Y301136D01*
X467861Y299746D01*
X466471Y297665D01*
X465983Y295211D01*
Y293545D01*
X464713Y293160D01*
X464064Y294130D01*
X462439Y295216D01*
X460521Y295597D01*
X459416D01*
Y287961D01*
X458146D01*
Y286691D01*
X450760D01*
Y285336D01*
X451141Y283419D01*
X451341Y283120D01*
X450742Y282000D01*
X442000D01*
Y317000D01*
X484000D01*
Y301381D01*
D02*
G37*
%LPC*%
G36*
X448747Y311481D02*
X447545D01*
X446435Y311021D01*
X445586Y310172D01*
X445126Y309062D01*
Y307861D01*
X445586Y306751D01*
X446435Y305901D01*
X447545Y305441D01*
X448747D01*
X449857Y305901D01*
X450706Y306751D01*
X451166Y307861D01*
Y309062D01*
X450706Y310172D01*
X449857Y311021D01*
X448747Y311481D01*
D02*
G37*
G36*
X454747Y305481D02*
X453545D01*
X452435Y305021D01*
X451586Y304172D01*
X451126Y303062D01*
Y301861D01*
X451586Y300751D01*
X452435Y299901D01*
X453545Y299441D01*
X454747D01*
X455857Y299901D01*
X456706Y300751D01*
X457166Y301861D01*
Y303062D01*
X456706Y304172D01*
X455857Y305021D01*
X454747Y305481D01*
D02*
G37*
G36*
X456876Y295597D02*
X455771D01*
X453853Y295216D01*
X452228Y294130D01*
X451141Y292504D01*
X450760Y290586D01*
Y289231D01*
X456876D01*
Y295597D01*
D02*
G37*
%LPD*%
D22*
X499000Y812430D02*
D03*
X616000Y754500D02*
D03*
X499000Y802609D02*
D03*
X616000Y742375D02*
D03*
X499000Y790875D02*
D03*
Y718125D02*
D03*
X616000Y803000D02*
D03*
Y766625D02*
D03*
Y778750D02*
D03*
X499000Y730250D02*
D03*
X616000Y706000D02*
D03*
X499000D02*
D03*
X616000Y718125D02*
D03*
X499000Y742375D02*
D03*
X616000Y730250D02*
D03*
X499000Y766625D02*
D03*
Y754500D02*
D03*
X616000Y790875D02*
D03*
X499000Y778750D02*
D03*
X696852Y209000D02*
D03*
X686852D02*
D03*
X663000D02*
D03*
X653000D02*
D03*
X636000Y551000D02*
D03*
X626000D02*
D03*
X635000Y522000D02*
D03*
X625000D02*
D03*
X664183Y596548D02*
D03*
X654183D02*
D03*
X664466Y576484D02*
D03*
X654466D02*
D03*
X664000Y506000D02*
D03*
X654000D02*
D03*
X722000Y681000D02*
D03*
X712000D02*
D03*
X489000Y706000D02*
D03*
Y730250D02*
D03*
Y742375D02*
D03*
Y802609D02*
D03*
X476000Y838760D02*
D03*
X466000D02*
D03*
X476000Y821086D02*
D03*
X466000D02*
D03*
X476000Y803000D02*
D03*
X466000D02*
D03*
Y754000D02*
D03*
X476000D02*
D03*
X466000Y730000D02*
D03*
X476000D02*
D03*
X466000Y706000D02*
D03*
X476000D02*
D03*
X626000Y742375D02*
D03*
Y730250D02*
D03*
Y718125D02*
D03*
X649000Y706000D02*
D03*
X639000D02*
D03*
X649000Y730250D02*
D03*
X639000D02*
D03*
X649000Y754500D02*
D03*
X639000D02*
D03*
X626000Y766625D02*
D03*
Y803000D02*
D03*
Y778750D02*
D03*
X649000Y821086D02*
D03*
X639000D02*
D03*
X649000Y838760D02*
D03*
X639000D02*
D03*
X501000Y336000D02*
D03*
X511000D02*
D03*
X489000Y812430D02*
D03*
X626000Y706000D02*
D03*
Y790875D02*
D03*
Y754500D02*
D03*
X489000Y766625D02*
D03*
Y754500D02*
D03*
Y718125D02*
D03*
Y778750D02*
D03*
X639000Y778750D02*
D03*
X649000D02*
D03*
X476000Y779000D02*
D03*
X466000D02*
D03*
X639000Y803000D02*
D03*
X649000D02*
D03*
X654466Y490000D02*
D03*
X664466D02*
D03*
X489000Y790875D02*
D03*
X885000Y231000D02*
D03*
X875000D02*
D03*
X870000Y220000D02*
D03*
X860000D02*
D03*
X870000Y297000D02*
D03*
X860000D02*
D03*
X870000Y253000D02*
D03*
X860000D02*
D03*
X870000Y275000D02*
D03*
X860000D02*
D03*
X885000Y286000D02*
D03*
X875000D02*
D03*
D24*
X538333Y838000D02*
D03*
X563000D02*
D03*
X526000D02*
D03*
X605000Y754000D02*
D03*
X550667Y838000D02*
D03*
X649000Y241000D02*
D03*
Y231000D02*
D03*
X663000Y241000D02*
D03*
Y231000D02*
D03*
X682565Y241000D02*
D03*
Y231000D02*
D03*
X696852Y241000D02*
D03*
Y231000D02*
D03*
X724000Y199000D02*
D03*
Y209000D02*
D03*
X522000Y581367D02*
D03*
Y591367D02*
D03*
X539974Y581557D02*
D03*
Y591557D02*
D03*
X556180Y581694D02*
D03*
Y591694D02*
D03*
X572000Y581649D02*
D03*
Y591649D02*
D03*
X587957Y581649D02*
D03*
Y591649D02*
D03*
X604969Y581609D02*
D03*
Y591609D02*
D03*
X516000Y557000D02*
D03*
Y567000D02*
D03*
X540000Y568000D02*
D03*
Y558000D02*
D03*
X572000Y568000D02*
D03*
Y558000D02*
D03*
X605000Y563000D02*
D03*
Y573000D02*
D03*
X588000Y563000D02*
D03*
Y573000D02*
D03*
X556000Y563000D02*
D03*
Y573000D02*
D03*
X588000Y541000D02*
D03*
Y551000D02*
D03*
X572000Y549000D02*
D03*
Y539000D02*
D03*
X540000Y549000D02*
D03*
Y539000D02*
D03*
X556000Y549000D02*
D03*
Y539000D02*
D03*
X524000D02*
D03*
Y549000D02*
D03*
X508000Y539000D02*
D03*
Y549000D02*
D03*
X491000Y583000D02*
D03*
Y593000D02*
D03*
X523000Y517000D02*
D03*
Y527000D02*
D03*
X540000Y517000D02*
D03*
Y527000D02*
D03*
X556000D02*
D03*
Y517000D02*
D03*
X524000Y494000D02*
D03*
Y504000D02*
D03*
X540000Y484000D02*
D03*
Y494000D02*
D03*
X572000Y527000D02*
D03*
Y517000D02*
D03*
X741000Y625000D02*
D03*
Y635000D02*
D03*
X755000Y625000D02*
D03*
Y635000D02*
D03*
X392000Y600000D02*
D03*
Y590000D02*
D03*
X550667Y848000D02*
D03*
X563000D02*
D03*
X508000Y872000D02*
D03*
Y862000D02*
D03*
X603953Y872000D02*
D03*
Y862000D02*
D03*
X392000Y620811D02*
D03*
Y610811D02*
D03*
X695500Y524000D02*
D03*
Y534000D02*
D03*
X526000Y848000D02*
D03*
X538333D02*
D03*
X605000Y744000D02*
D03*
X556000Y775000D02*
D03*
Y765000D02*
D03*
D28*
X580500Y448000D02*
D03*
X595500D02*
D03*
X379646Y310461D02*
D03*
X394646D02*
D03*
D30*
X458146Y272961D02*
D03*
Y287961D02*
D03*
D31*
X773000Y626500D02*
D03*
Y647500D02*
D03*
X476146Y290961D02*
D03*
Y269961D02*
D03*
D94*
X30000Y73000D02*
D03*
X970000Y75000D02*
D03*
X940000Y987000D02*
D03*
D95*
X59000Y381294D02*
X73766Y396060D01*
X59000Y334060D02*
Y381294D01*
X73766Y396060D02*
X77000D01*
X59000Y334060D02*
X77000Y316060D01*
X609447Y473096D02*
X620904D01*
X621000Y473000D01*
X596314Y742708D02*
X596513Y742908D01*
X603908D01*
X605000Y744000D01*
X596057Y742708D02*
X596314D01*
X532182Y491318D02*
X539500Y484000D01*
X532182Y491318D02*
Y493818D01*
X532000Y494000D02*
X532182Y493818D01*
X524000Y494000D02*
X532000D01*
X556818Y517818D02*
X579818D01*
X580000Y518000D01*
X564182Y526182D02*
X579818D01*
X580000Y526000D01*
X564000D02*
X564182Y526182D01*
X555500Y527000D02*
X556318Y526182D01*
X563818D01*
X564000Y526000D01*
X556000Y517000D02*
X556818Y517818D01*
X587818D02*
X588000Y518000D01*
X580000Y526000D02*
X588000Y518000D01*
X555000Y591000D02*
X555818Y590182D01*
X563818D01*
X548182Y573818D02*
X556818D01*
X522752Y549268D02*
X524227Y547793D01*
X522752Y548252D02*
Y549268D01*
X604182Y581818D02*
X605000Y581000D01*
X588000D02*
X588818Y581818D01*
X587182D02*
X588000Y581000D01*
X555818Y581818D02*
X563818D01*
X571182D02*
X572000Y581000D01*
X572818Y581818D01*
X580182Y550182D02*
X595818D01*
X548182Y549818D02*
X563818D01*
X539182Y581818D02*
X540000Y581000D01*
X540818Y581818D01*
X522000Y581000D02*
X522818Y581818D01*
X524000Y539000D02*
X524500D01*
X523500D02*
X524000D01*
X520111Y535611D02*
X523500Y539000D01*
X512817Y535611D02*
X520111D01*
X509428Y539000D02*
X512817Y535611D01*
X508000Y539000D02*
X509428D01*
X515000Y556000D02*
X526221D01*
X179895Y711000D02*
X331000D01*
X152764Y738130D02*
X179895Y711000D01*
X516000Y566000D02*
X524000D01*
X524000Y566000D01*
X532000Y558000D01*
X539500Y484000D02*
X540000D01*
Y494000D02*
Y502000D01*
X524498Y502502D02*
Y503002D01*
X525973Y504477D02*
X526473D01*
X531991Y509996D02*
X531996D01*
X524498Y503002D02*
X525973Y504477D01*
X526473D02*
X531991Y509996D01*
X548000Y558000D02*
X548257D01*
X540000D02*
X548000D01*
X532097Y525726D02*
X538726D01*
X524274D02*
X532097D01*
X595818Y550182D02*
X596000Y550000D01*
X496318Y597818D02*
X499818D01*
X491000Y593000D02*
X491500D01*
X496318Y597818D01*
X499818D02*
X500000Y598000D01*
X532182Y549818D02*
X539182D01*
X532000Y550000D02*
X532182Y549818D01*
X539182D02*
X540000Y549000D01*
X526221Y556000D02*
X532000Y550220D01*
Y550000D02*
Y550220D01*
X591762Y566000D02*
X595743D01*
X589475Y564475D02*
X590237D01*
X591762Y566000D01*
X588000Y563000D02*
X589475Y564475D01*
X601500Y566000D02*
X604500Y563000D01*
X605000D01*
X596257Y566000D02*
X601500D01*
X581782Y564475D02*
X586525D01*
X580000Y566000D02*
X580257D01*
X586525Y564475D02*
X588000Y563000D01*
X580257Y566000D02*
X581782Y564475D01*
X573475Y566525D02*
X579218D01*
X572000Y568000D02*
X573475Y566525D01*
X579218D02*
X579743Y566000D01*
X580000D01*
X547218Y566525D02*
X547743Y566000D01*
X540000Y568000D02*
X541475Y566525D01*
X547218D01*
X547743Y566000D02*
X548000D01*
X549782Y564475D02*
X554525D01*
X548257Y566000D02*
X549782Y564475D01*
X554525D02*
X556000Y563000D01*
X548000Y566000D02*
X548257D01*
X557475Y564475D02*
X562218D01*
X563743Y566000D01*
X556000Y563000D02*
X557475Y564475D01*
X563743Y566000D02*
X564000D01*
X564257D01*
X570525Y566525D02*
X572000Y568000D01*
X564782Y566525D02*
X570525D01*
X564257Y566000D02*
X564782Y566525D01*
X580000Y550000D02*
X580182Y550182D01*
X579818Y549818D02*
X580000Y550000D01*
X572000Y549000D02*
X572818Y549818D01*
X579818D01*
X564182D02*
X571182D01*
X564000Y550000D02*
X564182Y549818D01*
X571182D02*
X572000Y549000D01*
X563818Y549818D02*
X564000Y550000D01*
X548000D02*
X548182Y549818D01*
X540000Y549000D02*
X540818Y549818D01*
X547818D01*
X548000Y550000D01*
X596000Y518000D02*
X596182Y517818D01*
X540818D02*
X547818D01*
X540000Y517000D02*
X540818Y517818D01*
X547818D02*
X548000Y518000D01*
X532182Y517818D02*
X539182D01*
X540000Y517000D01*
X532000Y518000D02*
X532182Y517818D01*
X531818D02*
X532000Y518000D01*
X523000Y517000D02*
X523818Y517818D01*
X531818D01*
X522182D02*
X523000Y517000D01*
X516182Y517818D02*
X522182D01*
X516000Y518000D02*
X516182Y517818D01*
X524500Y539000D02*
X529318Y534182D01*
X531818D01*
X532000Y534000D01*
X550257Y556000D02*
X561743D01*
X563743Y558000D01*
X548257D02*
X550257Y556000D01*
X532000Y558000D02*
X540000D01*
X522000Y526000D02*
X523000Y527000D01*
X516000Y526000D02*
X522000D01*
X541000D02*
X547743D01*
X540000Y527000D02*
X541000Y526000D01*
X538726Y525726D02*
X540000Y527000D01*
X523000D02*
X524274Y525726D01*
X491818Y574182D02*
X492000Y574000D01*
X491000Y583000D02*
X491818Y582182D01*
Y574182D02*
Y582182D01*
X516717Y542217D02*
X522752Y548252D01*
X516182Y542217D02*
X516717D01*
X516000Y542035D02*
X516182Y542217D01*
X508500Y549000D02*
X515283Y542217D01*
X515818D02*
X516000Y542035D01*
X508000Y549000D02*
X508500D01*
X515283Y542217D02*
X515818D01*
X564000Y558000D02*
X572000D01*
X524227Y547793D02*
X526207D01*
X531818Y542182D01*
X541475Y540475D02*
X542237D01*
X543762Y542000D01*
X547743D01*
X540000Y539000D02*
X541475Y540475D01*
X548000Y542000D02*
X553000D01*
X556000Y539000D01*
X564000Y574000D02*
X580000D01*
X604182Y590182D02*
X605000Y591000D01*
X533782Y540475D02*
X538525D01*
X540000Y539000D01*
X532257Y542000D02*
X533782Y540475D01*
X532000Y542000D02*
X532257D01*
X564000D02*
X568500D01*
X571500Y539000D02*
X572000D01*
X568500Y542000D02*
X571500Y539000D01*
X564000Y542000D02*
X564000Y542000D01*
X556500Y539000D02*
X559500Y542000D01*
X556000Y539000D02*
X556500D01*
X559500Y542000D02*
X564000D01*
X572000Y558000D02*
X580000D01*
X556000Y573000D02*
X556818Y573818D01*
X563818D01*
X564000Y574000D01*
X520025Y592842D02*
Y593342D01*
X516182Y597185D02*
Y598185D01*
X520025Y592842D02*
X521500Y591367D01*
X516182Y597185D02*
X520025Y593342D01*
X521500Y591367D02*
X522000D01*
X548000Y574000D02*
X548182Y573818D01*
X580000Y574000D02*
X580182Y573818D01*
X587182D02*
X588000Y573000D01*
X580182Y573818D02*
X587182D01*
X588818D02*
X595818D01*
X588000Y573000D02*
X588818Y573818D01*
X595818D02*
X596000Y574000D01*
X596182Y573818D02*
X604182D01*
X596000Y574000D02*
X596182Y573818D01*
X604182D02*
X605000Y573000D01*
X540000Y591000D02*
X540918Y590082D01*
X543654D02*
X543735Y590000D01*
X540918Y590082D02*
X543654D01*
X543735Y590000D02*
X548000D01*
X516000Y598367D02*
X516182Y598185D01*
X522818Y590182D02*
X531818D01*
X522000Y591000D02*
X522818Y590182D01*
X531818D02*
X532000Y590000D01*
X532182Y590182D02*
X539182D01*
X540000Y591000D01*
X532000Y590000D02*
X532182Y590182D01*
X548182D02*
X554182D01*
X548000Y590000D02*
X548182Y590182D01*
X554182D02*
X555000Y591000D01*
X563818Y590182D02*
X564000Y590000D01*
X564182Y590182D02*
X571182D01*
X572000Y591000D01*
X564000Y590000D02*
X564182Y590182D01*
X572000Y591000D02*
X572818Y590182D01*
X579818D01*
X580000Y590000D01*
X580182Y590182D02*
X587182D01*
X580000Y590000D02*
X580182Y590182D01*
X587182D02*
X588000Y591000D01*
X588818Y590182D01*
X595818D01*
X596000Y590000D01*
X596182Y590182D01*
X604182D01*
X596182Y581818D02*
X604182D01*
X596000Y582000D02*
X596182Y581818D01*
X588818D02*
X595818D01*
X596000Y582000D01*
X580182Y581818D02*
X587182D01*
X580000Y582000D02*
X580182Y581818D01*
X579818D02*
X580000Y582000D01*
X572818Y581818D02*
X579818D01*
X564182D02*
X571182D01*
X564000Y582000D02*
X564182Y581818D01*
X555000Y581000D02*
X555818Y581818D01*
X563818D02*
X564000Y582000D01*
X554182Y581818D02*
X555000Y581000D01*
X548182Y581818D02*
X554182D01*
X548000Y582000D02*
X548182Y581818D01*
X547818D02*
X548000Y582000D01*
X540818Y581818D02*
X547818D01*
X532182D02*
X539182D01*
X532000Y582000D02*
X532182Y581818D01*
X531818D02*
X532000Y582000D01*
X522818Y581818D02*
X531818D01*
X595818Y541818D02*
X596000Y542000D01*
X588818Y541818D02*
X595818D01*
X588000Y541000D02*
X588818Y541818D01*
X580000Y542000D02*
X580182Y541818D01*
X587182D02*
X588000Y541000D01*
X580182Y541818D02*
X587182D01*
D96*
X69000Y206000D02*
X86947D01*
X97000Y216053D01*
X106520Y206533D01*
X247480D01*
X257000Y216053D01*
X55000Y220000D02*
Y237000D01*
X59608Y224727D02*
Y236608D01*
X55000Y220000D02*
X69000Y206000D01*
X59608Y224727D02*
X68282Y216053D01*
X77000D01*
X86520Y225573D01*
X227480D01*
X237000Y216053D01*
X655960Y546960D02*
X656000Y547000D01*
X664466Y555466D01*
X655960Y534960D02*
Y546960D01*
X664466Y555466D02*
Y576000D01*
X656000Y529000D02*
X659000Y532000D01*
Y545000D02*
X671000Y557000D01*
X659000Y532000D02*
Y545000D01*
X643000Y522000D02*
X655960Y534960D01*
X635000Y522000D02*
X643000D01*
X671000Y557000D02*
Y566000D01*
X638000Y511000D02*
X656000Y529000D01*
X560000Y416930D02*
Y498000D01*
X564000Y502000D01*
X559000Y406000D02*
X649000Y316000D01*
Y241000D02*
Y316000D01*
X663000Y241000D02*
Y308000D01*
X554613Y416387D02*
X663000Y308000D01*
X560000Y416930D02*
X682565Y294365D01*
Y241000D02*
Y294365D01*
X695852Y287131D02*
Y287148D01*
X696852Y241000D02*
Y286131D01*
X695852Y287131D02*
X696852Y286131D01*
X564000Y419000D02*
X695852Y287148D01*
X554613Y416387D02*
Y416811D01*
X649000Y241000D02*
X649000Y241000D01*
X564000Y502000D02*
Y502000D01*
Y419000D02*
Y494000D01*
X445000Y646008D02*
X467538Y623470D01*
X445000Y646008D02*
Y682000D01*
X392000Y600000D02*
X404000D01*
X368000D02*
X392000D01*
X321460Y646540D02*
X368000Y600000D01*
X467538Y623470D02*
X488530D01*
X503715Y608285D01*
Y589328D02*
X507513Y585530D01*
Y582487D02*
Y585530D01*
Y582487D02*
X508000Y582000D01*
X503715Y589328D02*
Y608285D01*
X664466Y490000D02*
X685000D01*
X711000Y516000D01*
Y554000D01*
X55000Y237000D02*
X115000Y297000D01*
X122000Y299000D02*
Y430000D01*
X59608Y236608D02*
X122000Y299000D01*
X105855Y446145D02*
X122000Y430000D01*
X97000Y656060D02*
X100527D01*
X104587Y652000D02*
X325000D01*
X366000Y611000D01*
X100527Y656060D02*
X104587Y652000D01*
X87480Y665580D02*
X97000Y656060D01*
X67580Y665580D02*
X87480D01*
X53000Y440000D02*
Y651000D01*
X67580Y665580D01*
X53000Y440000D02*
X67000Y426000D01*
X86940D01*
X65940Y436060D02*
X77000D01*
X58000Y444000D02*
Y637060D01*
Y444000D02*
X65940Y436060D01*
X115000Y297000D02*
Y418060D01*
X87085Y446145D02*
X105855D01*
X97000Y436060D02*
X115000Y418060D01*
X77000Y436060D02*
X87085Y446145D01*
X58000Y637060D02*
X77000Y656060D01*
X86940Y426000D02*
X97000Y436060D01*
X86520Y646540D02*
X321460D01*
X77000Y656060D02*
X86520Y646540D01*
X366000Y611000D02*
X390000D01*
X392000Y610811D02*
X393470Y609341D01*
X404000D01*
X666020Y534000D02*
X695500D01*
X662121Y507879D02*
Y509466D01*
X662000Y509588D02*
Y541000D01*
X682000Y561000D01*
X662121Y507879D02*
X664000Y506000D01*
X662000Y509588D02*
X662121Y509466D01*
X638000Y490000D02*
Y511000D01*
X682000Y561000D02*
Y585383D01*
X695750Y549750D02*
X696000Y550000D01*
X695500Y549500D02*
X695750Y549750D01*
X695500Y534000D02*
Y549500D01*
X644000Y494000D02*
X648000Y490000D01*
X654466D01*
X644000Y506000D02*
X654000D01*
X670984Y596399D02*
X682000Y585383D01*
X664949Y576000D02*
X671000D01*
X664466Y576484D02*
X664949Y576000D01*
X664183Y596548D02*
X664332Y596399D01*
X670984D01*
D97*
X580000Y986000D02*
X604000Y1010000D01*
X521000Y986000D02*
X580000D01*
X604000Y1010000D02*
X649000D01*
X414841Y879840D02*
X521000Y986000D01*
X419975Y867975D02*
X528000Y976000D01*
X586000D01*
X600000Y990000D01*
X649000D01*
X430000Y862437D02*
X534563Y967000D01*
X626000D01*
X430000Y578714D02*
Y862437D01*
X626000Y967000D02*
X639000Y980000D01*
X649000Y990000D02*
X659000Y980000D01*
X649000Y1010000D02*
X659000Y1000000D01*
X765000Y209000D02*
X800000D01*
X724000D02*
X765000D01*
X511000Y336000D02*
X522000D01*
X430000Y578714D02*
X442677Y566038D01*
X580447Y473096D02*
X580474Y473070D01*
Y448027D02*
Y473070D01*
Y448027D02*
X580500Y448000D01*
X580224Y473320D02*
X580447Y473096D01*
X580224Y473320D02*
Y493777D01*
X580000Y494000D02*
X580224Y493777D01*
X510000Y574000D02*
X532000D01*
X505965Y569965D02*
X510000Y574000D01*
X484000D02*
X488035Y569965D01*
X505965D01*
X572000Y502000D02*
X580000Y494000D01*
X580000D01*
X548000Y510000D02*
X564000D01*
X572000Y502000D01*
X419975Y512025D02*
Y867975D01*
X724000Y189000D02*
Y199000D01*
Y189000D02*
X724000Y189000D01*
X642000Y209000D02*
X653000D01*
X642000Y209000D02*
X642000Y209000D01*
X696852D02*
X724000D01*
X724000Y209000D01*
X663000Y180771D02*
Y209000D01*
X662852Y180623D02*
X663000Y180771D01*
X686852Y190123D02*
Y209000D01*
X696852Y209000D02*
Y231000D01*
Y209000D02*
X696852Y209000D01*
X682565Y231000D02*
X696852D01*
X663000Y209000D02*
Y231000D01*
X649000D02*
X663000D01*
X721500Y651500D02*
Y665000D01*
X645082Y566404D02*
Y566502D01*
X383146Y590490D02*
X383636Y590000D01*
X392000D01*
X382613Y590490D02*
X383146D01*
X392000Y590000D02*
X392000Y590000D01*
X895000Y231000D02*
X896000D01*
X885000D02*
X895000D01*
X392000Y620811D02*
X404000D01*
X645082Y566502D02*
X654466Y575886D01*
X644549Y566404D02*
X645082D01*
X654466Y575886D02*
Y576484D01*
X612000Y518000D02*
X621000D01*
X625000Y521763D02*
Y522000D01*
X623052Y519814D02*
X625000Y521763D01*
X622814Y519814D02*
X623052D01*
X621000Y518000D02*
X622814Y519814D01*
X644436Y551000D02*
X644507Y551072D01*
X636000Y551000D02*
X644436D01*
X620377Y544877D02*
X626000Y550500D01*
X620000Y542000D02*
X620377Y542377D01*
X626000Y550500D02*
Y551000D01*
X620377Y542377D02*
Y544877D01*
X507750Y872000D02*
X508000D01*
X419975Y512025D02*
X420000Y512000D01*
X414841Y495876D02*
Y879840D01*
X695531Y513366D02*
Y523969D01*
X695500Y524000D02*
X695531Y523969D01*
Y513366D02*
X695562Y513334D01*
X654091Y596640D02*
Y610909D01*
X654000Y611000D02*
X654091Y610909D01*
Y596640D02*
X654183Y596548D01*
X880000Y253000D02*
X881000D01*
X870000D02*
X880000D01*
X741000Y625000D02*
X752000D01*
X721500Y651500D02*
X730000Y643000D01*
X680000Y665000D02*
X692500D01*
X702650Y681345D02*
X711655D01*
X712000Y681000D01*
X722000Y691000D02*
X722000Y691000D01*
X722000Y681000D02*
Y691000D01*
X721750Y665250D02*
Y680750D01*
X722000Y681000D01*
X721500Y665000D02*
X721750Y665250D01*
X730000Y633000D02*
Y643000D01*
X773000Y651500D02*
Y663490D01*
X755000Y635000D02*
Y643000D01*
X741000Y635000D02*
Y643000D01*
X755250Y625250D02*
X772750D01*
X773000Y625500D01*
X755000Y625000D02*
X755250Y625250D01*
X731578Y625000D02*
X741000D01*
X730000Y614000D02*
Y625000D01*
X730000Y625000D01*
X752000D02*
X752750Y625750D01*
X834000Y219467D02*
Y220000D01*
X885000Y286000D02*
X895000D01*
X870000Y220000D02*
X880000D01*
X870000Y275000D02*
X880000D01*
X870000Y297000D02*
X880000D01*
X834000D02*
X860000D01*
X834000Y286000D02*
X875000D01*
X834000Y275000D02*
X860000D01*
X834000Y253000D02*
X860000D01*
X834000Y231000D02*
X875000D01*
X834000Y220000D02*
X860000D01*
D98*
X505000Y351727D02*
Y418961D01*
X500504Y336000D02*
Y347308D01*
Y327004D02*
Y336000D01*
X502704Y349431D02*
X505000Y351727D01*
X500504Y347308D02*
X502627Y349431D01*
X502704D01*
X500504Y326496D02*
X500641Y326633D01*
X500504Y327004D02*
X500641Y326867D01*
Y326633D02*
Y326867D01*
X505000Y418961D02*
Y462000D01*
Y505000D01*
X500000Y510000D02*
X505000Y505000D01*
X500000Y510000D02*
Y550000D01*
X458000Y438000D02*
Y510492D01*
X459000Y511492D02*
Y512000D01*
X458000Y510492D02*
X459000Y511492D01*
X445020Y506020D02*
X461000Y522000D01*
X445020Y394399D02*
Y506020D01*
D99*
X584819Y680120D02*
X623880D01*
X565000Y699938D02*
Y731430D01*
Y699938D02*
X584819Y680120D01*
X585949Y683063D02*
X630000D01*
X568896Y700116D02*
Y726375D01*
Y700116D02*
X585949Y683063D01*
X625000Y679000D02*
X633000Y671000D01*
X623880Y680120D02*
X625000Y679000D01*
X630000Y683063D02*
X641937D01*
X648000Y677000D01*
X630000Y685554D02*
X646446D01*
X587539D02*
X630000D01*
X646446D02*
X652336Y679664D01*
X580130Y692962D02*
X587539Y685554D01*
X551797Y625203D02*
Y644438D01*
X535766Y660470D02*
X551797Y644438D01*
X525617Y660470D02*
X535766D01*
X547423Y644000D02*
Y645195D01*
X527234Y657165D02*
X535452D01*
X547423Y645195D01*
X544412Y609588D02*
Y644138D01*
X528710Y654142D02*
X534408D01*
X544412Y644138D01*
X547423Y622577D02*
Y644000D01*
Y622577D02*
X556000Y614000D01*
X544412Y609588D02*
X548000Y606000D01*
X567570Y734000D02*
Y742310D01*
X575617Y750357D02*
X579011D01*
X567570Y742310D02*
X575617Y750357D01*
X538967Y749560D02*
X542527Y746000D01*
X536000Y750000D02*
X536440Y749560D01*
X542527Y746000D02*
X546000D01*
X536440Y749560D02*
X538967D01*
X538333Y812771D02*
Y838000D01*
X532130Y806568D02*
X538333Y812771D01*
X532130Y753870D02*
Y806568D01*
Y753870D02*
X536000Y750000D01*
X550421Y700422D02*
Y741579D01*
X546000Y746000D02*
X550421Y741579D01*
X541935Y691935D02*
X550421Y700422D01*
X512987Y652000D02*
X522069D01*
X527234Y657165D01*
X518935Y691935D02*
X541935D01*
X507000Y680000D02*
X518935Y691935D01*
X507000Y657987D02*
X512987Y652000D01*
X507000Y657987D02*
Y680000D01*
X563000Y807000D02*
Y838000D01*
X544000Y758000D02*
X547930Y761930D01*
Y791930D01*
X563000Y807000D01*
X499000Y811929D02*
Y812430D01*
Y811929D02*
X519870Y791059D01*
Y766183D02*
X528053Y758000D01*
X499000Y812430D02*
X500570Y814000D01*
X519870Y766183D02*
Y791059D01*
X528000Y830000D02*
X528255Y830255D01*
X526000Y838000D02*
X526148D01*
X528249Y835900D01*
X528000Y830000D02*
Y830450D01*
X526000Y832450D02*
Y838000D01*
Y832450D02*
X528000Y830450D01*
X595915Y754318D02*
X603837D01*
X595799Y754201D02*
X595915Y754318D01*
X603837D02*
X603986Y754467D01*
X615967D02*
X616000Y754500D01*
X603986Y754467D02*
X615967D01*
X544000Y750000D02*
X548000D01*
X563000Y614000D02*
X563000D01*
X550667Y802541D02*
Y838000D01*
X553651Y698651D02*
Y744349D01*
X548000Y750000D02*
X553651Y744349D01*
X543424Y688424D02*
X553651Y698651D01*
X551797Y625203D02*
X563000Y614000D01*
X522147Y657000D02*
X525617Y660470D01*
X515000Y657000D02*
X522147D01*
X511000Y661000D02*
X515000Y657000D01*
X520424Y688424D02*
X543424D01*
X511000Y679000D02*
X520424Y688424D01*
X511000Y661000D02*
Y679000D01*
X539877Y791751D02*
X550667Y802541D01*
X539877Y754123D02*
Y791751D01*
Y754123D02*
X544000Y750000D01*
Y741378D02*
Y742000D01*
X499000Y802109D02*
Y802609D01*
X544000Y741378D02*
X547192Y738186D01*
Y702192D02*
Y738186D01*
X512964Y694964D02*
X539964D01*
X547192Y702192D01*
X509000Y647000D02*
X521568D01*
X528710Y654142D01*
X502000Y654000D02*
X509000Y647000D01*
X499000Y802109D02*
X511384Y789724D01*
X543560Y742440D02*
X544000Y742000D01*
X538069Y745870D02*
X541499Y742440D01*
X543560D01*
X533532Y745870D02*
X538069D01*
X511384Y768017D02*
X533532Y745870D01*
X511384Y768017D02*
Y789724D01*
X502000Y684000D02*
X512964Y694964D01*
X502000Y679000D02*
Y684000D01*
Y654000D02*
Y679000D01*
X588000Y614000D02*
X596000Y622000D01*
X635000D01*
X652336Y639336D01*
Y679664D01*
X616000Y741875D02*
Y742375D01*
X612125Y738000D02*
X616000Y741875D01*
X580130Y692962D02*
Y723099D01*
X595031Y738000D02*
X612125D01*
X580130Y723099D02*
X583516Y726484D01*
X595031Y738000D01*
X535560Y742440D02*
X536000Y742000D01*
X501502Y788225D02*
X501650D01*
X499000Y790727D02*
X501502Y788225D01*
X499000Y790727D02*
Y790875D01*
X532472Y742440D02*
X535560D01*
X508064Y766849D02*
Y781811D01*
X501650Y788225D02*
X508064Y781811D01*
Y766849D02*
X532472Y742440D01*
X510875Y718125D02*
X519000Y710000D01*
X536000D01*
X499000Y718125D02*
X510875D01*
X572000Y614000D02*
Y623000D01*
X579000Y630000D02*
X619000D01*
X572000Y623000D02*
X579000Y630000D01*
X619000D02*
X633000Y644000D01*
Y671000D01*
X597000Y803000D02*
X616000D01*
X565000Y731430D02*
X567570Y734000D01*
X582256Y788255D02*
X597000Y803000D01*
X582256Y753602D02*
Y788255D01*
X579011Y750357D02*
X582256Y753602D01*
X576000Y710000D02*
Y728000D01*
X593925Y765925D02*
X615300D01*
X616000Y766625D01*
X576000Y728000D02*
X591649Y743649D01*
Y763649D02*
X593925Y765925D01*
X591649Y743649D02*
Y763649D01*
X594130Y774130D02*
X611380D01*
X616000Y778750D01*
X588408Y768408D02*
X594130Y774130D01*
X588408Y748315D02*
Y768408D01*
X576000Y742000D02*
X576440Y742440D01*
X582533D02*
X588408Y748315D01*
X576440Y742440D02*
X582533D01*
X532344Y714344D02*
X536000Y718000D01*
X504750Y730250D02*
X520656Y714344D01*
X532344D01*
X499000Y730250D02*
X504750D01*
X616000Y706000D02*
Y706148D01*
X612130Y709870D02*
X613751Y708249D01*
X613899D01*
X616000Y706148D01*
X655000Y691000D02*
X660000Y686000D01*
X637000Y604000D02*
X660000Y627000D01*
Y686000D01*
X604000Y614000D02*
X614000Y604000D01*
X637000D01*
X594970Y691000D02*
X655000D01*
X587870Y705601D02*
X592139Y709870D01*
X612130D01*
X587870Y698100D02*
X594970Y691000D01*
X587870Y698100D02*
Y698569D01*
Y705601D01*
X505560Y711560D02*
X506000Y712000D01*
X504060Y711560D02*
X505560D01*
X499000Y706500D02*
X504060Y711560D01*
X499000Y706000D02*
Y706500D01*
Y706520D01*
X588254Y606254D02*
X590781D01*
X602397Y617870D01*
X588000Y606000D02*
X588254Y606254D01*
X602397Y617870D02*
X636870D01*
X584000Y710000D02*
X594000Y720000D01*
X614125D02*
X616000Y718125D01*
X594000Y720000D02*
X614125D01*
X636870Y617870D02*
X656000Y637000D01*
Y683000D01*
X651000Y688000D02*
X656000Y683000D01*
X584000Y694104D02*
X590104Y688000D01*
X584000Y694104D02*
Y710000D01*
X590104Y688000D02*
X651000D01*
X499452Y741923D02*
X504550D01*
X499000Y742375D02*
X499452Y741923D01*
X527922Y718214D02*
Y718551D01*
X504550Y741923D02*
X527922Y718551D01*
X593250Y730250D02*
X616000D01*
X584508Y721508D02*
X593250Y730250D01*
X584508Y717492D02*
Y721508D01*
X527560Y734440D02*
Y737565D01*
X499000Y766125D02*
X527560Y737565D01*
X499000Y766125D02*
Y766625D01*
X527560Y734440D02*
X528000Y734000D01*
X495000Y689000D02*
X507000Y701000D01*
X537000D01*
X524000Y634000D02*
X531870Y641870D01*
Y646732D01*
X499000Y634000D02*
X524000D01*
X484000Y649000D02*
X499000Y634000D01*
X495000Y670000D02*
Y689000D01*
X484000Y649000D02*
Y659000D01*
X495000Y670000D01*
X541000Y705000D02*
Y721134D01*
X537000Y701000D02*
X541000Y705000D01*
X535728Y726406D02*
X541000Y721134D01*
X499000Y754500D02*
X499577Y753923D01*
X505374D01*
X522299Y736998D01*
X532239Y729895D02*
X535728Y726406D01*
X522299Y732495D02*
X524900Y729895D01*
X532239D01*
X522299Y732495D02*
Y736998D01*
X593875Y790875D02*
X616000D01*
X648000Y650000D02*
Y677000D01*
X623000Y625000D02*
X648000Y650000D01*
X580000Y614000D02*
X591000Y625000D01*
X623000D01*
X568870Y726401D02*
X571654Y729185D01*
X575469Y747000D02*
X582000D01*
X571654Y743185D02*
X575469Y747000D01*
X571654Y729185D02*
Y743185D01*
X582000Y747000D02*
X585309Y750309D01*
Y782309D02*
X593875Y790875D01*
X585309Y750309D02*
Y782309D01*
X568870Y726401D02*
X568896Y726375D01*
X499000Y778602D02*
Y778750D01*
X498000Y668000D02*
Y687000D01*
X489000Y649000D02*
X500000Y638000D01*
X489000Y649000D02*
Y659000D01*
X498000Y668000D01*
X544128Y703128D02*
Y725872D01*
X498000Y687000D02*
X508856Y697856D01*
X538856D02*
X544128Y703128D01*
X508856Y697856D02*
X538856D01*
X540065Y637722D02*
Y644680D01*
X500000Y638000D02*
X517208D01*
X533697Y651049D02*
X540065Y644680D01*
X530257Y651049D02*
X533697D01*
X517208Y638000D02*
X530257Y651049D01*
X536000Y734000D02*
X544128Y725872D01*
X505001Y764999D02*
Y772600D01*
X499000Y778602D02*
X505001Y772600D01*
Y764999D02*
X536000Y734000D01*
D104*
X22900Y842000D02*
D03*
X48300D02*
D03*
X73700D02*
D03*
X99100D02*
D03*
X22900Y758000D02*
D03*
X48300D02*
D03*
X73700D02*
D03*
X99100D02*
D03*
X152600Y842000D02*
D03*
X178000D02*
D03*
X203400D02*
D03*
X228800D02*
D03*
X152600Y758000D02*
D03*
X178000D02*
D03*
X203400D02*
D03*
X228800D02*
D03*
D105*
X48300Y820400D02*
D03*
Y736400D02*
D03*
X178000Y820400D02*
D03*
Y736400D02*
D03*
D106*
X332000Y1045000D02*
D03*
X940000D02*
D03*
X932000Y50000D02*
D03*
X467000D02*
D03*
X70000Y927999D02*
D03*
Y1011998D02*
D03*
D107*
X659000Y980000D02*
D03*
Y1000000D02*
D03*
X639000Y980000D02*
D03*
Y1000000D02*
D03*
X619000Y980000D02*
D03*
Y1000000D02*
D03*
D108*
X921000Y432000D02*
D03*
Y362000D02*
D03*
X936000Y747000D02*
D03*
Y817000D02*
D03*
D109*
X946000Y419500D02*
D03*
X961000Y804500D02*
D03*
D110*
X946000Y374500D02*
D03*
X961000Y759500D02*
D03*
D111*
X778000Y209000D02*
D03*
X923218Y858184D02*
D03*
X948218D02*
D03*
X923218Y883184D02*
D03*
X948218D02*
D03*
X257000Y236053D02*
D03*
X237000D02*
D03*
X257000Y216053D02*
D03*
X237000D02*
D03*
X257000Y196053D02*
D03*
X237000D02*
D03*
X257000Y176053D02*
D03*
X237000D02*
D03*
X257000Y156053D02*
D03*
X237000D02*
D03*
X257000Y136053D02*
D03*
X237000D02*
D03*
X257000Y116053D02*
D03*
X237000D02*
D03*
X257000Y96053D02*
D03*
X237000D02*
D03*
X257000Y76053D02*
D03*
X237000D02*
D03*
X97000Y676060D02*
D03*
X77000D02*
D03*
X97000Y656060D02*
D03*
X77000D02*
D03*
X97000Y636060D02*
D03*
X77000D02*
D03*
X97000Y616060D02*
D03*
X77000D02*
D03*
X97000Y596060D02*
D03*
X77000D02*
D03*
X97000Y576060D02*
D03*
X77000D02*
D03*
X97000Y556060D02*
D03*
X77000D02*
D03*
X97000Y536060D02*
D03*
X77000D02*
D03*
X97000Y516060D02*
D03*
X77000D02*
D03*
X97000Y236053D02*
D03*
X77000D02*
D03*
X97000Y216053D02*
D03*
X77000D02*
D03*
X97000Y196053D02*
D03*
X77000D02*
D03*
X97000Y176053D02*
D03*
X77000D02*
D03*
X97000Y156053D02*
D03*
X77000D02*
D03*
X97000Y136053D02*
D03*
X77000D02*
D03*
X97000Y116053D02*
D03*
X77000D02*
D03*
X97000Y96053D02*
D03*
X77000D02*
D03*
X97000Y76053D02*
D03*
X77000D02*
D03*
X97000Y456060D02*
D03*
X77000D02*
D03*
X97000Y436060D02*
D03*
X77000D02*
D03*
X97000Y416060D02*
D03*
X77000D02*
D03*
X97000Y396060D02*
D03*
X77000D02*
D03*
X97000Y376060D02*
D03*
X77000D02*
D03*
X97000Y356060D02*
D03*
X77000D02*
D03*
X97000Y336060D02*
D03*
X77000D02*
D03*
X97000Y316060D02*
D03*
X77000D02*
D03*
X97000Y296060D02*
D03*
X77000D02*
D03*
X821400Y604200D02*
D03*
X846800Y591500D02*
D03*
X821400Y528000D02*
D03*
Y553400D02*
D03*
Y578800D02*
D03*
X846800Y540700D02*
D03*
Y566100D02*
D03*
D112*
X368300Y717100D02*
D03*
X393700D02*
D03*
X368300Y691700D02*
D03*
X393700D02*
D03*
X368300Y666300D02*
D03*
X393700Y640900D02*
D03*
X368300D02*
D03*
X393700Y666300D02*
D03*
X787000Y364200D02*
D03*
Y389600D02*
D03*
Y415000D02*
D03*
X956000Y627000D02*
D03*
X935700Y492500D02*
D03*
Y627000D02*
D03*
X956000Y492500D02*
D03*
D113*
X958000Y305000D02*
D03*
Y225000D02*
D03*
D114*
X846800Y515300D02*
D03*
D115*
X879800Y638500D02*
D03*
Y481000D02*
D03*
X143000Y927998D02*
D03*
X198000D02*
D03*
Y969998D02*
D03*
X143000D02*
D03*
X198000Y1011998D02*
D03*
X143000D02*
D03*
D116*
X910300Y616900D02*
D03*
Y502600D02*
D03*
D117*
X533000Y952000D02*
D03*
X534000Y942000D02*
D03*
X502000D02*
D03*
X561000Y949000D02*
D03*
X548000Y943000D02*
D03*
X413043Y963553D02*
D03*
X426000Y971000D02*
D03*
X399000D02*
D03*
X456000Y970000D02*
D03*
X595000Y940000D02*
D03*
X589000Y955000D02*
D03*
X800000Y209000D02*
D03*
X567000Y639000D02*
D03*
X561000D02*
D03*
X576000Y758000D02*
D03*
X568000D02*
D03*
X570000Y376000D02*
D03*
X406000Y470000D02*
D03*
X400000Y475000D02*
D03*
X440000Y476000D02*
D03*
X406000Y481000D02*
D03*
X556000Y614000D02*
D03*
X536000Y750000D02*
D03*
X540206Y605815D02*
D03*
X544000Y758000D02*
D03*
X528053D02*
D03*
X619581Y652218D02*
D03*
X568000Y790000D02*
D03*
X611752Y613833D02*
D03*
X576000Y798000D02*
D03*
X544000Y767000D02*
D03*
X568000Y782000D02*
D03*
X469000Y627000D02*
D03*
X528000Y830000D02*
D03*
X595799Y754201D02*
D03*
X544000Y750000D02*
D03*
X563000Y614000D02*
D03*
X544000Y742000D02*
D03*
X548000Y606000D02*
D03*
X588000Y614000D02*
D03*
X583516Y726484D02*
D03*
X536000Y742000D02*
D03*
X532000Y614000D02*
D03*
X536000Y710000D02*
D03*
X572000Y614000D02*
D03*
X567570Y734000D02*
D03*
X576000Y710000D02*
D03*
Y742000D02*
D03*
X539695Y614003D02*
D03*
X536000Y718000D02*
D03*
X604000Y614000D02*
D03*
X587870Y698569D02*
D03*
X524000Y614000D02*
D03*
X506000Y712000D02*
D03*
X588000Y606000D02*
D03*
X584000Y710000D02*
D03*
X527922Y718214D02*
D03*
X584508Y717492D02*
D03*
X528000Y734000D02*
D03*
X535728Y726406D02*
D03*
X531870Y646732D02*
D03*
X580000Y614000D02*
D03*
X568870Y726401D02*
D03*
X540082Y637705D02*
D03*
X536000Y734000D02*
D03*
X149000Y497091D02*
D03*
X136000Y516091D02*
D03*
Y543792D02*
D03*
X167373Y503904D02*
D03*
X185000Y497091D02*
D03*
X308500Y55426D02*
D03*
X295500Y74426D02*
D03*
Y102128D02*
D03*
X326873Y62239D02*
D03*
X344500Y55426D02*
D03*
X149000Y275000D02*
D03*
X136000Y294000D02*
D03*
Y321701D02*
D03*
X167373Y281813D02*
D03*
X185000Y275000D02*
D03*
X136000Y102128D02*
D03*
X149000Y55426D02*
D03*
X136000Y74426D02*
D03*
X167373Y62239D02*
D03*
X185000Y55426D02*
D03*
X160000Y196000D02*
D03*
X522000Y336000D02*
D03*
X588000Y494000D02*
D03*
X501000Y326000D02*
D03*
X500000Y550000D02*
D03*
X442677Y566038D02*
D03*
X620904Y473096D02*
D03*
X607000Y444000D02*
D03*
X484000Y574000D02*
D03*
X532000D02*
D03*
X548000Y510000D02*
D03*
X572000Y502000D02*
D03*
X580000Y494000D02*
D03*
X596057Y742708D02*
D03*
X627000Y885000D02*
D03*
X639000Y850000D02*
D03*
X626000D02*
D03*
X613000D02*
D03*
X600000D02*
D03*
X587000D02*
D03*
X574000D02*
D03*
X543000Y884000D02*
D03*
X499000Y885000D02*
D03*
X510000D02*
D03*
X360000Y778000D02*
D03*
X724000Y189000D02*
D03*
X554613Y416811D02*
D03*
X568020Y423000D02*
D03*
X559000Y406000D02*
D03*
X564000Y502000D02*
D03*
X532000Y494000D02*
D03*
X516000Y472000D02*
D03*
X588000Y518000D02*
D03*
X703000Y171000D02*
D03*
X856000Y423000D02*
D03*
X832000Y409000D02*
D03*
X510000Y985000D02*
D03*
X466000D02*
D03*
X344000Y1011000D02*
D03*
X314000D02*
D03*
X294730D02*
D03*
X342000Y907000D02*
D03*
X315000D02*
D03*
X341000Y890000D02*
D03*
X670325Y590929D02*
D03*
X382613Y590490D02*
D03*
X404000Y600000D02*
D03*
X895000Y231000D02*
D03*
X508364Y344000D02*
D03*
X927000Y133000D02*
D03*
X904000D02*
D03*
X404000Y620811D02*
D03*
Y609341D02*
D03*
X532000Y606000D02*
D03*
X642000Y586000D02*
D03*
X644549Y566404D02*
D03*
X564000Y534000D02*
D03*
X612000Y518000D02*
D03*
X644507Y551072D02*
D03*
X620000Y542000D02*
D03*
X604000D02*
D03*
X459000Y512000D02*
D03*
X461000Y522000D02*
D03*
X564000Y494000D02*
D03*
X594000Y892000D02*
D03*
X420000Y512000D02*
D03*
X414841Y495876D02*
D03*
X434000Y523000D02*
D03*
X160000Y416000D02*
D03*
Y636000D02*
D03*
X420000Y415000D02*
D03*
X498000Y422000D02*
D03*
X462000Y362000D02*
D03*
X400000Y490000D02*
D03*
Y503000D02*
D03*
X445020Y394399D02*
D03*
X715963Y980037D02*
D03*
X716054Y999940D02*
D03*
X713000Y785000D02*
D03*
X773000Y802000D02*
D03*
X666020Y534000D02*
D03*
X671000Y566000D02*
D03*
X638000Y490000D02*
D03*
X695750Y549750D02*
D03*
X695562Y513334D02*
D03*
Y488682D02*
D03*
X711000Y554000D02*
D03*
X654000Y611000D02*
D03*
X730000Y614000D02*
D03*
X741695Y543662D02*
D03*
X670984Y596399D02*
D03*
X671000Y576000D02*
D03*
X644000Y506000D02*
D03*
Y494000D02*
D03*
X458000Y438000D02*
D03*
X494000Y364000D02*
D03*
X499000Y321000D02*
D03*
Y308000D02*
D03*
X461126Y352461D02*
D03*
X492146Y310461D02*
D03*
X448146Y308461D02*
D03*
Y297461D02*
D03*
X471146Y310461D02*
D03*
X454146Y302461D02*
D03*
X412146Y301461D02*
D03*
Y311461D02*
D03*
X459146Y308461D02*
D03*
X499146Y315441D02*
D03*
X412146Y329461D02*
D03*
Y320461D02*
D03*
X456012Y352386D02*
D03*
X413146Y343461D02*
D03*
X600372Y695372D02*
D03*
X516000Y706000D02*
D03*
X579530Y647000D02*
D03*
X506855Y914442D02*
D03*
X495560Y914000D02*
D03*
X584354Y830638D02*
D03*
X544000Y814000D02*
D03*
X834000Y297000D02*
D03*
Y286000D02*
D03*
Y275000D02*
D03*
Y253000D02*
D03*
Y231000D02*
D03*
X840000Y264000D02*
D03*
Y242000D02*
D03*
X769000Y516000D02*
D03*
Y604000D02*
D03*
X677000Y649000D02*
D03*
X688000D02*
D03*
X699000D02*
D03*
X709000D02*
D03*
X680000Y665000D02*
D03*
X702650Y681345D02*
D03*
X722000Y691000D02*
D03*
X730000Y643000D02*
D03*
X773000Y663490D02*
D03*
X748000Y666490D02*
D03*
X755000Y643000D02*
D03*
X741000D02*
D03*
X642000Y209000D02*
D03*
X895000Y286000D02*
D03*
X880000Y220000D02*
D03*
Y253000D02*
D03*
Y275000D02*
D03*
Y297000D02*
D03*
X834000Y220000D02*
D03*
X481084Y892143D02*
D03*
X611000Y885000D02*
D03*
X331000Y711000D02*
D03*
X152764Y738130D02*
D03*
X321000Y766000D02*
D03*
X340000Y827000D02*
D03*
X262058Y848479D02*
D03*
X262000Y762000D02*
D03*
X596000Y761000D02*
D03*
Y725000D02*
D03*
Y715000D02*
D03*
Y706000D02*
D03*
X568000Y774000D02*
D03*
X516000Y770000D02*
D03*
Y778000D02*
D03*
X540000Y422000D02*
D03*
X526000D02*
D03*
X516000Y606000D02*
D03*
X637000Y631000D02*
D03*
X483000D02*
D03*
X620000Y614000D02*
D03*
X637000Y477000D02*
D03*
X524000Y566000D02*
D03*
X508000Y582000D02*
D03*
X508035Y590000D02*
D03*
X507869Y597912D02*
D03*
X458000Y955000D02*
D03*
X521000Y942000D02*
D03*
X484143D02*
D03*
X465714D02*
D03*
X447286D02*
D03*
X428857D02*
D03*
X410429D02*
D03*
X392000D02*
D03*
X503000Y845500D02*
D03*
X518000D02*
D03*
X460000Y860000D02*
D03*
Y845500D02*
D03*
X460000Y831000D02*
D03*
X442250D02*
D03*
X424500D02*
D03*
X392000Y845000D02*
D03*
Y859000D02*
D03*
X548000Y558000D02*
D03*
X532097Y525726D02*
D03*
X516000Y542035D02*
D03*
X532000Y510000D02*
D03*
X548000Y542000D02*
D03*
Y526000D02*
D03*
X564000Y542000D02*
D03*
X532000D02*
D03*
X580000Y558000D02*
D03*
X564000Y574000D02*
D03*
X564000Y558000D02*
D03*
X516000Y526000D02*
D03*
X532000Y558000D02*
D03*
X580000Y526000D02*
D03*
X596000Y518000D02*
D03*
X564000Y526000D02*
D03*
X516000Y598367D02*
D03*
X596000Y558000D02*
D03*
X492000Y574000D02*
D03*
X540000Y502000D02*
D03*
X596000Y542000D02*
D03*
X387000Y880000D02*
D03*
X363000Y981000D02*
D03*
Y919000D02*
D03*
X353000D02*
D03*
Y981000D02*
D03*
X386000Y961000D02*
D03*
X583455Y798000D02*
D03*
X703000Y589000D02*
D03*
X713000Y579000D02*
D03*
X693000D02*
D03*
X713000Y599000D02*
D03*
X693000D02*
D03*
X604000Y494000D02*
D03*
X500000Y598000D02*
D03*
Y582000D02*
D03*
X556000Y494000D02*
D03*
X604000Y510000D02*
D03*
X620000Y574000D02*
D03*
Y590000D02*
D03*
X596000Y598000D02*
D03*
Y590000D02*
D03*
Y582000D02*
D03*
Y574000D02*
D03*
Y566000D02*
D03*
Y550000D02*
D03*
Y526000D02*
D03*
Y534000D02*
D03*
X580000Y502000D02*
D03*
Y518000D02*
D03*
Y534000D02*
D03*
Y542000D02*
D03*
Y550000D02*
D03*
Y566000D02*
D03*
Y574000D02*
D03*
Y582000D02*
D03*
X532000Y590000D02*
D03*
X548000D02*
D03*
X532000Y582000D02*
D03*
X516000Y518000D02*
D03*
X500000Y494000D02*
D03*
X516000Y510000D02*
D03*
X532000Y518000D02*
D03*
Y534000D02*
D03*
X548000Y518000D02*
D03*
Y534000D02*
D03*
Y550000D02*
D03*
X564000Y518000D02*
D03*
Y550000D02*
D03*
Y566000D02*
D03*
X580000Y590000D02*
D03*
X564000Y582000D02*
D03*
X532000Y550000D02*
D03*
X548000Y566000D02*
D03*
X532000D02*
D03*
X548000Y582000D02*
D03*
X564000Y590000D02*
D03*
X548000Y574000D02*
D03*
X596000Y778000D02*
D03*
Y770000D02*
D03*
Y818000D02*
D03*
Y829000D02*
D03*
X528000Y766000D02*
D03*
X516000Y725000D02*
D03*
Y818000D02*
D03*
Y829000D02*
D03*
Y810000D02*
D03*
Y802000D02*
D03*
Y786000D02*
D03*
X528000Y726000D02*
D03*
X516000Y737000D02*
D03*
X536000Y758000D02*
D03*
Y766000D02*
D03*
X596000Y786000D02*
D03*
D118*
X870105Y429000D02*
D03*
X442708Y717235D02*
D03*
X445000Y682000D02*
D03*
D121*
X562955Y652003D02*
G03*
X559881Y655077I-3075J0D01*
G01*
X546817Y660241D02*
G03*
X551981Y655077I5164J0D01*
G01*
Y665405D02*
G03*
X546817Y660241I0J-5164D01*
G01*
X589290Y665405D02*
G03*
X592364Y668479I0J3075D01*
G01*
Y668479D02*
G03*
X589290Y671554I-3075J0D01*
G01*
X562955Y676718D02*
G03*
X568119Y671554I5164J0D01*
G01*
X565045Y652003D02*
G03*
X559881Y657166I-5164J0D01*
G01*
X548906Y660241D02*
G03*
X551981Y657166I3075J0D01*
G01*
Y663316D02*
G03*
X548906Y660241I0J-3075D01*
G01*
X589290Y663316D02*
G03*
X594454Y668479I0J5164D01*
G01*
Y668479D02*
G03*
X589290Y673643I-5164J0D01*
G01*
X565045Y676718D02*
G03*
X568119Y673643I3075J0D01*
G01*
X562955Y644221D02*
X562955D01*
X562955D02*
Y652003D01*
X551981Y655077D02*
X559881D01*
X546817Y660241D02*
Y660241D01*
X551981Y665405D02*
X589290D01*
X592364Y668479D02*
Y668479D01*
X568119Y671554D02*
X589290D01*
X562955Y676718D02*
Y678297D01*
X562955D01*
X565045Y644221D02*
Y652003D01*
X551981Y657166D02*
X559881D01*
X548906Y660241D02*
Y660241D01*
X551981Y663316D02*
X589290D01*
X594454Y668479D02*
Y668479D01*
X568119Y673643D02*
X589290D01*
X565045Y676718D02*
Y678297D01*
X568000Y758000D02*
X568561Y758561D01*
X575439D02*
X576000Y758000D01*
X562955Y641092D02*
Y644221D01*
X565045Y641092D02*
Y644221D01*
X562955Y678297D02*
Y686417D01*
X565045Y678297D02*
Y687282D01*
X573739Y758561D02*
X575439D01*
X575338Y758000D02*
X576000D01*
X573045Y759255D02*
X573739Y758561D01*
X573045Y759255D02*
Y761006D01*
Y755706D02*
X575338Y758000D01*
X573045Y753955D02*
Y755706D01*
X567000Y639000D02*
Y639136D01*
X563007Y771045D02*
X573045Y761006D01*
X559048Y771045D02*
X563007D01*
X560355Y691972D02*
Y741266D01*
X573045Y753955D01*
X556000Y775000D02*
X558369Y772631D01*
Y771723D02*
X559048Y771045D01*
X558369Y771723D02*
Y772631D01*
X565045Y641092D02*
X567000Y639136D01*
X560355Y691972D02*
X565045Y687282D01*
X570955Y759255D02*
Y760141D01*
X562141Y768955D02*
X570955Y760141D01*
X570261Y758561D02*
X570955Y759255D01*
X568662Y758000D02*
X570955Y755706D01*
X568561Y758561D02*
X570261D01*
X568000Y758000D02*
X568662D01*
X570955Y754821D02*
Y755706D01*
X559048Y768955D02*
X562141D01*
X558266Y691106D02*
X562955Y686417D01*
X558266Y742131D02*
X570955Y754821D01*
X558369Y767370D02*
Y768277D01*
X559048Y768955D01*
X558266Y691106D02*
Y742131D01*
X556000Y765000D02*
X558369Y767370D01*
X561000Y639136D02*
X562955Y641092D01*
X561000Y639000D02*
Y639136D01*
D122*
X580447Y473096D02*
D03*
X609447D02*
D03*
D123*
X686852Y190123D02*
D03*
Y171123D02*
D03*
X662852Y180623D02*
D03*
D124*
X730000Y633000D02*
D03*
Y625000D02*
D03*
D125*
X717500Y665000D02*
D03*
X696500D02*
D03*
X397646Y330461D02*
D03*
X376646D02*
D03*
M02*
