G04*
G04 #@! TF.GenerationSoftware,Altium Limited,Altium Designer,24.2.2 (26)*
G04*
G04 Layer_Color=16711935*
%FSLAX44Y44*%
%MOMM*%
G71*
G04*
G04 #@! TF.SameCoordinates,D1F85D35-12B9-47B7-842E-F7ABDB1EEA32*
G04*
G04*
G04 #@! TF.FilePolarity,Positive*
G04*
G01*
G75*
%ADD12C,0.2000*%
%ADD13C,0.1270*%
%ADD16C,0.1000*%
%ADD129C,0.0254*%
D12*
X947000Y354500D02*
G03*
X947000Y354500I-1000J0D01*
G01*
X962000Y739500D02*
G03*
X962000Y739500I-1000J0D01*
G01*
D13*
X971400Y413500D02*
X984500D01*
Y380500D02*
Y413500D01*
X971400Y380500D02*
X984500D01*
X906000Y361500D02*
X971000D01*
X906000D02*
Y432500D01*
X971000D01*
Y361500D02*
Y432500D01*
X986000Y746500D02*
Y817500D01*
X921000D02*
X986000D01*
X921000Y746500D02*
Y817500D01*
Y746500D02*
X986000D01*
X986400Y765500D02*
X999500D01*
Y798500D01*
X986400D02*
X999500D01*
D16*
X545000Y881500D02*
G03*
X545000Y881500I-5000J0D01*
G01*
X161500Y549341D02*
X178500D01*
X161500Y558841D02*
X178500D01*
Y549341D02*
Y558841D01*
X161500Y549341D02*
Y558841D01*
X321000Y107676D02*
X338000D01*
X321000Y117176D02*
X338000D01*
Y107676D02*
Y117176D01*
X321000Y107676D02*
Y117176D01*
X161500Y327250D02*
X178500D01*
X161500Y336750D02*
X178500D01*
Y327250D02*
Y336750D01*
X161500Y327250D02*
Y336750D01*
X161500Y107676D02*
X178500D01*
X161500Y117176D02*
X178500D01*
Y107676D02*
Y117176D01*
X161500Y107676D02*
Y117176D01*
X681852Y165623D02*
Y195623D01*
X667852Y165623D02*
Y195623D01*
X681852D01*
X667852Y165623D02*
X681852D01*
X569270Y935230D02*
Y944230D01*
X586270Y935230D02*
Y944230D01*
X569270D02*
X586270D01*
X569270Y935230D02*
X586270D01*
X531000Y872500D02*
X580000D01*
X531000Y911500D02*
X580000D01*
X531000Y872500D02*
Y911500D01*
X580000Y872500D02*
Y911500D01*
X517060Y895500D02*
X526060D01*
X517060Y912500D02*
X526060D01*
X517060Y895500D02*
Y912500D01*
X526060Y895500D02*
Y912500D01*
X579500Y443500D02*
Y452500D01*
X596500Y443500D02*
Y452500D01*
X579500Y443500D02*
X596500D01*
X579500Y452500D02*
X596500D01*
X598500Y864489D02*
Y881489D01*
X589500Y864489D02*
Y881489D01*
X598500D01*
X589500Y864489D02*
X598500D01*
X766000Y622750D02*
X780000D01*
X766000Y651250D02*
X780000D01*
Y622750D02*
Y651250D01*
X766000Y622750D02*
Y651250D01*
X721250Y658000D02*
Y672000D01*
X692750Y658000D02*
Y672000D01*
X721250D01*
X692750Y658000D02*
X721250D01*
X474000Y960750D02*
X488000D01*
X474000Y989250D02*
X488000D01*
X474000Y960750D02*
Y989250D01*
X488000Y960750D02*
Y989250D01*
X375500Y973500D02*
X384500D01*
X375500Y990500D02*
X384500D01*
X375500Y973500D02*
Y990500D01*
X384500Y973500D02*
Y990500D01*
X309500Y986000D02*
Y1003000D01*
X300500Y986000D02*
Y1003000D01*
X309500D01*
X300500Y986000D02*
X309500D01*
X276226D02*
X285726D01*
X276226Y1003000D02*
X285726D01*
X276226Y986000D02*
Y1003000D01*
X285726Y986000D02*
Y1003000D01*
X300500Y901500D02*
Y918500D01*
X309500Y901500D02*
Y918500D01*
X300500Y901500D02*
X309500D01*
X300500Y918500D02*
X309500D01*
X474000Y851750D02*
X488000D01*
X474000Y880250D02*
X488000D01*
X474000Y851750D02*
Y880250D01*
X488000Y851750D02*
Y880250D01*
X315500Y734000D02*
Y748000D01*
X345500Y734000D02*
Y748000D01*
X315500Y734000D02*
X345500D01*
X315500Y748000D02*
X345500D01*
Y845430D02*
Y859430D01*
X315500Y845430D02*
Y859430D01*
X345500D01*
X315500Y845430D02*
X345500D01*
X243999Y997999D02*
X259999D01*
X243999Y1005999D02*
X259999D01*
Y997999D02*
Y1005999D01*
X243999Y997999D02*
Y1005999D01*
X876500Y367500D02*
Y384500D01*
X885500Y367500D02*
Y384500D01*
X876500Y367500D02*
X885500D01*
X876500Y384500D02*
X885500D01*
X851250Y436500D02*
X860750D01*
X851250Y453500D02*
X860750D01*
X851250Y436500D02*
Y453500D01*
X860750Y436500D02*
Y453500D01*
X897000Y144750D02*
X911000D01*
X897000Y173250D02*
X911000D01*
X897000Y144750D02*
Y173250D01*
X911000Y144750D02*
Y173250D01*
X462646Y271961D02*
Y288961D01*
X453646Y271961D02*
Y288961D01*
Y271961D02*
X462646D01*
X453646Y288961D02*
X462646D01*
X469146Y294711D02*
X483146D01*
X469146Y266211D02*
X483146D01*
X469146D02*
Y294711D01*
X483146Y266211D02*
Y294711D01*
X378646Y305961D02*
X395646D01*
X378646Y314961D02*
X395646D01*
X378646Y305961D02*
Y314961D01*
X395646Y305961D02*
Y314961D01*
X401396Y323461D02*
Y337461D01*
X372896Y323461D02*
Y337461D01*
X401396D01*
X372896Y323461D02*
X401396D01*
X488500Y386500D02*
Y403500D01*
X479500Y386500D02*
Y403500D01*
X488500D01*
X479500Y386500D02*
X488500D01*
X493000Y380750D02*
X507000D01*
X493000Y409250D02*
X507000D01*
X493000Y380750D02*
Y409250D01*
X507000Y380750D02*
Y409250D01*
X638372Y800497D02*
Y828997D01*
X624372Y800497D02*
Y828997D01*
X638372D01*
X624372Y800497D02*
X638372D01*
X474000Y799750D02*
Y828250D01*
X488000Y799750D02*
Y828250D01*
X474000Y799750D02*
X488000D01*
X474000Y828250D02*
X488000D01*
X374500Y910500D02*
X383500D01*
X374500Y927500D02*
X383500D01*
X374500Y910500D02*
Y927500D01*
X383500Y910500D02*
Y927500D01*
D129*
X479990Y477990D02*
X483990Y473990D01*
X640010D02*
Y634010D01*
X479990D02*
X640010D01*
X479990Y473990D02*
Y634010D01*
Y473990D02*
X640010D01*
M02*
