G04*
G04 #@! TF.GenerationSoftware,Altium Limited,Altium Designer,24.2.2 (26)*
G04*
G04 Layer_Color=8388736*
%FSLAX44Y44*%
%MOMM*%
G71*
G04*
G04 #@! TF.SameCoordinates,D1F85D35-12B9-47B7-842E-F7ABDB1EEA32*
G04*
G04*
G04 #@! TF.FilePolarity,Negative*
G04*
G01*
G75*
%ADD23C,0.3556*%
%ADD38R,1.6200X2.1800*%
%ADD50R,1.8032X3.4032*%
%ADD51R,3.4032X1.8032*%
G04:AMPARAMS|DCode=52|XSize=0.9032mm|YSize=0.8032mm|CornerRadius=0.2516mm|HoleSize=0mm|Usage=FLASHONLY|Rotation=90.000|XOffset=0mm|YOffset=0mm|HoleType=Round|Shape=RoundedRectangle|*
%AMROUNDEDRECTD52*
21,1,0.9032,0.3000,0,0,90.0*
21,1,0.4000,0.8032,0,0,90.0*
1,1,0.5032,0.1500,0.2000*
1,1,0.5032,0.1500,-0.2000*
1,1,0.5032,-0.1500,-0.2000*
1,1,0.5032,-0.1500,0.2000*
%
%ADD52ROUNDEDRECTD52*%
G04:AMPARAMS|DCode=53|XSize=0.9032mm|YSize=0.8032mm|CornerRadius=0.2516mm|HoleSize=0mm|Usage=FLASHONLY|Rotation=0.000|XOffset=0mm|YOffset=0mm|HoleType=Round|Shape=RoundedRectangle|*
%AMROUNDEDRECTD53*
21,1,0.9032,0.3000,0,0,0.0*
21,1,0.4000,0.8032,0,0,0.0*
1,1,0.5032,0.2000,-0.1500*
1,1,0.5032,-0.2000,-0.1500*
1,1,0.5032,-0.2000,0.1500*
1,1,0.5032,0.2000,0.1500*
%
%ADD53ROUNDEDRECTD53*%
G04:AMPARAMS|DCode=54|XSize=0.6032mm|YSize=1.1032mm|CornerRadius=0.2016mm|HoleSize=0mm|Usage=FLASHONLY|Rotation=0.000|XOffset=0mm|YOffset=0mm|HoleType=Round|Shape=RoundedRectangle|*
%AMROUNDEDRECTD54*
21,1,0.6032,0.7000,0,0,0.0*
21,1,0.2000,1.1032,0,0,0.0*
1,1,0.4032,0.1000,-0.3500*
1,1,0.4032,-0.1000,-0.3500*
1,1,0.4032,-0.1000,0.3500*
1,1,0.4032,0.1000,0.3500*
%
%ADD54ROUNDEDRECTD54*%
%ADD55C,0.5532*%
G04:AMPARAMS|DCode=56|XSize=1.1532mm|YSize=1.0532mm|CornerRadius=0.3141mm|HoleSize=0mm|Usage=FLASHONLY|Rotation=90.000|XOffset=0mm|YOffset=0mm|HoleType=Round|Shape=RoundedRectangle|*
%AMROUNDEDRECTD56*
21,1,1.1532,0.4250,0,0,90.0*
21,1,0.5250,1.0532,0,0,90.0*
1,1,0.6282,0.2125,0.2625*
1,1,0.6282,0.2125,-0.2625*
1,1,0.6282,-0.2125,-0.2625*
1,1,0.6282,-0.2125,0.2625*
%
%ADD56ROUNDEDRECTD56*%
%ADD57C,2.0000*%
G04:AMPARAMS|DCode=58|XSize=1.1532mm|YSize=1.2032mm|CornerRadius=0.3391mm|HoleSize=0mm|Usage=FLASHONLY|Rotation=90.000|XOffset=0mm|YOffset=0mm|HoleType=Round|Shape=RoundedRectangle|*
%AMROUNDEDRECTD58*
21,1,1.1532,0.5250,0,0,90.0*
21,1,0.4750,1.2032,0,0,90.0*
1,1,0.6782,0.2625,0.2375*
1,1,0.6782,0.2625,-0.2375*
1,1,0.6782,-0.2625,-0.2375*
1,1,0.6782,-0.2625,0.2375*
%
%ADD58ROUNDEDRECTD58*%
%ADD59O,0.8032X2.4032*%
G04:AMPARAMS|DCode=60|XSize=1.1532mm|YSize=1.2032mm|CornerRadius=0.3391mm|HoleSize=0mm|Usage=FLASHONLY|Rotation=180.000|XOffset=0mm|YOffset=0mm|HoleType=Round|Shape=RoundedRectangle|*
%AMROUNDEDRECTD60*
21,1,1.1532,0.5250,0,0,180.0*
21,1,0.4750,1.2032,0,0,180.0*
1,1,0.6782,-0.2375,0.2625*
1,1,0.6782,0.2375,0.2625*
1,1,0.6782,0.2375,-0.2625*
1,1,0.6782,-0.2375,-0.2625*
%
%ADD60ROUNDEDRECTD60*%
G04:AMPARAMS|DCode=61|XSize=1.7032mm|YSize=1.8032mm|CornerRadius=0.4766mm|HoleSize=0mm|Usage=FLASHONLY|Rotation=180.000|XOffset=0mm|YOffset=0mm|HoleType=Round|Shape=RoundedRectangle|*
%AMROUNDEDRECTD61*
21,1,1.7032,0.8500,0,0,180.0*
21,1,0.7500,1.8032,0,0,180.0*
1,1,0.9532,-0.3750,0.4250*
1,1,0.9532,0.3750,0.4250*
1,1,0.9532,0.3750,-0.4250*
1,1,0.9532,-0.3750,-0.4250*
%
%ADD61ROUNDEDRECTD61*%
G04:AMPARAMS|DCode=62|XSize=1.7032mm|YSize=1.1032mm|CornerRadius=0.2141mm|HoleSize=0mm|Usage=FLASHONLY|Rotation=180.000|XOffset=0mm|YOffset=0mm|HoleType=Round|Shape=RoundedRectangle|*
%AMROUNDEDRECTD62*
21,1,1.7032,0.6750,0,0,180.0*
21,1,1.2750,1.1032,0,0,180.0*
1,1,0.4282,-0.6375,0.3375*
1,1,0.4282,0.6375,0.3375*
1,1,0.4282,0.6375,-0.3375*
1,1,0.4282,-0.6375,-0.3375*
%
%ADD62ROUNDEDRECTD62*%
G04:AMPARAMS|DCode=63|XSize=0.4532mm|YSize=0.6032mm|CornerRadius=0.1641mm|HoleSize=0mm|Usage=FLASHONLY|Rotation=180.000|XOffset=0mm|YOffset=0mm|HoleType=Round|Shape=RoundedRectangle|*
%AMROUNDEDRECTD63*
21,1,0.4532,0.2750,0,0,180.0*
21,1,0.1250,0.6032,0,0,180.0*
1,1,0.3282,-0.0625,0.1375*
1,1,0.3282,0.0625,0.1375*
1,1,0.3282,0.0625,-0.1375*
1,1,0.3282,-0.0625,-0.1375*
%
%ADD63ROUNDEDRECTD63*%
G04:AMPARAMS|DCode=64|XSize=1.3532mm|YSize=2.0032mm|CornerRadius=0.3891mm|HoleSize=0mm|Usage=FLASHONLY|Rotation=90.000|XOffset=0mm|YOffset=0mm|HoleType=Round|Shape=RoundedRectangle|*
%AMROUNDEDRECTD64*
21,1,1.3532,1.2250,0,0,90.0*
21,1,0.5750,2.0032,0,0,90.0*
1,1,0.7782,0.6125,0.2875*
1,1,0.7782,0.6125,-0.2875*
1,1,0.7782,-0.6125,-0.2875*
1,1,0.7782,-0.6125,0.2875*
%
%ADD64ROUNDEDRECTD64*%
G04:AMPARAMS|DCode=65|XSize=1.1532mm|YSize=1.0532mm|CornerRadius=0.3141mm|HoleSize=0mm|Usage=FLASHONLY|Rotation=180.000|XOffset=0mm|YOffset=0mm|HoleType=Round|Shape=RoundedRectangle|*
%AMROUNDEDRECTD65*
21,1,1.1532,0.4250,0,0,180.0*
21,1,0.5250,1.0532,0,0,180.0*
1,1,0.6282,-0.2625,0.2125*
1,1,0.6282,0.2625,0.2125*
1,1,0.6282,0.2625,-0.2125*
1,1,0.6282,-0.2625,-0.2125*
%
%ADD65ROUNDEDRECTD65*%
G04:AMPARAMS|DCode=66|XSize=1.7032mm|YSize=4.2032mm|CornerRadius=0.1766mm|HoleSize=0mm|Usage=FLASHONLY|Rotation=270.000|XOffset=0mm|YOffset=0mm|HoleType=Round|Shape=RoundedRectangle|*
%AMROUNDEDRECTD66*
21,1,1.7032,3.8500,0,0,270.0*
21,1,1.3500,4.2032,0,0,270.0*
1,1,0.3532,-1.9250,-0.6750*
1,1,0.3532,-1.9250,0.6750*
1,1,0.3532,1.9250,0.6750*
1,1,0.3532,1.9250,-0.6750*
%
%ADD66ROUNDEDRECTD66*%
%ADD67R,0.8032X1.5532*%
%ADD68R,1.0032X1.0032*%
G04:AMPARAMS|DCode=69|XSize=1.6032mm|YSize=1.8032mm|CornerRadius=0.4516mm|HoleSize=0mm|Usage=FLASHONLY|Rotation=180.000|XOffset=0mm|YOffset=0mm|HoleType=Round|Shape=RoundedRectangle|*
%AMROUNDEDRECTD69*
21,1,1.6032,0.9000,0,0,180.0*
21,1,0.7000,1.8032,0,0,180.0*
1,1,0.9032,-0.3500,0.4500*
1,1,0.9032,0.3500,0.4500*
1,1,0.9032,0.3500,-0.4500*
1,1,0.9032,-0.3500,-0.4500*
%
%ADD69ROUNDEDRECTD69*%
G04:AMPARAMS|DCode=70|XSize=0.4432mm|YSize=0.9032mm|CornerRadius=0.1616mm|HoleSize=0mm|Usage=FLASHONLY|Rotation=0.000|XOffset=0mm|YOffset=0mm|HoleType=Round|Shape=RoundedRectangle|*
%AMROUNDEDRECTD70*
21,1,0.4432,0.5800,0,0,0.0*
21,1,0.1200,0.9032,0,0,0.0*
1,1,0.3232,0.0600,-0.2900*
1,1,0.3232,-0.0600,-0.2900*
1,1,0.3232,-0.0600,0.2900*
1,1,0.3232,0.0600,0.2900*
%
%ADD70ROUNDEDRECTD70*%
G04:AMPARAMS|DCode=71|XSize=0.4432mm|YSize=0.9032mm|CornerRadius=0.1616mm|HoleSize=0mm|Usage=FLASHONLY|Rotation=90.000|XOffset=0mm|YOffset=0mm|HoleType=Round|Shape=RoundedRectangle|*
%AMROUNDEDRECTD71*
21,1,0.4432,0.5800,0,0,90.0*
21,1,0.1200,0.9032,0,0,90.0*
1,1,0.3232,0.2900,0.0600*
1,1,0.3232,0.2900,-0.0600*
1,1,0.3232,-0.2900,-0.0600*
1,1,0.3232,-0.2900,0.0600*
%
%ADD71ROUNDEDRECTD71*%
G04:AMPARAMS|DCode=72|XSize=3.3032mm|YSize=3.3032mm|CornerRadius=0.2566mm|HoleSize=0mm|Usage=FLASHONLY|Rotation=270.000|XOffset=0mm|YOffset=0mm|HoleType=Round|Shape=RoundedRectangle|*
%AMROUNDEDRECTD72*
21,1,3.3032,2.7900,0,0,270.0*
21,1,2.7900,3.3032,0,0,270.0*
1,1,0.5132,-1.3950,-1.3950*
1,1,0.5132,-1.3950,1.3950*
1,1,0.5132,1.3950,1.3950*
1,1,0.5132,1.3950,-1.3950*
%
%ADD72ROUNDEDRECTD72*%
%ADD73R,1.6032X1.8032*%
%ADD74R,2.4032X1.4032*%
%ADD75R,1.8032X1.4032*%
%ADD76R,1.8032X0.9032*%
G04:AMPARAMS|DCode=77|XSize=1.1032mm|YSize=1.0032mm|CornerRadius=0.1416mm|HoleSize=0mm|Usage=FLASHONLY|Rotation=0.000|XOffset=0mm|YOffset=0mm|HoleType=Round|Shape=RoundedRectangle|*
%AMROUNDEDRECTD77*
21,1,1.1032,0.7200,0,0,0.0*
21,1,0.8200,1.0032,0,0,0.0*
1,1,0.2832,0.4100,-0.3600*
1,1,0.2832,-0.4100,-0.3600*
1,1,0.2832,-0.4100,0.3600*
1,1,0.2832,0.4100,0.3600*
%
%ADD77ROUNDEDRECTD77*%
%ADD78C,0.4932*%
%ADD79C,2.1032*%
%ADD80C,1.5032*%
%ADD81C,3.2032*%
%ADD82C,1.4532*%
%ADD83C,2.1532*%
%ADD84C,1.7112*%
%ADD85R,1.7112X1.7112*%
%ADD86C,1.7032*%
%ADD87C,1.8032*%
%ADD88C,0.7032*%
%ADD89R,1.7032X1.7032*%
%ADD90C,2.7032*%
%ADD91C,3.4532*%
G36*
X517312Y36639D02*
X882435D01*
X921435Y75639D01*
X943312D01*
X982312Y36639D01*
X996116D01*
Y30885D01*
X945000Y30885D01*
X944811Y30847D01*
X944619Y30866D01*
X943644Y30770D01*
X943098Y30604D01*
X942538Y30493D01*
X940736Y29746D01*
X940231Y29409D01*
X939475Y28904D01*
X938096Y27525D01*
X937254Y26265D01*
X936507Y24462D01*
X936396Y23902D01*
X936230Y23356D01*
X936134Y22381D01*
X936153Y22189D01*
X936116Y22000D01*
X936116Y3885D01*
X215885D01*
Y12000D01*
X215847Y12189D01*
X215866Y12381D01*
X215770Y13356D01*
X215604Y13903D01*
X215493Y14462D01*
X214746Y16265D01*
X214409Y16769D01*
X213904Y17525D01*
X212525Y18904D01*
X211264Y19746D01*
X209462Y20493D01*
X208902Y20604D01*
X208356Y20770D01*
X207381Y20866D01*
X207189Y20847D01*
X207000Y20885D01*
X162000Y20885D01*
X161811Y20847D01*
X161619Y20866D01*
X160644Y20770D01*
X160098Y20604D01*
X159538Y20493D01*
X157736Y19746D01*
X157231Y19409D01*
X156475Y18904D01*
X155096Y17525D01*
X154254Y16264D01*
X153507Y14462D01*
X153396Y13902D01*
X153230Y13356D01*
X153134Y12381D01*
X153153Y12189D01*
X153116Y12000D01*
X153116Y3885D01*
X3885D01*
Y36639D01*
X417356D01*
X456416Y75699D01*
X478252D01*
X517312Y36639D01*
D02*
G37*
G36*
X936116Y1078000D02*
X936153Y1077811D01*
X936134Y1077619D01*
X936230Y1076644D01*
X936396Y1076098D01*
X936507Y1075538D01*
X937254Y1073736D01*
X938096Y1072476D01*
X938096D01*
Y1072476D01*
X939475Y1071096D01*
X940736Y1070254D01*
X942538Y1069507D01*
X943098Y1069396D01*
X943644Y1069230D01*
X944619Y1069134D01*
X944811Y1069153D01*
X945000Y1069116D01*
X996116D01*
Y1063115D01*
X989848D01*
X945909Y1019175D01*
X933789D01*
X889848Y1063115D01*
X382115Y1063115D01*
X338175Y1019175D01*
X325788Y1019175D01*
X281849Y1063115D01*
X3885D01*
Y1096116D01*
X153116D01*
Y1088000D01*
X153153Y1087811D01*
X153134Y1087619D01*
X153230Y1086644D01*
X153396Y1086098D01*
X153507Y1085538D01*
X154254Y1083736D01*
X154591Y1083231D01*
X155096Y1082476D01*
X156475Y1081096D01*
X157736Y1080254D01*
X159538Y1079508D01*
X160098Y1079396D01*
X160644Y1079230D01*
X161619Y1079134D01*
X161811Y1079153D01*
X162000Y1079116D01*
X207000Y1079116D01*
X207189Y1079153D01*
X207381Y1079134D01*
X208356Y1079230D01*
X208902Y1079396D01*
X209462Y1079508D01*
X211264Y1080254D01*
X211769Y1080591D01*
X212525Y1081096D01*
X213904Y1082476D01*
X214746Y1083736D01*
X215493Y1085538D01*
X215604Y1086098D01*
X215770Y1086644D01*
X215866Y1087619D01*
X215847Y1087811D01*
X215885Y1088000D01*
X215885Y1096116D01*
X936116D01*
Y1078000D01*
D02*
G37*
D23*
X616000Y482000D02*
D03*
X520000D02*
D03*
X528000D02*
D03*
X536000D02*
D03*
X552000Y610000D02*
D03*
X536000Y602000D02*
D03*
X568000Y618000D02*
D03*
X544000Y626000D02*
D03*
X616000Y618000D02*
D03*
X504000D02*
D03*
X632000Y610000D02*
D03*
X624000Y618000D02*
D03*
X608000D02*
D03*
X632000D02*
D03*
X624000Y626000D02*
D03*
X600000Y618000D02*
D03*
X608000Y610000D02*
D03*
X592000Y618000D02*
D03*
X496000D02*
D03*
X512000Y626000D02*
D03*
Y610000D02*
D03*
X520000Y618000D02*
D03*
X496000Y610000D02*
D03*
X512000Y618000D02*
D03*
X488000D02*
D03*
Y610000D02*
D03*
X552000Y618000D02*
D03*
X592000Y626000D02*
D03*
X560000Y610000D02*
D03*
X552000Y602000D02*
D03*
X584000Y610000D02*
D03*
X536000Y626000D02*
D03*
X528000Y610000D02*
D03*
X568000D02*
D03*
X576000Y618000D02*
D03*
Y626000D02*
D03*
X536000Y610000D02*
D03*
X600000D02*
D03*
X520000D02*
D03*
X584000Y602000D02*
D03*
X544000Y610000D02*
D03*
X592000D02*
D03*
X528000Y626000D02*
D03*
X536000Y618000D02*
D03*
X576000Y610000D02*
D03*
X544000Y618000D02*
D03*
X488000Y482000D02*
D03*
Y490000D02*
D03*
Y498000D02*
D03*
Y506000D02*
D03*
Y514000D02*
D03*
Y522000D02*
D03*
Y530000D02*
D03*
Y538000D02*
D03*
Y546000D02*
D03*
Y554000D02*
D03*
Y562000D02*
D03*
Y570000D02*
D03*
Y578000D02*
D03*
Y586000D02*
D03*
Y594000D02*
D03*
Y602000D02*
D03*
Y626000D02*
D03*
X496000Y482000D02*
D03*
Y490000D02*
D03*
Y498000D02*
D03*
Y506000D02*
D03*
Y514000D02*
D03*
Y522000D02*
D03*
Y530000D02*
D03*
Y538000D02*
D03*
Y546000D02*
D03*
Y554000D02*
D03*
Y562000D02*
D03*
Y570000D02*
D03*
Y578000D02*
D03*
Y586000D02*
D03*
Y594000D02*
D03*
Y602000D02*
D03*
Y626000D02*
D03*
X504000Y482000D02*
D03*
Y490000D02*
D03*
Y498000D02*
D03*
Y506000D02*
D03*
Y514000D02*
D03*
Y522000D02*
D03*
Y530000D02*
D03*
Y538000D02*
D03*
Y546000D02*
D03*
Y554000D02*
D03*
Y562000D02*
D03*
Y570000D02*
D03*
Y578000D02*
D03*
Y586000D02*
D03*
Y594000D02*
D03*
Y602000D02*
D03*
Y610000D02*
D03*
Y626000D02*
D03*
X512000Y482000D02*
D03*
Y490000D02*
D03*
Y498000D02*
D03*
Y506000D02*
D03*
Y514000D02*
D03*
Y522000D02*
D03*
Y530000D02*
D03*
Y538000D02*
D03*
Y546000D02*
D03*
Y554000D02*
D03*
Y562000D02*
D03*
Y570000D02*
D03*
Y578000D02*
D03*
Y586000D02*
D03*
Y594000D02*
D03*
Y602000D02*
D03*
X520000Y490000D02*
D03*
Y498000D02*
D03*
Y506000D02*
D03*
Y514000D02*
D03*
Y522000D02*
D03*
Y530000D02*
D03*
Y538000D02*
D03*
Y546000D02*
D03*
Y554000D02*
D03*
Y562000D02*
D03*
Y570000D02*
D03*
Y578000D02*
D03*
Y586000D02*
D03*
Y594000D02*
D03*
Y602000D02*
D03*
X528000Y490000D02*
D03*
Y498000D02*
D03*
Y506000D02*
D03*
Y514000D02*
D03*
Y522000D02*
D03*
Y530000D02*
D03*
Y538000D02*
D03*
Y546000D02*
D03*
Y554000D02*
D03*
Y562000D02*
D03*
Y570000D02*
D03*
Y578000D02*
D03*
Y586000D02*
D03*
Y594000D02*
D03*
Y618000D02*
D03*
X536000Y490000D02*
D03*
Y498000D02*
D03*
Y506000D02*
D03*
Y514000D02*
D03*
Y522000D02*
D03*
Y530000D02*
D03*
Y538000D02*
D03*
Y546000D02*
D03*
Y554000D02*
D03*
Y562000D02*
D03*
Y570000D02*
D03*
Y578000D02*
D03*
Y586000D02*
D03*
Y594000D02*
D03*
X544000Y482000D02*
D03*
Y490000D02*
D03*
Y498000D02*
D03*
Y506000D02*
D03*
Y514000D02*
D03*
Y522000D02*
D03*
Y530000D02*
D03*
Y538000D02*
D03*
Y546000D02*
D03*
Y554000D02*
D03*
Y562000D02*
D03*
Y570000D02*
D03*
Y578000D02*
D03*
Y586000D02*
D03*
Y594000D02*
D03*
X552000Y482000D02*
D03*
Y490000D02*
D03*
Y498000D02*
D03*
Y506000D02*
D03*
Y514000D02*
D03*
Y522000D02*
D03*
Y530000D02*
D03*
Y538000D02*
D03*
Y546000D02*
D03*
Y554000D02*
D03*
Y562000D02*
D03*
Y570000D02*
D03*
Y578000D02*
D03*
Y586000D02*
D03*
Y594000D02*
D03*
Y626000D02*
D03*
X560000Y482000D02*
D03*
Y490000D02*
D03*
Y498000D02*
D03*
Y506000D02*
D03*
Y514000D02*
D03*
Y522000D02*
D03*
Y530000D02*
D03*
Y538000D02*
D03*
Y546000D02*
D03*
Y554000D02*
D03*
Y562000D02*
D03*
Y570000D02*
D03*
Y578000D02*
D03*
Y586000D02*
D03*
Y594000D02*
D03*
Y618000D02*
D03*
Y626000D02*
D03*
X568000Y482000D02*
D03*
Y490000D02*
D03*
Y498000D02*
D03*
Y506000D02*
D03*
Y514000D02*
D03*
Y522000D02*
D03*
Y530000D02*
D03*
Y538000D02*
D03*
Y546000D02*
D03*
Y554000D02*
D03*
Y562000D02*
D03*
Y570000D02*
D03*
Y578000D02*
D03*
Y586000D02*
D03*
Y594000D02*
D03*
Y602000D02*
D03*
Y626000D02*
D03*
X576000Y482000D02*
D03*
Y490000D02*
D03*
Y498000D02*
D03*
Y506000D02*
D03*
Y514000D02*
D03*
Y522000D02*
D03*
Y530000D02*
D03*
Y538000D02*
D03*
Y546000D02*
D03*
Y554000D02*
D03*
Y562000D02*
D03*
Y570000D02*
D03*
Y578000D02*
D03*
Y586000D02*
D03*
Y594000D02*
D03*
X584000Y482000D02*
D03*
Y490000D02*
D03*
Y498000D02*
D03*
Y506000D02*
D03*
Y514000D02*
D03*
Y522000D02*
D03*
Y530000D02*
D03*
Y538000D02*
D03*
Y546000D02*
D03*
Y554000D02*
D03*
Y562000D02*
D03*
Y570000D02*
D03*
Y578000D02*
D03*
Y586000D02*
D03*
Y594000D02*
D03*
Y618000D02*
D03*
Y626000D02*
D03*
X592000Y482000D02*
D03*
Y490000D02*
D03*
Y498000D02*
D03*
Y506000D02*
D03*
Y514000D02*
D03*
Y522000D02*
D03*
Y530000D02*
D03*
Y538000D02*
D03*
Y546000D02*
D03*
Y554000D02*
D03*
Y562000D02*
D03*
Y570000D02*
D03*
Y578000D02*
D03*
Y586000D02*
D03*
Y594000D02*
D03*
X600000Y482000D02*
D03*
Y490000D02*
D03*
Y498000D02*
D03*
Y506000D02*
D03*
Y514000D02*
D03*
Y522000D02*
D03*
Y530000D02*
D03*
Y538000D02*
D03*
Y546000D02*
D03*
Y554000D02*
D03*
Y562000D02*
D03*
Y570000D02*
D03*
Y578000D02*
D03*
Y586000D02*
D03*
Y594000D02*
D03*
Y602000D02*
D03*
X608000Y482000D02*
D03*
Y490000D02*
D03*
Y498000D02*
D03*
Y506000D02*
D03*
Y514000D02*
D03*
Y522000D02*
D03*
Y530000D02*
D03*
Y538000D02*
D03*
Y546000D02*
D03*
Y554000D02*
D03*
Y562000D02*
D03*
Y570000D02*
D03*
Y578000D02*
D03*
Y586000D02*
D03*
Y594000D02*
D03*
Y602000D02*
D03*
Y626000D02*
D03*
X616000Y490000D02*
D03*
Y498000D02*
D03*
Y506000D02*
D03*
Y514000D02*
D03*
Y522000D02*
D03*
Y530000D02*
D03*
Y538000D02*
D03*
Y546000D02*
D03*
Y554000D02*
D03*
Y562000D02*
D03*
Y570000D02*
D03*
Y578000D02*
D03*
Y586000D02*
D03*
Y594000D02*
D03*
Y602000D02*
D03*
Y610000D02*
D03*
Y626000D02*
D03*
X624000Y482000D02*
D03*
Y490000D02*
D03*
Y498000D02*
D03*
Y506000D02*
D03*
Y514000D02*
D03*
Y522000D02*
D03*
Y530000D02*
D03*
Y538000D02*
D03*
Y546000D02*
D03*
Y554000D02*
D03*
Y562000D02*
D03*
Y570000D02*
D03*
Y578000D02*
D03*
Y586000D02*
D03*
Y594000D02*
D03*
Y602000D02*
D03*
Y610000D02*
D03*
X632000Y482000D02*
D03*
Y490000D02*
D03*
Y498000D02*
D03*
Y506000D02*
D03*
Y514000D02*
D03*
Y522000D02*
D03*
Y530000D02*
D03*
Y538000D02*
D03*
Y546000D02*
D03*
Y554000D02*
D03*
Y562000D02*
D03*
Y570000D02*
D03*
Y578000D02*
D03*
Y586000D02*
D03*
Y594000D02*
D03*
Y602000D02*
D03*
Y626000D02*
D03*
D38*
X238900Y949000D02*
D03*
X281100D02*
D03*
X447125Y1029378D02*
D03*
X404925D02*
D03*
X447100Y920000D02*
D03*
X404900D02*
D03*
D50*
X548000Y1020000D02*
D03*
Y970000D02*
D03*
X423000Y756000D02*
D03*
Y806000D02*
D03*
D51*
X706000Y861000D02*
D03*
X656000D02*
D03*
D52*
X811000Y209000D02*
D03*
X821000D02*
D03*
X457000Y665000D02*
D03*
X581270Y954730D02*
D03*
X571270D02*
D03*
X375000Y961000D02*
D03*
X365000D02*
D03*
X375126Y945297D02*
D03*
X365126D02*
D03*
X366000Y880000D02*
D03*
X376000D02*
D03*
X886000Y838760D02*
D03*
X896000D02*
D03*
X886000Y858184D02*
D03*
X896000D02*
D03*
X734920Y707000D02*
D03*
X744920D02*
D03*
X714000Y707000D02*
D03*
X724000D02*
D03*
X702000D02*
D03*
X692000D02*
D03*
X702000Y693409D02*
D03*
X692000D02*
D03*
X654000Y619000D02*
D03*
X664000D02*
D03*
X654183Y601518D02*
D03*
X664183D02*
D03*
X664466Y586459D02*
D03*
X654466D02*
D03*
X654183Y566002D02*
D03*
X664183D02*
D03*
X695500Y479000D02*
D03*
X685500D02*
D03*
X826000Y672000D02*
D03*
X836000D02*
D03*
X826000Y683000D02*
D03*
X836000D02*
D03*
X621359Y451928D02*
D03*
X611359D02*
D03*
X423000Y717100D02*
D03*
X433000D02*
D03*
X420146Y404461D02*
D03*
X430146D02*
D03*
X554000Y674000D02*
D03*
X564000D02*
D03*
X447000Y665000D02*
D03*
X654000Y479000D02*
D03*
X664000D02*
D03*
X654466Y519000D02*
D03*
X664466D02*
D03*
X410000Y503000D02*
D03*
X420000D02*
D03*
X410000Y490000D02*
D03*
X420000D02*
D03*
X693908Y980037D02*
D03*
X703908D02*
D03*
X693908Y999882D02*
D03*
X703908D02*
D03*
X810000Y297000D02*
D03*
X820000D02*
D03*
X794000Y286000D02*
D03*
X804000D02*
D03*
X810000Y275000D02*
D03*
X820000D02*
D03*
X810000Y253000D02*
D03*
X820000D02*
D03*
X811000Y231000D02*
D03*
X821000D02*
D03*
X794000Y220000D02*
D03*
X804000D02*
D03*
X743700Y802000D02*
D03*
X753700D02*
D03*
X376000Y861000D02*
D03*
X366000D02*
D03*
X139000Y590000D02*
D03*
X149000D02*
D03*
X299000Y149993D02*
D03*
X309000D02*
D03*
X299000Y127993D02*
D03*
X309000D02*
D03*
Y195993D02*
D03*
X299000D02*
D03*
X139000Y568000D02*
D03*
X149000D02*
D03*
Y636000D02*
D03*
X139000D02*
D03*
Y149993D02*
D03*
X149000D02*
D03*
X139000Y127993D02*
D03*
X149000D02*
D03*
Y195993D02*
D03*
X139000D02*
D03*
Y370000D02*
D03*
X149000D02*
D03*
Y416000D02*
D03*
X139000D02*
D03*
Y348000D02*
D03*
X149000D02*
D03*
D53*
X344500Y74426D02*
D03*
X185000Y516091D02*
D03*
X185000Y294000D02*
D03*
X185000Y74426D02*
D03*
X149000Y506091D02*
D03*
Y516091D02*
D03*
Y544091D02*
D03*
Y554091D02*
D03*
X185000Y506091D02*
D03*
X308500Y64426D02*
D03*
Y74426D02*
D03*
Y102426D02*
D03*
Y112426D02*
D03*
X344500Y64426D02*
D03*
X149000Y284000D02*
D03*
Y294000D02*
D03*
Y322000D02*
D03*
Y332000D02*
D03*
X185000Y284000D02*
D03*
X149000Y102426D02*
D03*
Y112426D02*
D03*
X185000Y64426D02*
D03*
X149000D02*
D03*
Y74426D02*
D03*
X611976Y876197D02*
D03*
Y866197D02*
D03*
X510278Y865489D02*
D03*
Y875489D02*
D03*
X612763Y828834D02*
D03*
Y818834D02*
D03*
X612911Y775049D02*
D03*
Y785049D02*
D03*
X612752Y744260D02*
D03*
Y734260D02*
D03*
X499000Y981000D02*
D03*
Y971000D02*
D03*
Y875489D02*
D03*
Y865489D02*
D03*
X340000Y817430D02*
D03*
Y807430D02*
D03*
X320500Y807430D02*
D03*
Y817430D02*
D03*
X340000Y776000D02*
D03*
Y786000D02*
D03*
X321000Y786000D02*
D03*
Y776000D02*
D03*
X262000Y876000D02*
D03*
Y886000D02*
D03*
Y857000D02*
D03*
Y867000D02*
D03*
Y840000D02*
D03*
Y830000D02*
D03*
Y821000D02*
D03*
Y811000D02*
D03*
Y789000D02*
D03*
Y799000D02*
D03*
Y770000D02*
D03*
Y780000D02*
D03*
Y754000D02*
D03*
Y744000D02*
D03*
Y735000D02*
D03*
Y725000D02*
D03*
X881000Y408000D02*
D03*
Y398000D02*
D03*
Y419000D02*
D03*
Y429000D02*
D03*
X735000Y732000D02*
D03*
Y722000D02*
D03*
X748000Y649000D02*
D03*
Y659000D02*
D03*
X927060Y162000D02*
D03*
Y152000D02*
D03*
X462000Y372000D02*
D03*
Y382000D02*
D03*
X444000Y414000D02*
D03*
Y404000D02*
D03*
X435000Y394000D02*
D03*
Y384000D02*
D03*
X499000Y799000D02*
D03*
Y809000D02*
D03*
X612847Y753052D02*
D03*
Y763052D02*
D03*
X499000Y769000D02*
D03*
Y779000D02*
D03*
X612686Y724866D02*
D03*
Y714866D02*
D03*
X499000Y726000D02*
D03*
Y736000D02*
D03*
X612771Y705051D02*
D03*
Y695051D02*
D03*
X499091Y828867D02*
D03*
Y818867D02*
D03*
X526000Y430639D02*
D03*
Y440639D02*
D03*
X769000Y497000D02*
D03*
Y507000D02*
D03*
X709000Y641000D02*
D03*
Y631000D02*
D03*
X699000Y641000D02*
D03*
Y631000D02*
D03*
X688000D02*
D03*
Y641000D02*
D03*
X677000Y631000D02*
D03*
Y641000D02*
D03*
X705000Y501000D02*
D03*
Y511000D02*
D03*
X769000Y595000D02*
D03*
Y585000D02*
D03*
Y565000D02*
D03*
Y575000D02*
D03*
Y554000D02*
D03*
Y544000D02*
D03*
Y525000D02*
D03*
Y535000D02*
D03*
X540000Y452721D02*
D03*
Y462721D02*
D03*
Y430639D02*
D03*
Y440639D02*
D03*
X567124Y431000D02*
D03*
Y441000D02*
D03*
X495560Y906442D02*
D03*
Y896442D02*
D03*
X521689Y875489D02*
D03*
Y865489D02*
D03*
X506855Y906442D02*
D03*
Y896442D02*
D03*
X627000Y876197D02*
D03*
Y866197D02*
D03*
D54*
X333500Y74426D02*
D03*
X174000Y516091D02*
D03*
X174000Y294000D02*
D03*
X174000Y74426D02*
D03*
X327000Y96426D02*
D03*
X167500Y538091D02*
D03*
X167500Y316000D02*
D03*
X167500Y96426D02*
D03*
X161000Y538091D02*
D03*
X174000D02*
D03*
X167500Y516091D02*
D03*
X161000D02*
D03*
X320500Y96426D02*
D03*
X333500D02*
D03*
X327000Y74426D02*
D03*
X320500D02*
D03*
X161000Y316000D02*
D03*
X174000D02*
D03*
X167500Y294000D02*
D03*
X161000D02*
D03*
X161000Y96426D02*
D03*
X174000D02*
D03*
X167500Y74426D02*
D03*
X161000D02*
D03*
D55*
X540000Y746000D02*
D03*
X532000Y706000D02*
D03*
X540000Y762000D02*
D03*
X524000Y754000D02*
D03*
X540000Y802000D02*
D03*
X572000Y794000D02*
D03*
X540000Y826000D02*
D03*
X580000Y818000D02*
D03*
X532000Y826000D02*
D03*
X572000D02*
D03*
X532000Y810000D02*
D03*
X580000D02*
D03*
X540000D02*
D03*
X572000Y802000D02*
D03*
Y770000D02*
D03*
X532000Y778000D02*
D03*
X580000Y770000D02*
D03*
X540000D02*
D03*
X580000Y786000D02*
D03*
X532000D02*
D03*
X572000D02*
D03*
X540000Y794000D02*
D03*
X532000Y746000D02*
D03*
X588000Y754000D02*
D03*
X540000D02*
D03*
Y738000D02*
D03*
X580000Y730000D02*
D03*
X532000Y738000D02*
D03*
X540000Y706000D02*
D03*
X572000Y730000D02*
D03*
Y714000D02*
D03*
Y746000D02*
D03*
X540000Y714000D02*
D03*
X580000Y706000D02*
D03*
X532000Y714000D02*
D03*
X580000D02*
D03*
X532000Y722000D02*
D03*
X580000D02*
D03*
X532000Y730000D02*
D03*
X540000Y722000D02*
D03*
X572000D02*
D03*
X540000Y730000D02*
D03*
X524000Y826000D02*
D03*
X580000D02*
D03*
X588000D02*
D03*
X524000Y818000D02*
D03*
X532000D02*
D03*
X540000D02*
D03*
X572000D02*
D03*
X588000D02*
D03*
X524000Y810000D02*
D03*
X572000D02*
D03*
X588000D02*
D03*
X524000Y802000D02*
D03*
X532000D02*
D03*
X580000D02*
D03*
X588000D02*
D03*
X524000Y794000D02*
D03*
X532000D02*
D03*
X580000D02*
D03*
X588000D02*
D03*
X524000Y786000D02*
D03*
X540000D02*
D03*
X588000D02*
D03*
X524000Y778000D02*
D03*
X540000D02*
D03*
X572000D02*
D03*
X580000D02*
D03*
X588000D02*
D03*
X524000Y770000D02*
D03*
X532000D02*
D03*
X588000D02*
D03*
X524000Y762000D02*
D03*
X532000D02*
D03*
X572000D02*
D03*
X580000D02*
D03*
X588000D02*
D03*
X532000Y754000D02*
D03*
X572000D02*
D03*
X580000D02*
D03*
X524000Y746000D02*
D03*
X580000D02*
D03*
X588000D02*
D03*
X524000Y738000D02*
D03*
X572000D02*
D03*
X580000D02*
D03*
X588000D02*
D03*
X524000Y730000D02*
D03*
X588000D02*
D03*
X524000Y722000D02*
D03*
X588000D02*
D03*
X524000Y714000D02*
D03*
X588000D02*
D03*
X524000Y706000D02*
D03*
X572000D02*
D03*
X588000D02*
D03*
D56*
X337250Y112426D02*
D03*
X177750Y554091D02*
D03*
X177750Y332000D02*
D03*
X177750Y112426D02*
D03*
X162250Y554091D02*
D03*
X321750Y112426D02*
D03*
X162250Y332000D02*
D03*
X162250Y112426D02*
D03*
D57*
X233000Y1026000D02*
D03*
X970000Y75000D02*
D03*
X30000Y73000D02*
D03*
D58*
X570270Y939730D02*
D03*
X585270D02*
D03*
D59*
X536450Y868000D02*
D03*
X549150D02*
D03*
X561850D02*
D03*
X574550D02*
D03*
X536450Y916000D02*
D03*
X549150D02*
D03*
X561850D02*
D03*
X574550D02*
D03*
D60*
X521560Y896500D02*
D03*
Y911500D02*
D03*
X594000Y880489D02*
D03*
Y865489D02*
D03*
X380000Y974500D02*
D03*
Y989500D02*
D03*
X305000Y1002000D02*
D03*
Y987000D02*
D03*
Y902500D02*
D03*
Y917500D02*
D03*
X881000Y368500D02*
D03*
Y383500D02*
D03*
X484000Y402500D02*
D03*
Y387500D02*
D03*
X379000Y911500D02*
D03*
Y926500D02*
D03*
D61*
X481000Y964500D02*
D03*
Y985500D02*
D03*
Y855500D02*
D03*
Y876500D02*
D03*
X904000Y148500D02*
D03*
Y169500D02*
D03*
X500000Y384500D02*
D03*
Y405500D02*
D03*
X631372Y825247D02*
D03*
Y804247D02*
D03*
X481000Y803500D02*
D03*
Y824500D02*
D03*
D62*
X358152Y981383D02*
D03*
X358000Y919000D02*
D03*
D63*
X365652Y990883D02*
D03*
Y971883D02*
D03*
X360652D02*
D03*
X355652D02*
D03*
X350652D02*
D03*
Y990883D02*
D03*
X355652D02*
D03*
X360652D02*
D03*
X365500Y928500D02*
D03*
Y909500D02*
D03*
X360500D02*
D03*
X355500D02*
D03*
X350500D02*
D03*
Y928500D02*
D03*
X355500D02*
D03*
X360500D02*
D03*
D64*
X329000Y977500D02*
D03*
Y1006500D02*
D03*
X328000Y927500D02*
D03*
Y898500D02*
D03*
X832000Y424500D02*
D03*
Y453500D02*
D03*
D65*
X280976Y1002250D02*
D03*
Y986750D02*
D03*
X856000Y452750D02*
D03*
Y437250D02*
D03*
D66*
X426000Y957000D02*
D03*
Y993000D02*
D03*
X425953Y884623D02*
D03*
Y848624D02*
D03*
D67*
X330500Y729000D02*
D03*
X321000Y753000D02*
D03*
X340000D02*
D03*
X330500Y864430D02*
D03*
X340000Y840430D02*
D03*
X321000D02*
D03*
D68*
X259499Y1001999D02*
D03*
X244499D02*
D03*
D69*
X735000Y785000D02*
D03*
X760400Y759000D02*
D03*
X735000D02*
D03*
X760400Y785000D02*
D03*
D70*
X720500Y612500D02*
D03*
X690500Y565500D02*
D03*
Y612500D02*
D03*
X685500Y565500D02*
D03*
Y612500D02*
D03*
X715500Y565500D02*
D03*
X710500D02*
D03*
Y612500D02*
D03*
X720500Y565500D02*
D03*
X715500Y612500D02*
D03*
X700500D02*
D03*
X695500D02*
D03*
Y565500D02*
D03*
X705500D02*
D03*
Y612500D02*
D03*
X700500Y565500D02*
D03*
D71*
X679500Y571500D02*
D03*
Y576500D02*
D03*
Y581500D02*
D03*
Y586500D02*
D03*
Y601500D02*
D03*
Y596500D02*
D03*
Y591500D02*
D03*
Y606500D02*
D03*
X726500Y601500D02*
D03*
Y586500D02*
D03*
Y591500D02*
D03*
Y596500D02*
D03*
Y581500D02*
D03*
Y606500D02*
D03*
Y571500D02*
D03*
Y576500D02*
D03*
D72*
X703000Y589000D02*
D03*
D73*
X858000Y343000D02*
D03*
D74*
X954000Y352000D02*
D03*
Y197000D02*
D03*
D75*
X859000D02*
D03*
D76*
X853000Y209000D02*
D03*
Y220000D02*
D03*
Y231000D02*
D03*
Y242000D02*
D03*
Y253000D02*
D03*
Y264000D02*
D03*
Y275000D02*
D03*
Y286000D02*
D03*
Y297000D02*
D03*
D77*
X583359Y451861D02*
D03*
X597359D02*
D03*
Y440861D02*
D03*
X583359D02*
D03*
D78*
X421146Y270461D02*
D03*
Y275461D02*
D03*
Y280461D02*
D03*
Y285461D02*
D03*
Y290461D02*
D03*
Y295461D02*
D03*
Y300461D02*
D03*
Y305461D02*
D03*
Y310461D02*
D03*
Y315461D02*
D03*
Y320461D02*
D03*
Y325461D02*
D03*
Y330461D02*
D03*
Y335461D02*
D03*
X426146Y270461D02*
D03*
Y275461D02*
D03*
Y280461D02*
D03*
Y285461D02*
D03*
Y290461D02*
D03*
Y295461D02*
D03*
Y300461D02*
D03*
Y305461D02*
D03*
Y310461D02*
D03*
Y315461D02*
D03*
Y320461D02*
D03*
Y325461D02*
D03*
Y330461D02*
D03*
Y335461D02*
D03*
X431146Y270461D02*
D03*
Y275461D02*
D03*
Y280461D02*
D03*
Y285461D02*
D03*
Y290461D02*
D03*
Y295461D02*
D03*
Y300461D02*
D03*
Y305461D02*
D03*
Y310461D02*
D03*
Y315461D02*
D03*
Y320461D02*
D03*
Y325461D02*
D03*
Y330461D02*
D03*
Y335461D02*
D03*
X436146Y270461D02*
D03*
Y275461D02*
D03*
Y280461D02*
D03*
Y325461D02*
D03*
Y330461D02*
D03*
Y335461D02*
D03*
X441146Y270461D02*
D03*
Y275461D02*
D03*
Y280461D02*
D03*
Y290461D02*
D03*
Y295461D02*
D03*
Y300461D02*
D03*
Y305461D02*
D03*
Y310461D02*
D03*
Y315461D02*
D03*
Y325461D02*
D03*
Y330461D02*
D03*
Y335461D02*
D03*
X446146Y270461D02*
D03*
Y275461D02*
D03*
Y280461D02*
D03*
Y290461D02*
D03*
Y315461D02*
D03*
Y325461D02*
D03*
Y330461D02*
D03*
Y335461D02*
D03*
X451146Y270461D02*
D03*
Y275461D02*
D03*
Y280461D02*
D03*
Y290461D02*
D03*
Y315461D02*
D03*
Y325461D02*
D03*
Y330461D02*
D03*
Y335461D02*
D03*
X456146Y270461D02*
D03*
Y275461D02*
D03*
Y280461D02*
D03*
Y290461D02*
D03*
Y315461D02*
D03*
Y325461D02*
D03*
Y330461D02*
D03*
Y335461D02*
D03*
X461146Y270461D02*
D03*
Y275461D02*
D03*
Y280461D02*
D03*
Y290461D02*
D03*
Y315461D02*
D03*
Y325461D02*
D03*
Y330461D02*
D03*
Y335461D02*
D03*
X466146Y270461D02*
D03*
Y275461D02*
D03*
Y280461D02*
D03*
Y290461D02*
D03*
Y295461D02*
D03*
Y300461D02*
D03*
Y305461D02*
D03*
Y310461D02*
D03*
Y315461D02*
D03*
Y325461D02*
D03*
Y330461D02*
D03*
Y335461D02*
D03*
X471146Y270461D02*
D03*
Y275461D02*
D03*
Y280461D02*
D03*
Y320461D02*
D03*
Y325461D02*
D03*
Y330461D02*
D03*
Y335461D02*
D03*
X476146Y270461D02*
D03*
Y275461D02*
D03*
Y280461D02*
D03*
Y285461D02*
D03*
Y290461D02*
D03*
Y295461D02*
D03*
Y300461D02*
D03*
Y305461D02*
D03*
Y310461D02*
D03*
Y315461D02*
D03*
Y320461D02*
D03*
Y325461D02*
D03*
Y330461D02*
D03*
Y335461D02*
D03*
X481146Y270461D02*
D03*
Y275461D02*
D03*
Y280461D02*
D03*
Y285461D02*
D03*
Y290461D02*
D03*
Y295461D02*
D03*
Y300461D02*
D03*
Y305461D02*
D03*
Y310461D02*
D03*
Y315461D02*
D03*
Y320461D02*
D03*
Y325461D02*
D03*
Y330461D02*
D03*
Y335461D02*
D03*
X486146Y270461D02*
D03*
Y275461D02*
D03*
Y280461D02*
D03*
Y285461D02*
D03*
Y290461D02*
D03*
Y295461D02*
D03*
Y300461D02*
D03*
Y305461D02*
D03*
Y310461D02*
D03*
Y315461D02*
D03*
Y320461D02*
D03*
Y325461D02*
D03*
Y330461D02*
D03*
Y335461D02*
D03*
D79*
X22900Y842000D02*
D03*
X48300D02*
D03*
X73700D02*
D03*
X99100D02*
D03*
X22900Y758000D02*
D03*
X48300D02*
D03*
X73700D02*
D03*
X99100D02*
D03*
X152600Y842000D02*
D03*
X178000D02*
D03*
X203400D02*
D03*
X228800D02*
D03*
X152600Y758000D02*
D03*
X178000D02*
D03*
X203400D02*
D03*
X228800D02*
D03*
D80*
X48300Y820400D02*
D03*
Y736400D02*
D03*
X178000Y820400D02*
D03*
Y736400D02*
D03*
D81*
X332000Y1045000D02*
D03*
X940000D02*
D03*
X932000Y50000D02*
D03*
X467000D02*
D03*
X70000Y927999D02*
D03*
Y1011998D02*
D03*
D82*
X659000Y980000D02*
D03*
Y1000000D02*
D03*
X639000Y980000D02*
D03*
Y1000000D02*
D03*
X619000Y980000D02*
D03*
Y1000000D02*
D03*
D83*
X921000Y432000D02*
D03*
Y362000D02*
D03*
X936000Y747000D02*
D03*
Y817000D02*
D03*
D84*
X946000Y419500D02*
D03*
X961000Y804500D02*
D03*
D85*
X946000Y374500D02*
D03*
X961000Y759500D02*
D03*
D86*
X923218Y858184D02*
D03*
X948218D02*
D03*
X923218Y883184D02*
D03*
X948218D02*
D03*
X257000Y236053D02*
D03*
X237000D02*
D03*
X257000Y216053D02*
D03*
X237000D02*
D03*
X257000Y196053D02*
D03*
X237000D02*
D03*
X257000Y176053D02*
D03*
X237000D02*
D03*
X257000Y156053D02*
D03*
X237000D02*
D03*
X257000Y136053D02*
D03*
X237000D02*
D03*
X257000Y116053D02*
D03*
X237000D02*
D03*
X257000Y96053D02*
D03*
X237000D02*
D03*
X257000Y76053D02*
D03*
X237000D02*
D03*
X97000Y676060D02*
D03*
X77000D02*
D03*
X97000Y656060D02*
D03*
X77000D02*
D03*
X97000Y636060D02*
D03*
X77000D02*
D03*
X97000Y616060D02*
D03*
X77000D02*
D03*
X97000Y596060D02*
D03*
X77000D02*
D03*
X97000Y576060D02*
D03*
X77000D02*
D03*
X97000Y556060D02*
D03*
X77000D02*
D03*
X97000Y536060D02*
D03*
X77000D02*
D03*
X97000Y516060D02*
D03*
X77000D02*
D03*
X97000Y236053D02*
D03*
X77000D02*
D03*
X97000Y216053D02*
D03*
X77000D02*
D03*
X97000Y196053D02*
D03*
X77000D02*
D03*
X97000Y176053D02*
D03*
X77000D02*
D03*
X97000Y156053D02*
D03*
X77000D02*
D03*
X97000Y136053D02*
D03*
X77000D02*
D03*
X97000Y116053D02*
D03*
X77000D02*
D03*
X97000Y96053D02*
D03*
X77000D02*
D03*
X97000Y76053D02*
D03*
X77000D02*
D03*
X97000Y456060D02*
D03*
X77000D02*
D03*
X97000Y436060D02*
D03*
X77000D02*
D03*
X97000Y416060D02*
D03*
X77000D02*
D03*
X97000Y396060D02*
D03*
X77000D02*
D03*
X97000Y376060D02*
D03*
X77000D02*
D03*
X97000Y356060D02*
D03*
X77000D02*
D03*
X97000Y336060D02*
D03*
X77000D02*
D03*
X97000Y316060D02*
D03*
X77000D02*
D03*
X97000Y296060D02*
D03*
X77000D02*
D03*
X821400Y604200D02*
D03*
X846800Y591500D02*
D03*
X821400Y528000D02*
D03*
Y553400D02*
D03*
Y578800D02*
D03*
X846800Y540700D02*
D03*
Y566100D02*
D03*
D87*
X368300Y717100D02*
D03*
X393700D02*
D03*
X368300Y691700D02*
D03*
X393700D02*
D03*
X368300Y666300D02*
D03*
X393700Y640900D02*
D03*
X368300D02*
D03*
X393700Y666300D02*
D03*
X787000Y364200D02*
D03*
Y389600D02*
D03*
Y415000D02*
D03*
X956000Y627000D02*
D03*
X935700Y492500D02*
D03*
Y627000D02*
D03*
X956000Y492500D02*
D03*
D88*
X958000Y305000D02*
D03*
Y225000D02*
D03*
D89*
X846800Y515300D02*
D03*
D90*
X879800Y638500D02*
D03*
Y481000D02*
D03*
X143000Y927998D02*
D03*
X198000D02*
D03*
Y969998D02*
D03*
X143000D02*
D03*
X198000Y1011998D02*
D03*
X143000D02*
D03*
D91*
X910300Y616900D02*
D03*
Y502600D02*
D03*
M02*
